G04 #@! TF.GenerationSoftware,KiCad,Pcbnew,5.0.2-bee76a0~70~ubuntu18.04.1*
G04 #@! TF.CreationDate,2018-12-05T13:48:36+01:00*
G04 #@! TF.ProjectId,usbhub,75736268-7562-42e6-9b69-6361645f7063,rev?*
G04 #@! TF.SameCoordinates,Original*
G04 #@! TF.FileFunction,Legend,Bot*
G04 #@! TF.FilePolarity,Positive*
%FSLAX46Y46*%
G04 Gerber Fmt 4.6, Leading zero omitted, Abs format (unit mm)*
G04 Created by KiCad (PCBNEW 5.0.2-bee76a0~70~ubuntu18.04.1) date 2018-12-05T13:48:36 CET*
%MOMM*%
%LPD*%
G01*
G04 APERTURE LIST*
%ADD10C,0.010000*%
G04 APERTURE END LIST*
D10*
G04 #@! TO.C,REF\002A\002A*
G36*
X123020248Y-68881782D02*
X124227377Y-68881782D01*
X124227377Y-68278218D01*
X123020248Y-68278218D01*
X123020248Y-67071089D01*
X122416684Y-67071089D01*
X122416684Y-68278218D01*
X121209555Y-68278218D01*
X121209555Y-68881538D01*
X121809976Y-68884804D01*
X122410396Y-68888069D01*
X122413662Y-69488490D01*
X122416927Y-70088911D01*
X123020248Y-70088911D01*
X123020248Y-68881782D01*
X123020248Y-68881782D01*
G37*
X123020248Y-68881782D02*
X124227377Y-68881782D01*
X124227377Y-68278218D01*
X123020248Y-68278218D01*
X123020248Y-67071089D01*
X122416684Y-67071089D01*
X122416684Y-68278218D01*
X121209555Y-68278218D01*
X121209555Y-68881538D01*
X121809976Y-68884804D01*
X122410396Y-68888069D01*
X122413662Y-69488490D01*
X122416927Y-70088911D01*
X123020248Y-70088911D01*
X123020248Y-68881782D01*
G36*
X106133020Y-68278218D02*
X103115198Y-68278218D01*
X103115198Y-68881782D01*
X106133020Y-68881782D01*
X106133020Y-68278218D01*
X106133020Y-68278218D01*
G37*
X106133020Y-68278218D02*
X103115198Y-68278218D01*
X103115198Y-68881782D01*
X106133020Y-68881782D01*
X106133020Y-68278218D01*
G36*
X122839857Y-71594648D02*
X122949024Y-71590439D01*
X123002281Y-71586461D01*
X123270462Y-71549918D01*
X123533658Y-71490608D01*
X123789621Y-71409446D01*
X124036103Y-71307346D01*
X124270855Y-71185224D01*
X124491630Y-71043993D01*
X124667476Y-70908892D01*
X124866601Y-70726350D01*
X125047043Y-70527388D01*
X125208021Y-70313246D01*
X125348755Y-70085162D01*
X125468468Y-69844377D01*
X125566380Y-69592131D01*
X125629636Y-69378451D01*
X125683398Y-69123687D01*
X125716602Y-68861875D01*
X125729157Y-68597474D01*
X125720970Y-68334943D01*
X125691950Y-68078743D01*
X125659887Y-67908689D01*
X125588092Y-67639938D01*
X125494676Y-67382827D01*
X125380269Y-67138290D01*
X125245501Y-66907265D01*
X125091002Y-66690689D01*
X124917403Y-66489499D01*
X124725332Y-66304630D01*
X124515420Y-66137020D01*
X124426866Y-66075196D01*
X124195064Y-65934329D01*
X123953075Y-65816213D01*
X123700374Y-65720645D01*
X123436434Y-65647426D01*
X123180107Y-65599166D01*
X123115666Y-65591257D01*
X123036077Y-65583997D01*
X122946678Y-65577627D01*
X122852807Y-65572386D01*
X122759804Y-65568516D01*
X122673007Y-65566255D01*
X122597755Y-65565845D01*
X122539386Y-65567526D01*
X122517278Y-65569330D01*
X122486066Y-65572767D01*
X122437553Y-65577981D01*
X122379451Y-65584146D01*
X122341238Y-65588163D01*
X122092765Y-65626211D01*
X121843947Y-65687603D01*
X121598372Y-65770846D01*
X121359629Y-65874445D01*
X121131304Y-65996904D01*
X120916985Y-66136731D01*
X120788317Y-66235059D01*
X120706263Y-66305646D01*
X120616395Y-66389415D01*
X120525509Y-66479592D01*
X120440407Y-66569405D01*
X120367885Y-66652079D01*
X120359346Y-66662425D01*
X120212547Y-66860822D01*
X120081636Y-67076745D01*
X119967872Y-67307265D01*
X119872511Y-67549453D01*
X119796813Y-67800380D01*
X119742036Y-68057118D01*
X119731417Y-68124183D01*
X119708778Y-68278218D01*
X117378079Y-68278218D01*
X117083557Y-68278187D01*
X116813274Y-68278092D01*
X116566320Y-68277925D01*
X116341786Y-68277682D01*
X116138762Y-68277355D01*
X115956339Y-68276939D01*
X115793606Y-68276427D01*
X115649655Y-68275814D01*
X115523576Y-68275093D01*
X115414459Y-68274258D01*
X115321394Y-68273303D01*
X115243473Y-68272222D01*
X115179785Y-68271008D01*
X115129421Y-68269657D01*
X115091471Y-68268160D01*
X115065026Y-68266514D01*
X115049176Y-68264710D01*
X115043011Y-68262744D01*
X115042880Y-68262500D01*
X114992173Y-68103579D01*
X114936105Y-67965122D01*
X114872193Y-67842609D01*
X114797957Y-67731522D01*
X114710915Y-67627340D01*
X114671547Y-67586175D01*
X114536272Y-67466732D01*
X114388836Y-67367785D01*
X114231533Y-67289339D01*
X114066658Y-67231396D01*
X113896506Y-67193960D01*
X113723372Y-67177034D01*
X113549550Y-67180621D01*
X113377336Y-67204725D01*
X113209023Y-67249350D01*
X113046907Y-67314497D01*
X112893283Y-67400171D01*
X112750445Y-67506375D01*
X112667553Y-67583295D01*
X112545539Y-67721739D01*
X112446725Y-67867708D01*
X112369733Y-68023393D01*
X112338386Y-68107364D01*
X112289798Y-68288927D01*
X112264573Y-68471842D01*
X112263155Y-68575656D01*
X120367080Y-68575656D01*
X120377761Y-68332410D01*
X120410199Y-68100098D01*
X120464980Y-67876077D01*
X120542694Y-67657703D01*
X120599728Y-67530049D01*
X120713116Y-67322465D01*
X120845742Y-67130222D01*
X120996277Y-66954186D01*
X121163393Y-66795225D01*
X121345761Y-66654206D01*
X121542053Y-66531998D01*
X121750940Y-66429467D01*
X121971093Y-66347480D01*
X122201185Y-66286906D01*
X122439885Y-66248612D01*
X122580149Y-66237038D01*
X122625493Y-66234474D01*
X122665104Y-66232080D01*
X122680743Y-66231050D01*
X122704636Y-66231115D01*
X122747896Y-66232853D01*
X122804817Y-66235979D01*
X122869695Y-66240208D01*
X122884086Y-66241231D01*
X123130942Y-66270903D01*
X123367815Y-66323053D01*
X123593679Y-66396791D01*
X123807509Y-66491228D01*
X124008278Y-66605472D01*
X124194962Y-66738634D01*
X124366534Y-66889824D01*
X124521970Y-67058151D01*
X124660243Y-67242726D01*
X124780328Y-67442658D01*
X124881199Y-67657058D01*
X124961831Y-67885035D01*
X125013853Y-68089604D01*
X125029778Y-68183977D01*
X125042338Y-68296304D01*
X125051253Y-68419582D01*
X125056244Y-68546805D01*
X125057031Y-68670970D01*
X125053335Y-68785073D01*
X125045336Y-68878428D01*
X125003179Y-69124573D01*
X124938850Y-69359343D01*
X124852746Y-69582085D01*
X124745266Y-69792147D01*
X124616808Y-69988874D01*
X124467769Y-70171613D01*
X124298549Y-70339712D01*
X124109545Y-70492517D01*
X124026188Y-70550754D01*
X123833870Y-70664639D01*
X123628132Y-70758815D01*
X123411574Y-70832959D01*
X123186795Y-70886745D01*
X122956396Y-70919851D01*
X122722977Y-70931952D01*
X122489137Y-70922726D01*
X122257478Y-70891847D01*
X122030598Y-70838993D01*
X121938862Y-70810663D01*
X121715440Y-70723625D01*
X121505598Y-70616014D01*
X121310283Y-70489004D01*
X121130446Y-70343769D01*
X120967034Y-70181483D01*
X120820996Y-70003319D01*
X120693281Y-69810451D01*
X120584836Y-69604053D01*
X120496612Y-69385299D01*
X120429556Y-69155363D01*
X120384617Y-68915418D01*
X120380270Y-68882112D01*
X120375532Y-68830426D01*
X120371549Y-68761414D01*
X120368657Y-68682894D01*
X120367192Y-68602684D01*
X120367080Y-68575656D01*
X112263155Y-68575656D01*
X112262085Y-68653943D01*
X112281705Y-68833064D01*
X112322804Y-69007039D01*
X112384756Y-69173704D01*
X112466932Y-69330892D01*
X112568705Y-69476437D01*
X112689445Y-69608174D01*
X112801211Y-69703647D01*
X112952282Y-69803451D01*
X113114182Y-69881889D01*
X113284377Y-69938897D01*
X113460329Y-69974412D01*
X113639502Y-69988370D01*
X113819362Y-69980708D01*
X113997372Y-69951363D01*
X114170996Y-69900272D01*
X114337698Y-69827369D01*
X114476040Y-69745539D01*
X114517564Y-69714713D01*
X114568937Y-69672358D01*
X114622473Y-69624970D01*
X114655135Y-69594209D01*
X114763871Y-69476630D01*
X114855296Y-69350545D01*
X114931541Y-69212132D01*
X114994734Y-69057568D01*
X115043259Y-68897500D01*
X115048286Y-68895514D01*
X115062888Y-68893692D01*
X115087974Y-68892027D01*
X115124453Y-68890514D01*
X115173236Y-68889146D01*
X115235231Y-68887916D01*
X115311348Y-68886820D01*
X115402496Y-68885850D01*
X115509585Y-68885002D01*
X115633524Y-68884267D01*
X115775222Y-68883641D01*
X115935588Y-68883118D01*
X116115533Y-68882690D01*
X116315965Y-68882353D01*
X116537794Y-68882100D01*
X116781930Y-68881924D01*
X117049281Y-68881821D01*
X117340757Y-68881782D01*
X119710749Y-68881782D01*
X119719377Y-68960371D01*
X119742423Y-69118056D01*
X119777328Y-69287353D01*
X119821755Y-69459114D01*
X119873371Y-69624190D01*
X119922000Y-69754493D01*
X120036297Y-70002295D01*
X120170546Y-70235440D01*
X120323707Y-70453121D01*
X120494739Y-70654532D01*
X120682603Y-70838866D01*
X120886259Y-71005314D01*
X121104665Y-71153070D01*
X121336783Y-71281326D01*
X121581573Y-71389276D01*
X121837993Y-71476112D01*
X122105005Y-71541027D01*
X122257836Y-71567365D01*
X122354124Y-71578626D01*
X122467953Y-71587176D01*
X122591840Y-71592825D01*
X122718302Y-71595380D01*
X122839857Y-71594648D01*
X122839857Y-71594648D01*
G37*
X122839857Y-71594648D02*
X122949024Y-71590439D01*
X123002281Y-71586461D01*
X123270462Y-71549918D01*
X123533658Y-71490608D01*
X123789621Y-71409446D01*
X124036103Y-71307346D01*
X124270855Y-71185224D01*
X124491630Y-71043993D01*
X124667476Y-70908892D01*
X124866601Y-70726350D01*
X125047043Y-70527388D01*
X125208021Y-70313246D01*
X125348755Y-70085162D01*
X125468468Y-69844377D01*
X125566380Y-69592131D01*
X125629636Y-69378451D01*
X125683398Y-69123687D01*
X125716602Y-68861875D01*
X125729157Y-68597474D01*
X125720970Y-68334943D01*
X125691950Y-68078743D01*
X125659887Y-67908689D01*
X125588092Y-67639938D01*
X125494676Y-67382827D01*
X125380269Y-67138290D01*
X125245501Y-66907265D01*
X125091002Y-66690689D01*
X124917403Y-66489499D01*
X124725332Y-66304630D01*
X124515420Y-66137020D01*
X124426866Y-66075196D01*
X124195064Y-65934329D01*
X123953075Y-65816213D01*
X123700374Y-65720645D01*
X123436434Y-65647426D01*
X123180107Y-65599166D01*
X123115666Y-65591257D01*
X123036077Y-65583997D01*
X122946678Y-65577627D01*
X122852807Y-65572386D01*
X122759804Y-65568516D01*
X122673007Y-65566255D01*
X122597755Y-65565845D01*
X122539386Y-65567526D01*
X122517278Y-65569330D01*
X122486066Y-65572767D01*
X122437553Y-65577981D01*
X122379451Y-65584146D01*
X122341238Y-65588163D01*
X122092765Y-65626211D01*
X121843947Y-65687603D01*
X121598372Y-65770846D01*
X121359629Y-65874445D01*
X121131304Y-65996904D01*
X120916985Y-66136731D01*
X120788317Y-66235059D01*
X120706263Y-66305646D01*
X120616395Y-66389415D01*
X120525509Y-66479592D01*
X120440407Y-66569405D01*
X120367885Y-66652079D01*
X120359346Y-66662425D01*
X120212547Y-66860822D01*
X120081636Y-67076745D01*
X119967872Y-67307265D01*
X119872511Y-67549453D01*
X119796813Y-67800380D01*
X119742036Y-68057118D01*
X119731417Y-68124183D01*
X119708778Y-68278218D01*
X117378079Y-68278218D01*
X117083557Y-68278187D01*
X116813274Y-68278092D01*
X116566320Y-68277925D01*
X116341786Y-68277682D01*
X116138762Y-68277355D01*
X115956339Y-68276939D01*
X115793606Y-68276427D01*
X115649655Y-68275814D01*
X115523576Y-68275093D01*
X115414459Y-68274258D01*
X115321394Y-68273303D01*
X115243473Y-68272222D01*
X115179785Y-68271008D01*
X115129421Y-68269657D01*
X115091471Y-68268160D01*
X115065026Y-68266514D01*
X115049176Y-68264710D01*
X115043011Y-68262744D01*
X115042880Y-68262500D01*
X114992173Y-68103579D01*
X114936105Y-67965122D01*
X114872193Y-67842609D01*
X114797957Y-67731522D01*
X114710915Y-67627340D01*
X114671547Y-67586175D01*
X114536272Y-67466732D01*
X114388836Y-67367785D01*
X114231533Y-67289339D01*
X114066658Y-67231396D01*
X113896506Y-67193960D01*
X113723372Y-67177034D01*
X113549550Y-67180621D01*
X113377336Y-67204725D01*
X113209023Y-67249350D01*
X113046907Y-67314497D01*
X112893283Y-67400171D01*
X112750445Y-67506375D01*
X112667553Y-67583295D01*
X112545539Y-67721739D01*
X112446725Y-67867708D01*
X112369733Y-68023393D01*
X112338386Y-68107364D01*
X112289798Y-68288927D01*
X112264573Y-68471842D01*
X112263155Y-68575656D01*
X120367080Y-68575656D01*
X120377761Y-68332410D01*
X120410199Y-68100098D01*
X120464980Y-67876077D01*
X120542694Y-67657703D01*
X120599728Y-67530049D01*
X120713116Y-67322465D01*
X120845742Y-67130222D01*
X120996277Y-66954186D01*
X121163393Y-66795225D01*
X121345761Y-66654206D01*
X121542053Y-66531998D01*
X121750940Y-66429467D01*
X121971093Y-66347480D01*
X122201185Y-66286906D01*
X122439885Y-66248612D01*
X122580149Y-66237038D01*
X122625493Y-66234474D01*
X122665104Y-66232080D01*
X122680743Y-66231050D01*
X122704636Y-66231115D01*
X122747896Y-66232853D01*
X122804817Y-66235979D01*
X122869695Y-66240208D01*
X122884086Y-66241231D01*
X123130942Y-66270903D01*
X123367815Y-66323053D01*
X123593679Y-66396791D01*
X123807509Y-66491228D01*
X124008278Y-66605472D01*
X124194962Y-66738634D01*
X124366534Y-66889824D01*
X124521970Y-67058151D01*
X124660243Y-67242726D01*
X124780328Y-67442658D01*
X124881199Y-67657058D01*
X124961831Y-67885035D01*
X125013853Y-68089604D01*
X125029778Y-68183977D01*
X125042338Y-68296304D01*
X125051253Y-68419582D01*
X125056244Y-68546805D01*
X125057031Y-68670970D01*
X125053335Y-68785073D01*
X125045336Y-68878428D01*
X125003179Y-69124573D01*
X124938850Y-69359343D01*
X124852746Y-69582085D01*
X124745266Y-69792147D01*
X124616808Y-69988874D01*
X124467769Y-70171613D01*
X124298549Y-70339712D01*
X124109545Y-70492517D01*
X124026188Y-70550754D01*
X123833870Y-70664639D01*
X123628132Y-70758815D01*
X123411574Y-70832959D01*
X123186795Y-70886745D01*
X122956396Y-70919851D01*
X122722977Y-70931952D01*
X122489137Y-70922726D01*
X122257478Y-70891847D01*
X122030598Y-70838993D01*
X121938862Y-70810663D01*
X121715440Y-70723625D01*
X121505598Y-70616014D01*
X121310283Y-70489004D01*
X121130446Y-70343769D01*
X120967034Y-70181483D01*
X120820996Y-70003319D01*
X120693281Y-69810451D01*
X120584836Y-69604053D01*
X120496612Y-69385299D01*
X120429556Y-69155363D01*
X120384617Y-68915418D01*
X120380270Y-68882112D01*
X120375532Y-68830426D01*
X120371549Y-68761414D01*
X120368657Y-68682894D01*
X120367192Y-68602684D01*
X120367080Y-68575656D01*
X112263155Y-68575656D01*
X112262085Y-68653943D01*
X112281705Y-68833064D01*
X112322804Y-69007039D01*
X112384756Y-69173704D01*
X112466932Y-69330892D01*
X112568705Y-69476437D01*
X112689445Y-69608174D01*
X112801211Y-69703647D01*
X112952282Y-69803451D01*
X113114182Y-69881889D01*
X113284377Y-69938897D01*
X113460329Y-69974412D01*
X113639502Y-69988370D01*
X113819362Y-69980708D01*
X113997372Y-69951363D01*
X114170996Y-69900272D01*
X114337698Y-69827369D01*
X114476040Y-69745539D01*
X114517564Y-69714713D01*
X114568937Y-69672358D01*
X114622473Y-69624970D01*
X114655135Y-69594209D01*
X114763871Y-69476630D01*
X114855296Y-69350545D01*
X114931541Y-69212132D01*
X114994734Y-69057568D01*
X115043259Y-68897500D01*
X115048286Y-68895514D01*
X115062888Y-68893692D01*
X115087974Y-68892027D01*
X115124453Y-68890514D01*
X115173236Y-68889146D01*
X115235231Y-68887916D01*
X115311348Y-68886820D01*
X115402496Y-68885850D01*
X115509585Y-68885002D01*
X115633524Y-68884267D01*
X115775222Y-68883641D01*
X115935588Y-68883118D01*
X116115533Y-68882690D01*
X116315965Y-68882353D01*
X116537794Y-68882100D01*
X116781930Y-68881924D01*
X117049281Y-68881821D01*
X117340757Y-68881782D01*
X119710749Y-68881782D01*
X119719377Y-68960371D01*
X119742423Y-69118056D01*
X119777328Y-69287353D01*
X119821755Y-69459114D01*
X119873371Y-69624190D01*
X119922000Y-69754493D01*
X120036297Y-70002295D01*
X120170546Y-70235440D01*
X120323707Y-70453121D01*
X120494739Y-70654532D01*
X120682603Y-70838866D01*
X120886259Y-71005314D01*
X121104665Y-71153070D01*
X121336783Y-71281326D01*
X121581573Y-71389276D01*
X121837993Y-71476112D01*
X122105005Y-71541027D01*
X122257836Y-71567365D01*
X122354124Y-71578626D01*
X122467953Y-71587176D01*
X122591840Y-71592825D01*
X122718302Y-71595380D01*
X122839857Y-71594648D01*
G36*
X113949256Y-71581128D02*
X114212425Y-71545017D01*
X114472122Y-71485090D01*
X114677228Y-71419465D01*
X114933147Y-71313675D01*
X115177420Y-71185906D01*
X115408838Y-71037061D01*
X115626189Y-70868042D01*
X115828266Y-70679751D01*
X116013858Y-70473091D01*
X116108478Y-70351912D01*
X116141932Y-70306844D01*
X115881524Y-70125576D01*
X115809808Y-70076046D01*
X115744485Y-70031675D01*
X115688498Y-69994402D01*
X115644790Y-69966167D01*
X115616304Y-69948908D01*
X115606402Y-69944307D01*
X115591901Y-69953699D01*
X115568123Y-69978303D01*
X115540675Y-70012200D01*
X115397794Y-70182184D01*
X115235246Y-70339421D01*
X115056036Y-70482042D01*
X114863171Y-70608182D01*
X114659655Y-70715971D01*
X114448496Y-70803543D01*
X114232698Y-70869030D01*
X114122703Y-70893156D01*
X113882037Y-70926637D01*
X113641998Y-70935783D01*
X113404295Y-70921111D01*
X113170637Y-70883139D01*
X112942730Y-70822382D01*
X112722283Y-70739358D01*
X112511006Y-70634584D01*
X112310605Y-70508576D01*
X112122789Y-70361852D01*
X112005063Y-70252432D01*
X111839294Y-70070376D01*
X111695605Y-69876329D01*
X111573951Y-69670198D01*
X111474286Y-69451892D01*
X111396562Y-69221320D01*
X111340734Y-68978390D01*
X111330787Y-68919501D01*
X111319441Y-68822621D01*
X111312514Y-68709217D01*
X111310009Y-68587364D01*
X111311930Y-68465138D01*
X111318278Y-68350616D01*
X111329057Y-68251874D01*
X111330531Y-68242211D01*
X111380905Y-67999507D01*
X111453441Y-67766693D01*
X111547333Y-67545044D01*
X111661776Y-67335836D01*
X111795965Y-67140342D01*
X111949095Y-66959839D01*
X112120362Y-66795601D01*
X112308959Y-66648904D01*
X112357278Y-66616074D01*
X112567025Y-66491975D01*
X112785446Y-66390734D01*
X113010849Y-66312583D01*
X113241540Y-66257753D01*
X113475829Y-66226477D01*
X113712023Y-66218985D01*
X113948431Y-66235510D01*
X114183361Y-66276283D01*
X114399803Y-66336419D01*
X114627539Y-66424612D01*
X114843452Y-66534554D01*
X115046155Y-66665283D01*
X115234263Y-66815839D01*
X115406389Y-66985259D01*
X115509939Y-67106164D01*
X115603340Y-67222971D01*
X115662116Y-67180942D01*
X115691126Y-67160425D01*
X115736390Y-67128692D01*
X115793479Y-67088834D01*
X115857965Y-67043942D01*
X115925223Y-66997246D01*
X115987780Y-66953499D01*
X116042595Y-66914448D01*
X116086541Y-66882382D01*
X116116487Y-66859590D01*
X116129303Y-66848360D01*
X116129555Y-66847798D01*
X116121524Y-66830743D01*
X116099321Y-66798584D01*
X116065782Y-66754741D01*
X116023744Y-66702636D01*
X115976043Y-66645689D01*
X115925514Y-66587323D01*
X115874995Y-66530957D01*
X115827320Y-66480012D01*
X115809448Y-66461681D01*
X115605602Y-66272979D01*
X115389123Y-66105767D01*
X115160976Y-65960450D01*
X114922126Y-65837430D01*
X114673539Y-65737111D01*
X114416181Y-65659899D01*
X114151016Y-65606196D01*
X113879011Y-65576406D01*
X113677575Y-65569991D01*
X113421301Y-65578877D01*
X113178847Y-65606075D01*
X112945746Y-65652634D01*
X112717532Y-65719599D01*
X112489741Y-65808017D01*
X112316466Y-65889051D01*
X112077927Y-66022212D01*
X111853752Y-66175622D01*
X111645096Y-66348133D01*
X111453117Y-66538597D01*
X111278973Y-66745867D01*
X111123820Y-66968794D01*
X110988865Y-67206132D01*
X110875773Y-67453051D01*
X110786795Y-67703606D01*
X110720904Y-67960933D01*
X110694707Y-68102893D01*
X110666508Y-68278318D01*
X107623070Y-68271930D01*
X107613568Y-68183911D01*
X107580654Y-67970809D01*
X107528173Y-67750958D01*
X107458244Y-67530343D01*
X107372986Y-67314951D01*
X107274518Y-67110766D01*
X107170760Y-66932772D01*
X107073049Y-66791480D01*
X106961191Y-66648631D01*
X106840212Y-66509845D01*
X106715139Y-66380742D01*
X106590999Y-66266944D01*
X106531768Y-66218263D01*
X106306429Y-66056230D01*
X106071336Y-65917374D01*
X105826535Y-65801711D01*
X105572071Y-65709256D01*
X105307990Y-65640027D01*
X105034336Y-65594039D01*
X104751156Y-65571308D01*
X104693268Y-65569551D01*
X104616453Y-65568185D01*
X104544867Y-65567535D01*
X104483741Y-65567602D01*
X104438301Y-65568385D01*
X104416634Y-65569541D01*
X104246162Y-65588687D01*
X104094485Y-65610680D01*
X103955303Y-65636773D01*
X103822313Y-65668217D01*
X103689213Y-65706264D01*
X103624456Y-65726905D01*
X103373997Y-65822078D01*
X103135723Y-65938659D01*
X102910680Y-66075509D01*
X102699913Y-66231488D01*
X102504467Y-66405459D01*
X102325388Y-66596282D01*
X102163723Y-66802817D01*
X102020515Y-67023927D01*
X101896812Y-67258471D01*
X101793658Y-67505311D01*
X101712099Y-67763308D01*
X101695499Y-67828217D01*
X101669604Y-67939421D01*
X101649524Y-68039223D01*
X101634592Y-68133705D01*
X101624140Y-68228948D01*
X101617501Y-68331034D01*
X101614007Y-68446042D01*
X101612992Y-68580000D01*
X101613039Y-68586287D01*
X102272723Y-68586287D01*
X102284411Y-68336504D01*
X102319253Y-68094430D01*
X102376912Y-67861101D01*
X102457055Y-67637556D01*
X102559347Y-67424829D01*
X102683451Y-67223960D01*
X102736438Y-67150719D01*
X102888584Y-66969651D01*
X103057704Y-66806359D01*
X103242128Y-66661739D01*
X103440188Y-66536687D01*
X103650217Y-66432099D01*
X103870545Y-66348871D01*
X104099505Y-66287898D01*
X104335429Y-66250076D01*
X104429208Y-66241777D01*
X104488007Y-66237752D01*
X104539391Y-66234231D01*
X104577000Y-66231652D01*
X104592674Y-66230573D01*
X104614019Y-66230816D01*
X104655051Y-66232689D01*
X104710383Y-66235901D01*
X104774626Y-66240159D01*
X104793159Y-66241476D01*
X105037620Y-66270984D01*
X105272392Y-66322914D01*
X105496430Y-66396217D01*
X105708686Y-66489848D01*
X105908114Y-66602759D01*
X106093668Y-66733904D01*
X106264300Y-66882235D01*
X106418965Y-67046706D01*
X106556616Y-67226270D01*
X106676206Y-67419880D01*
X106776689Y-67626489D01*
X106857019Y-67845051D01*
X106916149Y-68074518D01*
X106953031Y-68313843D01*
X106961201Y-68410247D01*
X106965871Y-68659280D01*
X106947383Y-68902066D01*
X106906429Y-69137360D01*
X106843700Y-69363916D01*
X106759887Y-69580488D01*
X106655682Y-69785831D01*
X106531776Y-69978700D01*
X106388860Y-70157848D01*
X106227626Y-70322031D01*
X106048764Y-70470004D01*
X105852967Y-70600519D01*
X105698946Y-70684451D01*
X105480083Y-70779453D01*
X105252714Y-70851733D01*
X105019145Y-70901274D01*
X104781677Y-70928062D01*
X104542615Y-70932081D01*
X104304264Y-70913315D01*
X104068926Y-70871748D01*
X103838905Y-70807366D01*
X103616506Y-70720152D01*
X103570729Y-70698812D01*
X103361117Y-70584752D01*
X103167531Y-70451949D01*
X102990739Y-70301652D01*
X102831505Y-70135108D01*
X102690598Y-69953564D01*
X102568784Y-69758269D01*
X102466829Y-69550470D01*
X102385499Y-69331413D01*
X102325562Y-69102348D01*
X102287784Y-68864521D01*
X102272930Y-68619179D01*
X102272723Y-68586287D01*
X101613039Y-68586287D01*
X101614009Y-68713835D01*
X101617491Y-68828714D01*
X101624081Y-68930763D01*
X101634421Y-69026106D01*
X101649155Y-69120869D01*
X101668925Y-69221180D01*
X101690221Y-69315594D01*
X101764349Y-69577490D01*
X101860416Y-69828129D01*
X101977385Y-70066489D01*
X102114223Y-70291548D01*
X102269895Y-70502281D01*
X102443368Y-70697667D01*
X102633605Y-70876684D01*
X102839575Y-71038307D01*
X103060240Y-71181516D01*
X103294568Y-71305287D01*
X103541524Y-71408597D01*
X103800074Y-71490424D01*
X103919951Y-71519970D01*
X104023272Y-71542304D01*
X104114719Y-71559590D01*
X104200249Y-71572425D01*
X104285820Y-71581407D01*
X104377392Y-71587132D01*
X104480922Y-71590200D01*
X104602368Y-71591206D01*
X104630396Y-71591212D01*
X104765086Y-71589991D01*
X104880973Y-71586137D01*
X104984327Y-71578985D01*
X105081415Y-71567876D01*
X105178507Y-71552148D01*
X105281871Y-71531138D01*
X105352655Y-71514981D01*
X105598177Y-71445442D01*
X105839965Y-71354094D01*
X106073594Y-71243026D01*
X106294638Y-71114331D01*
X106486993Y-70979149D01*
X106578494Y-70904214D01*
X106676970Y-70815914D01*
X106775902Y-70720592D01*
X106868767Y-70624595D01*
X106949044Y-70534270D01*
X106968953Y-70510148D01*
X107120077Y-70304736D01*
X107254391Y-70084129D01*
X107370369Y-69851846D01*
X107466484Y-69611408D01*
X107541211Y-69366335D01*
X107593024Y-69120146D01*
X107604051Y-69045247D01*
X107611249Y-68992554D01*
X107617950Y-68946637D01*
X107622988Y-68915397D01*
X107624000Y-68910074D01*
X107629836Y-68881782D01*
X110672327Y-68881782D01*
X110672327Y-68911589D01*
X110674972Y-68944060D01*
X110682217Y-68995455D01*
X110693024Y-69060187D01*
X110706359Y-69132671D01*
X110721185Y-69207322D01*
X110736466Y-69278553D01*
X110751165Y-69340779D01*
X110753990Y-69351829D01*
X110831313Y-69600275D01*
X110931987Y-69842697D01*
X111054515Y-70076942D01*
X111197399Y-70300861D01*
X111359143Y-70512303D01*
X111538248Y-70709117D01*
X111733219Y-70889152D01*
X111930451Y-71041753D01*
X112157935Y-71187438D01*
X112396049Y-71311248D01*
X112643030Y-71412938D01*
X112897117Y-71492268D01*
X113156545Y-71548994D01*
X113419553Y-71582875D01*
X113684378Y-71593667D01*
X113949256Y-71581128D01*
X113949256Y-71581128D01*
G37*
X113949256Y-71581128D02*
X114212425Y-71545017D01*
X114472122Y-71485090D01*
X114677228Y-71419465D01*
X114933147Y-71313675D01*
X115177420Y-71185906D01*
X115408838Y-71037061D01*
X115626189Y-70868042D01*
X115828266Y-70679751D01*
X116013858Y-70473091D01*
X116108478Y-70351912D01*
X116141932Y-70306844D01*
X115881524Y-70125576D01*
X115809808Y-70076046D01*
X115744485Y-70031675D01*
X115688498Y-69994402D01*
X115644790Y-69966167D01*
X115616304Y-69948908D01*
X115606402Y-69944307D01*
X115591901Y-69953699D01*
X115568123Y-69978303D01*
X115540675Y-70012200D01*
X115397794Y-70182184D01*
X115235246Y-70339421D01*
X115056036Y-70482042D01*
X114863171Y-70608182D01*
X114659655Y-70715971D01*
X114448496Y-70803543D01*
X114232698Y-70869030D01*
X114122703Y-70893156D01*
X113882037Y-70926637D01*
X113641998Y-70935783D01*
X113404295Y-70921111D01*
X113170637Y-70883139D01*
X112942730Y-70822382D01*
X112722283Y-70739358D01*
X112511006Y-70634584D01*
X112310605Y-70508576D01*
X112122789Y-70361852D01*
X112005063Y-70252432D01*
X111839294Y-70070376D01*
X111695605Y-69876329D01*
X111573951Y-69670198D01*
X111474286Y-69451892D01*
X111396562Y-69221320D01*
X111340734Y-68978390D01*
X111330787Y-68919501D01*
X111319441Y-68822621D01*
X111312514Y-68709217D01*
X111310009Y-68587364D01*
X111311930Y-68465138D01*
X111318278Y-68350616D01*
X111329057Y-68251874D01*
X111330531Y-68242211D01*
X111380905Y-67999507D01*
X111453441Y-67766693D01*
X111547333Y-67545044D01*
X111661776Y-67335836D01*
X111795965Y-67140342D01*
X111949095Y-66959839D01*
X112120362Y-66795601D01*
X112308959Y-66648904D01*
X112357278Y-66616074D01*
X112567025Y-66491975D01*
X112785446Y-66390734D01*
X113010849Y-66312583D01*
X113241540Y-66257753D01*
X113475829Y-66226477D01*
X113712023Y-66218985D01*
X113948431Y-66235510D01*
X114183361Y-66276283D01*
X114399803Y-66336419D01*
X114627539Y-66424612D01*
X114843452Y-66534554D01*
X115046155Y-66665283D01*
X115234263Y-66815839D01*
X115406389Y-66985259D01*
X115509939Y-67106164D01*
X115603340Y-67222971D01*
X115662116Y-67180942D01*
X115691126Y-67160425D01*
X115736390Y-67128692D01*
X115793479Y-67088834D01*
X115857965Y-67043942D01*
X115925223Y-66997246D01*
X115987780Y-66953499D01*
X116042595Y-66914448D01*
X116086541Y-66882382D01*
X116116487Y-66859590D01*
X116129303Y-66848360D01*
X116129555Y-66847798D01*
X116121524Y-66830743D01*
X116099321Y-66798584D01*
X116065782Y-66754741D01*
X116023744Y-66702636D01*
X115976043Y-66645689D01*
X115925514Y-66587323D01*
X115874995Y-66530957D01*
X115827320Y-66480012D01*
X115809448Y-66461681D01*
X115605602Y-66272979D01*
X115389123Y-66105767D01*
X115160976Y-65960450D01*
X114922126Y-65837430D01*
X114673539Y-65737111D01*
X114416181Y-65659899D01*
X114151016Y-65606196D01*
X113879011Y-65576406D01*
X113677575Y-65569991D01*
X113421301Y-65578877D01*
X113178847Y-65606075D01*
X112945746Y-65652634D01*
X112717532Y-65719599D01*
X112489741Y-65808017D01*
X112316466Y-65889051D01*
X112077927Y-66022212D01*
X111853752Y-66175622D01*
X111645096Y-66348133D01*
X111453117Y-66538597D01*
X111278973Y-66745867D01*
X111123820Y-66968794D01*
X110988865Y-67206132D01*
X110875773Y-67453051D01*
X110786795Y-67703606D01*
X110720904Y-67960933D01*
X110694707Y-68102893D01*
X110666508Y-68278318D01*
X107623070Y-68271930D01*
X107613568Y-68183911D01*
X107580654Y-67970809D01*
X107528173Y-67750958D01*
X107458244Y-67530343D01*
X107372986Y-67314951D01*
X107274518Y-67110766D01*
X107170760Y-66932772D01*
X107073049Y-66791480D01*
X106961191Y-66648631D01*
X106840212Y-66509845D01*
X106715139Y-66380742D01*
X106590999Y-66266944D01*
X106531768Y-66218263D01*
X106306429Y-66056230D01*
X106071336Y-65917374D01*
X105826535Y-65801711D01*
X105572071Y-65709256D01*
X105307990Y-65640027D01*
X105034336Y-65594039D01*
X104751156Y-65571308D01*
X104693268Y-65569551D01*
X104616453Y-65568185D01*
X104544867Y-65567535D01*
X104483741Y-65567602D01*
X104438301Y-65568385D01*
X104416634Y-65569541D01*
X104246162Y-65588687D01*
X104094485Y-65610680D01*
X103955303Y-65636773D01*
X103822313Y-65668217D01*
X103689213Y-65706264D01*
X103624456Y-65726905D01*
X103373997Y-65822078D01*
X103135723Y-65938659D01*
X102910680Y-66075509D01*
X102699913Y-66231488D01*
X102504467Y-66405459D01*
X102325388Y-66596282D01*
X102163723Y-66802817D01*
X102020515Y-67023927D01*
X101896812Y-67258471D01*
X101793658Y-67505311D01*
X101712099Y-67763308D01*
X101695499Y-67828217D01*
X101669604Y-67939421D01*
X101649524Y-68039223D01*
X101634592Y-68133705D01*
X101624140Y-68228948D01*
X101617501Y-68331034D01*
X101614007Y-68446042D01*
X101612992Y-68580000D01*
X101613039Y-68586287D01*
X102272723Y-68586287D01*
X102284411Y-68336504D01*
X102319253Y-68094430D01*
X102376912Y-67861101D01*
X102457055Y-67637556D01*
X102559347Y-67424829D01*
X102683451Y-67223960D01*
X102736438Y-67150719D01*
X102888584Y-66969651D01*
X103057704Y-66806359D01*
X103242128Y-66661739D01*
X103440188Y-66536687D01*
X103650217Y-66432099D01*
X103870545Y-66348871D01*
X104099505Y-66287898D01*
X104335429Y-66250076D01*
X104429208Y-66241777D01*
X104488007Y-66237752D01*
X104539391Y-66234231D01*
X104577000Y-66231652D01*
X104592674Y-66230573D01*
X104614019Y-66230816D01*
X104655051Y-66232689D01*
X104710383Y-66235901D01*
X104774626Y-66240159D01*
X104793159Y-66241476D01*
X105037620Y-66270984D01*
X105272392Y-66322914D01*
X105496430Y-66396217D01*
X105708686Y-66489848D01*
X105908114Y-66602759D01*
X106093668Y-66733904D01*
X106264300Y-66882235D01*
X106418965Y-67046706D01*
X106556616Y-67226270D01*
X106676206Y-67419880D01*
X106776689Y-67626489D01*
X106857019Y-67845051D01*
X106916149Y-68074518D01*
X106953031Y-68313843D01*
X106961201Y-68410247D01*
X106965871Y-68659280D01*
X106947383Y-68902066D01*
X106906429Y-69137360D01*
X106843700Y-69363916D01*
X106759887Y-69580488D01*
X106655682Y-69785831D01*
X106531776Y-69978700D01*
X106388860Y-70157848D01*
X106227626Y-70322031D01*
X106048764Y-70470004D01*
X105852967Y-70600519D01*
X105698946Y-70684451D01*
X105480083Y-70779453D01*
X105252714Y-70851733D01*
X105019145Y-70901274D01*
X104781677Y-70928062D01*
X104542615Y-70932081D01*
X104304264Y-70913315D01*
X104068926Y-70871748D01*
X103838905Y-70807366D01*
X103616506Y-70720152D01*
X103570729Y-70698812D01*
X103361117Y-70584752D01*
X103167531Y-70451949D01*
X102990739Y-70301652D01*
X102831505Y-70135108D01*
X102690598Y-69953564D01*
X102568784Y-69758269D01*
X102466829Y-69550470D01*
X102385499Y-69331413D01*
X102325562Y-69102348D01*
X102287784Y-68864521D01*
X102272930Y-68619179D01*
X102272723Y-68586287D01*
X101613039Y-68586287D01*
X101614009Y-68713835D01*
X101617491Y-68828714D01*
X101624081Y-68930763D01*
X101634421Y-69026106D01*
X101649155Y-69120869D01*
X101668925Y-69221180D01*
X101690221Y-69315594D01*
X101764349Y-69577490D01*
X101860416Y-69828129D01*
X101977385Y-70066489D01*
X102114223Y-70291548D01*
X102269895Y-70502281D01*
X102443368Y-70697667D01*
X102633605Y-70876684D01*
X102839575Y-71038307D01*
X103060240Y-71181516D01*
X103294568Y-71305287D01*
X103541524Y-71408597D01*
X103800074Y-71490424D01*
X103919951Y-71519970D01*
X104023272Y-71542304D01*
X104114719Y-71559590D01*
X104200249Y-71572425D01*
X104285820Y-71581407D01*
X104377392Y-71587132D01*
X104480922Y-71590200D01*
X104602368Y-71591206D01*
X104630396Y-71591212D01*
X104765086Y-71589991D01*
X104880973Y-71586137D01*
X104984327Y-71578985D01*
X105081415Y-71567876D01*
X105178507Y-71552148D01*
X105281871Y-71531138D01*
X105352655Y-71514981D01*
X105598177Y-71445442D01*
X105839965Y-71354094D01*
X106073594Y-71243026D01*
X106294638Y-71114331D01*
X106486993Y-70979149D01*
X106578494Y-70904214D01*
X106676970Y-70815914D01*
X106775902Y-70720592D01*
X106868767Y-70624595D01*
X106949044Y-70534270D01*
X106968953Y-70510148D01*
X107120077Y-70304736D01*
X107254391Y-70084129D01*
X107370369Y-69851846D01*
X107466484Y-69611408D01*
X107541211Y-69366335D01*
X107593024Y-69120146D01*
X107604051Y-69045247D01*
X107611249Y-68992554D01*
X107617950Y-68946637D01*
X107622988Y-68915397D01*
X107624000Y-68910074D01*
X107629836Y-68881782D01*
X110672327Y-68881782D01*
X110672327Y-68911589D01*
X110674972Y-68944060D01*
X110682217Y-68995455D01*
X110693024Y-69060187D01*
X110706359Y-69132671D01*
X110721185Y-69207322D01*
X110736466Y-69278553D01*
X110751165Y-69340779D01*
X110753990Y-69351829D01*
X110831313Y-69600275D01*
X110931987Y-69842697D01*
X111054515Y-70076942D01*
X111197399Y-70300861D01*
X111359143Y-70512303D01*
X111538248Y-70709117D01*
X111733219Y-70889152D01*
X111930451Y-71041753D01*
X112157935Y-71187438D01*
X112396049Y-71311248D01*
X112643030Y-71412938D01*
X112897117Y-71492268D01*
X113156545Y-71548994D01*
X113419553Y-71582875D01*
X113684378Y-71593667D01*
X113949256Y-71581128D01*
G04 #@! TD*
M02*
