M48
;DRILL file {KiCad 5.0.2-bee76a0~70~ubuntu18.04.1} date 2018-12-05T13:48:38 CET
;FORMAT={-:-/ absolute / inch / decimal}
FMAT,2
INCH,TZ
T1C0.0079
T2C0.0087
T3C0.0118
T4C0.0157
T5C0.0197
T6C0.0236
T7C0.0315
T8C0.0362
T9C0.0394
T10C0.0906
%
G90
G05
T1
X5.5551Y-3.7146
X5.5551Y-3.7697
X5.5551Y-3.8248
X5.5551Y-3.8799
X5.6102Y-3.7146
X5.6102Y-3.7697
X5.6102Y-3.8248
X5.6102Y-3.8799
X5.6654Y-3.7146
X5.6654Y-3.7697
X5.6654Y-3.8248
X5.6654Y-3.8799
X5.7205Y-3.7146
X5.7205Y-3.7697
X5.7205Y-3.8248
X5.7205Y-3.8799
T2
X5.6137Y-4.7022
X5.6137Y-4.7369
X5.6137Y-4.7715
X5.6137Y-4.8061
X5.6137Y-4.8408
X5.6484Y-4.7022
X5.6484Y-4.7369
X5.6484Y-4.7715
X5.6484Y-4.8061
X5.6484Y-4.8408
X5.683Y-4.7022
X5.683Y-4.7369
X5.683Y-4.7715
X5.683Y-4.8061
X5.683Y-4.8408
X5.7176Y-4.7022
X5.7176Y-4.7369
X5.7176Y-4.7715
X5.7176Y-4.8061
X5.7176Y-4.8408
X5.7523Y-4.7022
X5.7523Y-4.7369
X5.7523Y-4.7715
X5.7523Y-4.8061
X5.7523Y-4.8408
T3
X5.011Y-3.7875
X5.045Y-3.7255
X5.2515Y-3.823
X5.2536Y-4.97
X5.2735Y-4.149
X5.284Y-4.9115
X5.2941Y-3.8204
X5.3074Y-4.8904
X5.331Y-4.8695
X5.351Y-3.965
X5.365Y-3.79
X5.393Y-3.981
X5.4615Y-4.6915
X5.4983Y-4.7123
X5.514Y-3.4265
X5.52Y-4.7587
X5.526Y-4.0153
X5.5335Y-3.2085
X5.5365Y-4.502
X5.5475Y-3.5132
X5.549Y-3.4445
X5.5495Y-4.574
X5.5527Y-3.5919
X5.56Y-3.56
X5.6285Y-4.093
X5.63Y-3.4125
X5.6785Y-3.4675
X5.681Y-4.2005
X5.725Y-3.5
X5.743Y-5.4035
X5.7526Y-3.4592
X5.7562Y-3.5042
X5.768Y-4.206
X5.775Y-5.0065
X5.792Y-4.493
X5.7995Y-4.3688
X5.7995Y-4.4022
X5.8019Y-4.0046
X5.8195Y-5.406
X5.825Y-3.57
X5.8375Y-3.2275
X5.8495Y-4.8355
X5.8515Y-4.244
X5.8525Y-4.929
X5.8602Y-3.7631
X5.861Y-3.9675
X5.8775Y-4.783
X5.8961Y-3.463
X5.8972Y-4.3537
X5.905Y-4.52
X5.9208Y-4.3773
X5.959Y-4.602
X5.9735Y-5.3975
X5.991Y-4.8975
X6.0065Y-4.8565
X6.0194Y-4.9438
X6.0228Y-3.8937
X6.024Y-4.653
X6.025Y-4.385
X6.027Y-3.6466
X6.035Y-4.345
X6.0495Y-4.8457
X6.05Y-2.645
X6.0555Y-4.6715
X6.056Y-3.22
X6.0575Y-3.5658
X6.059Y-3.8
X6.0624Y-2.8614
X6.0646Y-4.8168
X6.065Y-4.145
X6.0698Y-4.943
X6.0778Y-4.99
X6.0832Y-3.7412
X6.3076Y-5.281
X6.7476Y-4.4526
X6.754Y-2.604
X6.754Y-2.7315
X6.805Y-4.5
X6.817Y-4.695
X6.881Y-5.5435
X6.9055Y-2.9065
T4
X4.9755Y-4.12
X5.0305Y-4.767
X5.295Y-3.4875
X5.67Y-4.587
X5.7465Y-2.0512
X5.7465Y-2.0866
X5.7465Y-2.122
X5.7465Y-2.1575
X5.7465Y-2.1929
X5.7465Y-2.2283
X5.7465Y-2.261
X5.7465Y-2.2953
X5.7465Y-2.3307
X5.7465Y-2.3661
X5.7465Y-2.4016
X5.748Y-2.437
X5.9135Y-4.64
X5.963Y-4.2585
X5.9875Y-2.854
X5.997Y-4.216
X6.039Y-2.961
X6.067Y-2.82
X6.345Y-4.82
X6.345Y-4.8525
X6.3775Y-4.82
X6.3775Y-4.8525
X6.38Y-2.86
X6.38Y-2.8925
X6.4125Y-2.86
X6.4125Y-2.8925
T8
X6.9075Y-4.457
X7.0059Y-4.457
X7.0846Y-4.457
X7.1831Y-4.457
X6.9075Y-2.5079
X7.0059Y-2.5079
X7.0846Y-2.5079
X7.1831Y-2.5079
X6.9075Y-3.4783
X7.0059Y-3.4783
X7.0846Y-3.4783
X7.1831Y-3.4783
X6.9075Y-5.4685
X7.0059Y-5.4685
X7.0846Y-5.4685
X7.1831Y-5.4685
T9
X4.15Y-5.7305
X4.25Y-5.7305
X4.35Y-5.7305
X4.45Y-5.7305
X5.66Y-5.7305
X5.76Y-5.7305
X5.86Y-5.7305
X5.96Y-5.7305
X4.7125Y-5.7305
X4.8125Y-5.7305
X4.9125Y-5.7305
X5.0125Y-5.7305
X6.175Y-5.7305
X6.275Y-5.7305
X6.375Y-5.7305
X6.475Y-5.7305
T10
X6.7913Y-5.374
X7.2992Y-5.374
X6.7913Y-4.3625
X7.2992Y-4.3625
X6.7913Y-2.4134
X7.2992Y-2.4134
X6.7913Y-3.3839
X7.2992Y-3.3839
T5
X5.1694Y-5.6074G85X5.1694Y-5.6547
G05
X5.5096Y-5.6074G85X5.5096Y-5.6547
G05
T6
X5.1694Y-5.7838G85X5.1694Y-5.8074
G05
X5.5096Y-5.7838G85X5.5096Y-5.8074
G05
T7
X4.2373Y-2.1577G85X4.2373Y-2.2443
G05
X4.3121Y-2.39G85X4.3987Y-2.39
G05
X4.4735Y-2.1498G85X4.4735Y-2.2522
G05
T0
M30
