G04 #@! TF.GenerationSoftware,KiCad,Pcbnew,5.0.2-bee76a0~70~ubuntu18.04.1*
G04 #@! TF.CreationDate,2018-12-05T13:48:36+01:00*
G04 #@! TF.ProjectId,usbhub,75736268-7562-42e6-9b69-6361645f7063,rev?*
G04 #@! TF.SameCoordinates,Original*
G04 #@! TF.FileFunction,Soldermask,Bot*
G04 #@! TF.FilePolarity,Negative*
%FSLAX46Y46*%
G04 Gerber Fmt 4.6, Leading zero omitted, Abs format (unit mm)*
G04 Created by KiCad (PCBNEW 5.0.2-bee76a0~70~ubuntu18.04.1) date 2018-12-05T13:48:36 CET*
%MOMM*%
%LPD*%
G01*
G04 APERTURE LIST*
%ADD10C,0.100000*%
G04 APERTURE END LIST*
D10*
G36*
X140051314Y-146365773D02*
X140155178Y-146397279D01*
X140250900Y-146448444D01*
X140334801Y-146517299D01*
X140403656Y-146601200D01*
X140454821Y-146696921D01*
X140486327Y-146800785D01*
X140494300Y-146881733D01*
X140494300Y-147535867D01*
X140486327Y-147616815D01*
X140454821Y-147720679D01*
X140403656Y-147816400D01*
X140334801Y-147900301D01*
X140250900Y-147969156D01*
X140155179Y-148020321D01*
X140051315Y-148051827D01*
X139943300Y-148062466D01*
X139835286Y-148051827D01*
X139731422Y-148020321D01*
X139635701Y-147969156D01*
X139551800Y-147900301D01*
X139482945Y-147816400D01*
X139431780Y-147720679D01*
X139400273Y-147616815D01*
X139392300Y-147535867D01*
X139392300Y-146881734D01*
X139400273Y-146800786D01*
X139431779Y-146696922D01*
X139482944Y-146601200D01*
X139551799Y-146517299D01*
X139635700Y-146448444D01*
X139731421Y-146397279D01*
X139835285Y-146365773D01*
X139943300Y-146355134D01*
X140051314Y-146365773D01*
X140051314Y-146365773D01*
G37*
G36*
X131411314Y-146365773D02*
X131515178Y-146397279D01*
X131610900Y-146448444D01*
X131694801Y-146517299D01*
X131763656Y-146601200D01*
X131814821Y-146696921D01*
X131846327Y-146800785D01*
X131854300Y-146881733D01*
X131854300Y-147535867D01*
X131846327Y-147616815D01*
X131814821Y-147720679D01*
X131763656Y-147816400D01*
X131694801Y-147900301D01*
X131610900Y-147969156D01*
X131515179Y-148020321D01*
X131411315Y-148051827D01*
X131303300Y-148062466D01*
X131195286Y-148051827D01*
X131091422Y-148020321D01*
X130995701Y-147969156D01*
X130911800Y-147900301D01*
X130842945Y-147816400D01*
X130791780Y-147720679D01*
X130760273Y-147616815D01*
X130752300Y-147535867D01*
X130752300Y-146881734D01*
X130760273Y-146800786D01*
X130791779Y-146696922D01*
X130842944Y-146601200D01*
X130911799Y-146517299D01*
X130995700Y-146448444D01*
X131091421Y-146397279D01*
X131195285Y-146365773D01*
X131303300Y-146355134D01*
X131411314Y-146365773D01*
X131411314Y-146365773D01*
G37*
G36*
X146414442Y-144660218D02*
X146480627Y-144666737D01*
X146593853Y-144701084D01*
X146650467Y-144718257D01*
X146789087Y-144792352D01*
X146806991Y-144801922D01*
X146842729Y-144831252D01*
X146944186Y-144914514D01*
X147027448Y-145015971D01*
X147056778Y-145051709D01*
X147056779Y-145051711D01*
X147140443Y-145208233D01*
X147140443Y-145208234D01*
X147191963Y-145378073D01*
X147209359Y-145554700D01*
X147191963Y-145731327D01*
X147157616Y-145844553D01*
X147140443Y-145901167D01*
X147066348Y-146039787D01*
X147056778Y-146057691D01*
X147027448Y-146093429D01*
X146944186Y-146194886D01*
X146842729Y-146278148D01*
X146806991Y-146307478D01*
X146806989Y-146307479D01*
X146650467Y-146391143D01*
X146593853Y-146408316D01*
X146480627Y-146442663D01*
X146421920Y-146448445D01*
X146348260Y-146455700D01*
X146259740Y-146455700D01*
X146186080Y-146448445D01*
X146127373Y-146442663D01*
X146014147Y-146408316D01*
X145957533Y-146391143D01*
X145801011Y-146307479D01*
X145801009Y-146307478D01*
X145765271Y-146278148D01*
X145663814Y-146194886D01*
X145580552Y-146093429D01*
X145551222Y-146057691D01*
X145541652Y-146039787D01*
X145467557Y-145901167D01*
X145450384Y-145844553D01*
X145416037Y-145731327D01*
X145398641Y-145554700D01*
X145416037Y-145378073D01*
X145467557Y-145208234D01*
X145467557Y-145208233D01*
X145551221Y-145051711D01*
X145551222Y-145051709D01*
X145580552Y-145015971D01*
X145663814Y-144914514D01*
X145765271Y-144831252D01*
X145801009Y-144801922D01*
X145818913Y-144792352D01*
X145957533Y-144718257D01*
X146014147Y-144701084D01*
X146127373Y-144666737D01*
X146193558Y-144660218D01*
X146259740Y-144653700D01*
X146348260Y-144653700D01*
X146414442Y-144660218D01*
X146414442Y-144660218D01*
G37*
G36*
X120598500Y-146455700D02*
X118796500Y-146455700D01*
X118796500Y-144653700D01*
X120598500Y-144653700D01*
X120598500Y-146455700D01*
X120598500Y-146455700D01*
G37*
G36*
X122347942Y-144660218D02*
X122414127Y-144666737D01*
X122527353Y-144701084D01*
X122583967Y-144718257D01*
X122722587Y-144792352D01*
X122740491Y-144801922D01*
X122776229Y-144831252D01*
X122877686Y-144914514D01*
X122960948Y-145015971D01*
X122990278Y-145051709D01*
X122990279Y-145051711D01*
X123073943Y-145208233D01*
X123073943Y-145208234D01*
X123125463Y-145378073D01*
X123142859Y-145554700D01*
X123125463Y-145731327D01*
X123091116Y-145844553D01*
X123073943Y-145901167D01*
X122999848Y-146039787D01*
X122990278Y-146057691D01*
X122960948Y-146093429D01*
X122877686Y-146194886D01*
X122776229Y-146278148D01*
X122740491Y-146307478D01*
X122740489Y-146307479D01*
X122583967Y-146391143D01*
X122527353Y-146408316D01*
X122414127Y-146442663D01*
X122355420Y-146448445D01*
X122281760Y-146455700D01*
X122193240Y-146455700D01*
X122119580Y-146448445D01*
X122060873Y-146442663D01*
X121947647Y-146408316D01*
X121891033Y-146391143D01*
X121734511Y-146307479D01*
X121734509Y-146307478D01*
X121698771Y-146278148D01*
X121597314Y-146194886D01*
X121514052Y-146093429D01*
X121484722Y-146057691D01*
X121475152Y-146039787D01*
X121401057Y-145901167D01*
X121383884Y-145844553D01*
X121349537Y-145731327D01*
X121332141Y-145554700D01*
X121349537Y-145378073D01*
X121401057Y-145208234D01*
X121401057Y-145208233D01*
X121484721Y-145051711D01*
X121484722Y-145051709D01*
X121514052Y-145015971D01*
X121597314Y-144914514D01*
X121698771Y-144831252D01*
X121734509Y-144801922D01*
X121752413Y-144792352D01*
X121891033Y-144718257D01*
X121947647Y-144701084D01*
X122060873Y-144666737D01*
X122127058Y-144660218D01*
X122193240Y-144653700D01*
X122281760Y-144653700D01*
X122347942Y-144660218D01*
X122347942Y-144660218D01*
G37*
G36*
X124887942Y-144660218D02*
X124954127Y-144666737D01*
X125067353Y-144701084D01*
X125123967Y-144718257D01*
X125262587Y-144792352D01*
X125280491Y-144801922D01*
X125316229Y-144831252D01*
X125417686Y-144914514D01*
X125500948Y-145015971D01*
X125530278Y-145051709D01*
X125530279Y-145051711D01*
X125613943Y-145208233D01*
X125613943Y-145208234D01*
X125665463Y-145378073D01*
X125682859Y-145554700D01*
X125665463Y-145731327D01*
X125631116Y-145844553D01*
X125613943Y-145901167D01*
X125539848Y-146039787D01*
X125530278Y-146057691D01*
X125500948Y-146093429D01*
X125417686Y-146194886D01*
X125316229Y-146278148D01*
X125280491Y-146307478D01*
X125280489Y-146307479D01*
X125123967Y-146391143D01*
X125067353Y-146408316D01*
X124954127Y-146442663D01*
X124895420Y-146448445D01*
X124821760Y-146455700D01*
X124733240Y-146455700D01*
X124659580Y-146448445D01*
X124600873Y-146442663D01*
X124487647Y-146408316D01*
X124431033Y-146391143D01*
X124274511Y-146307479D01*
X124274509Y-146307478D01*
X124238771Y-146278148D01*
X124137314Y-146194886D01*
X124054052Y-146093429D01*
X124024722Y-146057691D01*
X124015152Y-146039787D01*
X123941057Y-145901167D01*
X123923884Y-145844553D01*
X123889537Y-145731327D01*
X123872141Y-145554700D01*
X123889537Y-145378073D01*
X123941057Y-145208234D01*
X123941057Y-145208233D01*
X124024721Y-145051711D01*
X124024722Y-145051709D01*
X124054052Y-145015971D01*
X124137314Y-144914514D01*
X124238771Y-144831252D01*
X124274509Y-144801922D01*
X124292413Y-144792352D01*
X124431033Y-144718257D01*
X124487647Y-144701084D01*
X124600873Y-144666737D01*
X124667058Y-144660218D01*
X124733240Y-144653700D01*
X124821760Y-144653700D01*
X124887942Y-144660218D01*
X124887942Y-144660218D01*
G37*
G36*
X127427942Y-144660218D02*
X127494127Y-144666737D01*
X127607353Y-144701084D01*
X127663967Y-144718257D01*
X127802587Y-144792352D01*
X127820491Y-144801922D01*
X127856229Y-144831252D01*
X127957686Y-144914514D01*
X128040948Y-145015971D01*
X128070278Y-145051709D01*
X128070279Y-145051711D01*
X128153943Y-145208233D01*
X128153943Y-145208234D01*
X128205463Y-145378073D01*
X128222859Y-145554700D01*
X128205463Y-145731327D01*
X128171116Y-145844553D01*
X128153943Y-145901167D01*
X128079848Y-146039787D01*
X128070278Y-146057691D01*
X128040948Y-146093429D01*
X127957686Y-146194886D01*
X127856229Y-146278148D01*
X127820491Y-146307478D01*
X127820489Y-146307479D01*
X127663967Y-146391143D01*
X127607353Y-146408316D01*
X127494127Y-146442663D01*
X127435420Y-146448445D01*
X127361760Y-146455700D01*
X127273240Y-146455700D01*
X127199580Y-146448445D01*
X127140873Y-146442663D01*
X127027647Y-146408316D01*
X126971033Y-146391143D01*
X126814511Y-146307479D01*
X126814509Y-146307478D01*
X126778771Y-146278148D01*
X126677314Y-146194886D01*
X126594052Y-146093429D01*
X126564722Y-146057691D01*
X126555152Y-146039787D01*
X126481057Y-145901167D01*
X126463884Y-145844553D01*
X126429537Y-145731327D01*
X126412141Y-145554700D01*
X126429537Y-145378073D01*
X126481057Y-145208234D01*
X126481057Y-145208233D01*
X126564721Y-145051711D01*
X126564722Y-145051709D01*
X126594052Y-145015971D01*
X126677314Y-144914514D01*
X126778771Y-144831252D01*
X126814509Y-144801922D01*
X126832413Y-144792352D01*
X126971033Y-144718257D01*
X127027647Y-144701084D01*
X127140873Y-144666737D01*
X127207058Y-144660218D01*
X127273240Y-144653700D01*
X127361760Y-144653700D01*
X127427942Y-144660218D01*
X127427942Y-144660218D01*
G37*
G36*
X106311000Y-146455700D02*
X104509000Y-146455700D01*
X104509000Y-144653700D01*
X106311000Y-144653700D01*
X106311000Y-146455700D01*
X106311000Y-146455700D01*
G37*
G36*
X108060442Y-144660218D02*
X108126627Y-144666737D01*
X108239853Y-144701084D01*
X108296467Y-144718257D01*
X108435087Y-144792352D01*
X108452991Y-144801922D01*
X108488729Y-144831252D01*
X108590186Y-144914514D01*
X108673448Y-145015971D01*
X108702778Y-145051709D01*
X108702779Y-145051711D01*
X108786443Y-145208233D01*
X108786443Y-145208234D01*
X108837963Y-145378073D01*
X108855359Y-145554700D01*
X108837963Y-145731327D01*
X108803616Y-145844553D01*
X108786443Y-145901167D01*
X108712348Y-146039787D01*
X108702778Y-146057691D01*
X108673448Y-146093429D01*
X108590186Y-146194886D01*
X108488729Y-146278148D01*
X108452991Y-146307478D01*
X108452989Y-146307479D01*
X108296467Y-146391143D01*
X108239853Y-146408316D01*
X108126627Y-146442663D01*
X108067920Y-146448445D01*
X107994260Y-146455700D01*
X107905740Y-146455700D01*
X107832080Y-146448445D01*
X107773373Y-146442663D01*
X107660147Y-146408316D01*
X107603533Y-146391143D01*
X107447011Y-146307479D01*
X107447009Y-146307478D01*
X107411271Y-146278148D01*
X107309814Y-146194886D01*
X107226552Y-146093429D01*
X107197222Y-146057691D01*
X107187652Y-146039787D01*
X107113557Y-145901167D01*
X107096384Y-145844553D01*
X107062037Y-145731327D01*
X107044641Y-145554700D01*
X107062037Y-145378073D01*
X107113557Y-145208234D01*
X107113557Y-145208233D01*
X107197221Y-145051711D01*
X107197222Y-145051709D01*
X107226552Y-145015971D01*
X107309814Y-144914514D01*
X107411271Y-144831252D01*
X107447009Y-144801922D01*
X107464913Y-144792352D01*
X107603533Y-144718257D01*
X107660147Y-144701084D01*
X107773373Y-144666737D01*
X107839558Y-144660218D01*
X107905740Y-144653700D01*
X107994260Y-144653700D01*
X108060442Y-144660218D01*
X108060442Y-144660218D01*
G37*
G36*
X110600442Y-144660218D02*
X110666627Y-144666737D01*
X110779853Y-144701084D01*
X110836467Y-144718257D01*
X110975087Y-144792352D01*
X110992991Y-144801922D01*
X111028729Y-144831252D01*
X111130186Y-144914514D01*
X111213448Y-145015971D01*
X111242778Y-145051709D01*
X111242779Y-145051711D01*
X111326443Y-145208233D01*
X111326443Y-145208234D01*
X111377963Y-145378073D01*
X111395359Y-145554700D01*
X111377963Y-145731327D01*
X111343616Y-145844553D01*
X111326443Y-145901167D01*
X111252348Y-146039787D01*
X111242778Y-146057691D01*
X111213448Y-146093429D01*
X111130186Y-146194886D01*
X111028729Y-146278148D01*
X110992991Y-146307478D01*
X110992989Y-146307479D01*
X110836467Y-146391143D01*
X110779853Y-146408316D01*
X110666627Y-146442663D01*
X110607920Y-146448445D01*
X110534260Y-146455700D01*
X110445740Y-146455700D01*
X110372080Y-146448445D01*
X110313373Y-146442663D01*
X110200147Y-146408316D01*
X110143533Y-146391143D01*
X109987011Y-146307479D01*
X109987009Y-146307478D01*
X109951271Y-146278148D01*
X109849814Y-146194886D01*
X109766552Y-146093429D01*
X109737222Y-146057691D01*
X109727652Y-146039787D01*
X109653557Y-145901167D01*
X109636384Y-145844553D01*
X109602037Y-145731327D01*
X109584641Y-145554700D01*
X109602037Y-145378073D01*
X109653557Y-145208234D01*
X109653557Y-145208233D01*
X109737221Y-145051711D01*
X109737222Y-145051709D01*
X109766552Y-145015971D01*
X109849814Y-144914514D01*
X109951271Y-144831252D01*
X109987009Y-144801922D01*
X110004913Y-144792352D01*
X110143533Y-144718257D01*
X110200147Y-144701084D01*
X110313373Y-144666737D01*
X110379558Y-144660218D01*
X110445740Y-144653700D01*
X110534260Y-144653700D01*
X110600442Y-144660218D01*
X110600442Y-144660218D01*
G37*
G36*
X113140442Y-144660218D02*
X113206627Y-144666737D01*
X113319853Y-144701084D01*
X113376467Y-144718257D01*
X113515087Y-144792352D01*
X113532991Y-144801922D01*
X113568729Y-144831252D01*
X113670186Y-144914514D01*
X113753448Y-145015971D01*
X113782778Y-145051709D01*
X113782779Y-145051711D01*
X113866443Y-145208233D01*
X113866443Y-145208234D01*
X113917963Y-145378073D01*
X113935359Y-145554700D01*
X113917963Y-145731327D01*
X113883616Y-145844553D01*
X113866443Y-145901167D01*
X113792348Y-146039787D01*
X113782778Y-146057691D01*
X113753448Y-146093429D01*
X113670186Y-146194886D01*
X113568729Y-146278148D01*
X113532991Y-146307478D01*
X113532989Y-146307479D01*
X113376467Y-146391143D01*
X113319853Y-146408316D01*
X113206627Y-146442663D01*
X113147920Y-146448445D01*
X113074260Y-146455700D01*
X112985740Y-146455700D01*
X112912080Y-146448445D01*
X112853373Y-146442663D01*
X112740147Y-146408316D01*
X112683533Y-146391143D01*
X112527011Y-146307479D01*
X112527009Y-146307478D01*
X112491271Y-146278148D01*
X112389814Y-146194886D01*
X112306552Y-146093429D01*
X112277222Y-146057691D01*
X112267652Y-146039787D01*
X112193557Y-145901167D01*
X112176384Y-145844553D01*
X112142037Y-145731327D01*
X112124641Y-145554700D01*
X112142037Y-145378073D01*
X112193557Y-145208234D01*
X112193557Y-145208233D01*
X112277221Y-145051711D01*
X112277222Y-145051709D01*
X112306552Y-145015971D01*
X112389814Y-144914514D01*
X112491271Y-144831252D01*
X112527009Y-144801922D01*
X112544913Y-144792352D01*
X112683533Y-144718257D01*
X112740147Y-144701084D01*
X112853373Y-144666737D01*
X112919558Y-144660218D01*
X112985740Y-144653700D01*
X113074260Y-144653700D01*
X113140442Y-144660218D01*
X113140442Y-144660218D01*
G37*
G36*
X156955442Y-144660218D02*
X157021627Y-144666737D01*
X157134853Y-144701084D01*
X157191467Y-144718257D01*
X157330087Y-144792352D01*
X157347991Y-144801922D01*
X157383729Y-144831252D01*
X157485186Y-144914514D01*
X157568448Y-145015971D01*
X157597778Y-145051709D01*
X157597779Y-145051711D01*
X157681443Y-145208233D01*
X157681443Y-145208234D01*
X157732963Y-145378073D01*
X157750359Y-145554700D01*
X157732963Y-145731327D01*
X157698616Y-145844553D01*
X157681443Y-145901167D01*
X157607348Y-146039787D01*
X157597778Y-146057691D01*
X157568448Y-146093429D01*
X157485186Y-146194886D01*
X157383729Y-146278148D01*
X157347991Y-146307478D01*
X157347989Y-146307479D01*
X157191467Y-146391143D01*
X157134853Y-146408316D01*
X157021627Y-146442663D01*
X156962920Y-146448445D01*
X156889260Y-146455700D01*
X156800740Y-146455700D01*
X156727080Y-146448445D01*
X156668373Y-146442663D01*
X156555147Y-146408316D01*
X156498533Y-146391143D01*
X156342011Y-146307479D01*
X156342009Y-146307478D01*
X156306271Y-146278148D01*
X156204814Y-146194886D01*
X156121552Y-146093429D01*
X156092222Y-146057691D01*
X156082652Y-146039787D01*
X156008557Y-145901167D01*
X155991384Y-145844553D01*
X155957037Y-145731327D01*
X155939641Y-145554700D01*
X155957037Y-145378073D01*
X156008557Y-145208234D01*
X156008557Y-145208233D01*
X156092221Y-145051711D01*
X156092222Y-145051709D01*
X156121552Y-145015971D01*
X156204814Y-144914514D01*
X156306271Y-144831252D01*
X156342009Y-144801922D01*
X156359913Y-144792352D01*
X156498533Y-144718257D01*
X156555147Y-144701084D01*
X156668373Y-144666737D01*
X156734558Y-144660218D01*
X156800740Y-144653700D01*
X156889260Y-144653700D01*
X156955442Y-144660218D01*
X156955442Y-144660218D01*
G37*
G36*
X159495442Y-144660218D02*
X159561627Y-144666737D01*
X159674853Y-144701084D01*
X159731467Y-144718257D01*
X159870087Y-144792352D01*
X159887991Y-144801922D01*
X159923729Y-144831252D01*
X160025186Y-144914514D01*
X160108448Y-145015971D01*
X160137778Y-145051709D01*
X160137779Y-145051711D01*
X160221443Y-145208233D01*
X160221443Y-145208234D01*
X160272963Y-145378073D01*
X160290359Y-145554700D01*
X160272963Y-145731327D01*
X160238616Y-145844553D01*
X160221443Y-145901167D01*
X160147348Y-146039787D01*
X160137778Y-146057691D01*
X160108448Y-146093429D01*
X160025186Y-146194886D01*
X159923729Y-146278148D01*
X159887991Y-146307478D01*
X159887989Y-146307479D01*
X159731467Y-146391143D01*
X159674853Y-146408316D01*
X159561627Y-146442663D01*
X159502920Y-146448445D01*
X159429260Y-146455700D01*
X159340740Y-146455700D01*
X159267080Y-146448445D01*
X159208373Y-146442663D01*
X159095147Y-146408316D01*
X159038533Y-146391143D01*
X158882011Y-146307479D01*
X158882009Y-146307478D01*
X158846271Y-146278148D01*
X158744814Y-146194886D01*
X158661552Y-146093429D01*
X158632222Y-146057691D01*
X158622652Y-146039787D01*
X158548557Y-145901167D01*
X158531384Y-145844553D01*
X158497037Y-145731327D01*
X158479641Y-145554700D01*
X158497037Y-145378073D01*
X158548557Y-145208234D01*
X158548557Y-145208233D01*
X158632221Y-145051711D01*
X158632222Y-145051709D01*
X158661552Y-145015971D01*
X158744814Y-144914514D01*
X158846271Y-144831252D01*
X158882009Y-144801922D01*
X158899913Y-144792352D01*
X159038533Y-144718257D01*
X159095147Y-144701084D01*
X159208373Y-144666737D01*
X159274558Y-144660218D01*
X159340740Y-144653700D01*
X159429260Y-144653700D01*
X159495442Y-144660218D01*
X159495442Y-144660218D01*
G37*
G36*
X165366000Y-146455700D02*
X163564000Y-146455700D01*
X163564000Y-144653700D01*
X165366000Y-144653700D01*
X165366000Y-146455700D01*
X165366000Y-146455700D01*
G37*
G36*
X152285000Y-146455700D02*
X150483000Y-146455700D01*
X150483000Y-144653700D01*
X152285000Y-144653700D01*
X152285000Y-146455700D01*
X152285000Y-146455700D01*
G37*
G36*
X148954442Y-144660218D02*
X149020627Y-144666737D01*
X149133853Y-144701084D01*
X149190467Y-144718257D01*
X149329087Y-144792352D01*
X149346991Y-144801922D01*
X149382729Y-144831252D01*
X149484186Y-144914514D01*
X149567448Y-145015971D01*
X149596778Y-145051709D01*
X149596779Y-145051711D01*
X149680443Y-145208233D01*
X149680443Y-145208234D01*
X149731963Y-145378073D01*
X149749359Y-145554700D01*
X149731963Y-145731327D01*
X149697616Y-145844553D01*
X149680443Y-145901167D01*
X149606348Y-146039787D01*
X149596778Y-146057691D01*
X149567448Y-146093429D01*
X149484186Y-146194886D01*
X149382729Y-146278148D01*
X149346991Y-146307478D01*
X149346989Y-146307479D01*
X149190467Y-146391143D01*
X149133853Y-146408316D01*
X149020627Y-146442663D01*
X148961920Y-146448445D01*
X148888260Y-146455700D01*
X148799740Y-146455700D01*
X148726080Y-146448445D01*
X148667373Y-146442663D01*
X148554147Y-146408316D01*
X148497533Y-146391143D01*
X148341011Y-146307479D01*
X148341009Y-146307478D01*
X148305271Y-146278148D01*
X148203814Y-146194886D01*
X148120552Y-146093429D01*
X148091222Y-146057691D01*
X148081652Y-146039787D01*
X148007557Y-145901167D01*
X147990384Y-145844553D01*
X147956037Y-145731327D01*
X147938641Y-145554700D01*
X147956037Y-145378073D01*
X148007557Y-145208234D01*
X148007557Y-145208233D01*
X148091221Y-145051711D01*
X148091222Y-145051709D01*
X148120552Y-145015971D01*
X148203814Y-144914514D01*
X148305271Y-144831252D01*
X148341009Y-144801922D01*
X148358913Y-144792352D01*
X148497533Y-144718257D01*
X148554147Y-144701084D01*
X148667373Y-144666737D01*
X148733558Y-144660218D01*
X148799740Y-144653700D01*
X148888260Y-144653700D01*
X148954442Y-144660218D01*
X148954442Y-144660218D01*
G37*
G36*
X162035442Y-144660218D02*
X162101627Y-144666737D01*
X162214853Y-144701084D01*
X162271467Y-144718257D01*
X162410087Y-144792352D01*
X162427991Y-144801922D01*
X162463729Y-144831252D01*
X162565186Y-144914514D01*
X162648448Y-145015971D01*
X162677778Y-145051709D01*
X162677779Y-145051711D01*
X162761443Y-145208233D01*
X162761443Y-145208234D01*
X162812963Y-145378073D01*
X162830359Y-145554700D01*
X162812963Y-145731327D01*
X162778616Y-145844553D01*
X162761443Y-145901167D01*
X162687348Y-146039787D01*
X162677778Y-146057691D01*
X162648448Y-146093429D01*
X162565186Y-146194886D01*
X162463729Y-146278148D01*
X162427991Y-146307478D01*
X162427989Y-146307479D01*
X162271467Y-146391143D01*
X162214853Y-146408316D01*
X162101627Y-146442663D01*
X162042920Y-146448445D01*
X161969260Y-146455700D01*
X161880740Y-146455700D01*
X161807080Y-146448445D01*
X161748373Y-146442663D01*
X161635147Y-146408316D01*
X161578533Y-146391143D01*
X161422011Y-146307479D01*
X161422009Y-146307478D01*
X161386271Y-146278148D01*
X161284814Y-146194886D01*
X161201552Y-146093429D01*
X161172222Y-146057691D01*
X161162652Y-146039787D01*
X161088557Y-145901167D01*
X161071384Y-145844553D01*
X161037037Y-145731327D01*
X161019641Y-145554700D01*
X161037037Y-145378073D01*
X161088557Y-145208234D01*
X161088557Y-145208233D01*
X161172221Y-145051711D01*
X161172222Y-145051709D01*
X161201552Y-145015971D01*
X161284814Y-144914514D01*
X161386271Y-144831252D01*
X161422009Y-144801922D01*
X161439913Y-144792352D01*
X161578533Y-144718257D01*
X161635147Y-144701084D01*
X161748373Y-144666737D01*
X161814558Y-144660218D01*
X161880740Y-144653700D01*
X161969260Y-144653700D01*
X162035442Y-144660218D01*
X162035442Y-144660218D01*
G37*
G36*
X143874442Y-144660218D02*
X143940627Y-144666737D01*
X144053853Y-144701084D01*
X144110467Y-144718257D01*
X144249087Y-144792352D01*
X144266991Y-144801922D01*
X144302729Y-144831252D01*
X144404186Y-144914514D01*
X144487448Y-145015971D01*
X144516778Y-145051709D01*
X144516779Y-145051711D01*
X144600443Y-145208233D01*
X144600443Y-145208234D01*
X144651963Y-145378073D01*
X144669359Y-145554700D01*
X144651963Y-145731327D01*
X144617616Y-145844553D01*
X144600443Y-145901167D01*
X144526348Y-146039787D01*
X144516778Y-146057691D01*
X144487448Y-146093429D01*
X144404186Y-146194886D01*
X144302729Y-146278148D01*
X144266991Y-146307478D01*
X144266989Y-146307479D01*
X144110467Y-146391143D01*
X144053853Y-146408316D01*
X143940627Y-146442663D01*
X143881920Y-146448445D01*
X143808260Y-146455700D01*
X143719740Y-146455700D01*
X143646080Y-146448445D01*
X143587373Y-146442663D01*
X143474147Y-146408316D01*
X143417533Y-146391143D01*
X143261011Y-146307479D01*
X143261009Y-146307478D01*
X143225271Y-146278148D01*
X143123814Y-146194886D01*
X143040552Y-146093429D01*
X143011222Y-146057691D01*
X143001652Y-146039787D01*
X142927557Y-145901167D01*
X142910384Y-145844553D01*
X142876037Y-145731327D01*
X142858641Y-145554700D01*
X142876037Y-145378073D01*
X142927557Y-145208234D01*
X142927557Y-145208233D01*
X143011221Y-145051711D01*
X143011222Y-145051709D01*
X143040552Y-145015971D01*
X143123814Y-144914514D01*
X143225271Y-144831252D01*
X143261009Y-144801922D01*
X143278913Y-144792352D01*
X143417533Y-144718257D01*
X143474147Y-144701084D01*
X143587373Y-144666737D01*
X143653558Y-144660218D01*
X143719740Y-144653700D01*
X143808260Y-144653700D01*
X143874442Y-144660218D01*
X143874442Y-144660218D01*
G37*
G36*
X131401512Y-141935049D02*
X131495951Y-141963697D01*
X131582987Y-142010218D01*
X131659275Y-142072825D01*
X131721882Y-142149113D01*
X131768403Y-142236148D01*
X131797051Y-142330587D01*
X131804300Y-142404188D01*
X131804300Y-143653412D01*
X131797051Y-143727013D01*
X131768403Y-143821452D01*
X131721882Y-143908487D01*
X131659275Y-143984775D01*
X131582987Y-144047382D01*
X131495952Y-144093903D01*
X131401513Y-144122551D01*
X131303300Y-144132224D01*
X131205088Y-144122551D01*
X131110649Y-144093903D01*
X131023614Y-144047382D01*
X130947326Y-143984775D01*
X130884719Y-143908487D01*
X130838198Y-143821452D01*
X130809550Y-143727013D01*
X130802301Y-143653412D01*
X130802300Y-142404189D01*
X130809549Y-142330588D01*
X130838197Y-142236149D01*
X130884718Y-142149113D01*
X130947325Y-142072825D01*
X131023613Y-142010218D01*
X131110648Y-141963697D01*
X131205087Y-141935049D01*
X131303300Y-141925376D01*
X131401512Y-141935049D01*
X131401512Y-141935049D01*
G37*
G36*
X140041512Y-141935049D02*
X140135951Y-141963697D01*
X140222987Y-142010218D01*
X140299275Y-142072825D01*
X140361882Y-142149113D01*
X140408403Y-142236148D01*
X140437051Y-142330587D01*
X140444300Y-142404188D01*
X140444300Y-143653412D01*
X140437051Y-143727013D01*
X140408403Y-143821452D01*
X140361882Y-143908487D01*
X140299275Y-143984775D01*
X140222987Y-144047382D01*
X140135952Y-144093903D01*
X140041513Y-144122551D01*
X139943300Y-144132224D01*
X139845088Y-144122551D01*
X139750649Y-144093903D01*
X139663614Y-144047382D01*
X139587326Y-143984775D01*
X139524719Y-143908487D01*
X139478198Y-143821452D01*
X139449550Y-143727013D01*
X139442301Y-143653412D01*
X139442300Y-142404189D01*
X139449549Y-142330588D01*
X139478197Y-142236149D01*
X139524718Y-142149113D01*
X139587325Y-142072825D01*
X139663613Y-142010218D01*
X139750648Y-141963697D01*
X139845087Y-141935049D01*
X139943300Y-141925376D01*
X140041512Y-141935049D01*
X140041512Y-141935049D01*
G37*
G36*
X132842972Y-143167249D02*
X132842974Y-143167250D01*
X132842975Y-143167250D01*
X132911403Y-143195593D01*
X132972709Y-143236557D01*
X132972989Y-143236744D01*
X133025356Y-143289111D01*
X133025358Y-143289114D01*
X133066507Y-143350697D01*
X133094850Y-143419125D01*
X133109300Y-143491767D01*
X133109300Y-143565833D01*
X133094850Y-143638475D01*
X133066507Y-143706903D01*
X133025543Y-143768209D01*
X133025356Y-143768489D01*
X132972989Y-143820856D01*
X132972986Y-143820858D01*
X132911403Y-143862007D01*
X132842975Y-143890350D01*
X132842974Y-143890350D01*
X132842972Y-143890351D01*
X132770334Y-143904800D01*
X132696266Y-143904800D01*
X132623628Y-143890351D01*
X132623626Y-143890350D01*
X132623625Y-143890350D01*
X132555197Y-143862007D01*
X132493614Y-143820858D01*
X132493611Y-143820856D01*
X132441244Y-143768489D01*
X132441057Y-143768209D01*
X132400093Y-143706903D01*
X132371750Y-143638475D01*
X132357300Y-143565833D01*
X132357300Y-143491767D01*
X132371750Y-143419125D01*
X132400093Y-143350697D01*
X132441242Y-143289114D01*
X132441244Y-143289111D01*
X132493611Y-143236744D01*
X132493891Y-143236557D01*
X132555197Y-143195593D01*
X132623625Y-143167250D01*
X132623626Y-143167250D01*
X132623628Y-143167249D01*
X132696266Y-143152800D01*
X132770334Y-143152800D01*
X132842972Y-143167249D01*
X132842972Y-143167249D01*
G37*
G36*
X138622972Y-143167249D02*
X138622974Y-143167250D01*
X138622975Y-143167250D01*
X138691403Y-143195593D01*
X138752709Y-143236557D01*
X138752989Y-143236744D01*
X138805356Y-143289111D01*
X138805358Y-143289114D01*
X138846507Y-143350697D01*
X138874850Y-143419125D01*
X138889300Y-143491767D01*
X138889300Y-143565833D01*
X138874850Y-143638475D01*
X138846507Y-143706903D01*
X138805543Y-143768209D01*
X138805356Y-143768489D01*
X138752989Y-143820856D01*
X138752986Y-143820858D01*
X138691403Y-143862007D01*
X138622975Y-143890350D01*
X138622974Y-143890350D01*
X138622972Y-143890351D01*
X138550334Y-143904800D01*
X138476266Y-143904800D01*
X138403628Y-143890351D01*
X138403626Y-143890350D01*
X138403625Y-143890350D01*
X138335197Y-143862007D01*
X138273614Y-143820858D01*
X138273611Y-143820856D01*
X138221244Y-143768489D01*
X138221057Y-143768209D01*
X138180093Y-143706903D01*
X138151750Y-143638475D01*
X138137300Y-143565833D01*
X138137300Y-143491767D01*
X138151750Y-143419125D01*
X138180093Y-143350697D01*
X138221242Y-143289114D01*
X138221244Y-143289111D01*
X138273611Y-143236744D01*
X138273891Y-143236557D01*
X138335197Y-143195593D01*
X138403625Y-143167250D01*
X138403626Y-143167250D01*
X138403628Y-143167249D01*
X138476266Y-143152800D01*
X138550334Y-143152800D01*
X138622972Y-143167249D01*
X138622972Y-143167249D01*
G37*
G36*
X182582004Y-138160544D02*
X182669059Y-138177860D01*
X182805732Y-138234472D01*
X182805733Y-138234473D01*
X182928738Y-138316662D01*
X183033338Y-138421262D01*
X183033340Y-138421265D01*
X183115528Y-138544268D01*
X183172140Y-138680941D01*
X183201000Y-138826033D01*
X183201000Y-138973967D01*
X183172140Y-139119059D01*
X183115528Y-139255732D01*
X183115527Y-139255733D01*
X183033338Y-139378738D01*
X182928738Y-139483338D01*
X182928735Y-139483340D01*
X182805732Y-139565528D01*
X182669059Y-139622140D01*
X182582004Y-139639456D01*
X182523969Y-139651000D01*
X182376031Y-139651000D01*
X182317996Y-139639456D01*
X182230941Y-139622140D01*
X182094268Y-139565528D01*
X181971265Y-139483340D01*
X181971262Y-139483338D01*
X181866662Y-139378738D01*
X181784473Y-139255733D01*
X181784472Y-139255732D01*
X181727860Y-139119059D01*
X181699000Y-138973967D01*
X181699000Y-138826033D01*
X181727860Y-138680941D01*
X181784472Y-138544268D01*
X181866660Y-138421265D01*
X181866662Y-138421262D01*
X181971262Y-138316662D01*
X182094267Y-138234473D01*
X182094268Y-138234472D01*
X182230941Y-138177860D01*
X182317996Y-138160544D01*
X182376031Y-138149000D01*
X182523969Y-138149000D01*
X182582004Y-138160544D01*
X182582004Y-138160544D01*
G37*
G36*
X178082004Y-138160544D02*
X178169059Y-138177860D01*
X178305732Y-138234472D01*
X178305733Y-138234473D01*
X178428738Y-138316662D01*
X178533338Y-138421262D01*
X178533340Y-138421265D01*
X178615528Y-138544268D01*
X178672140Y-138680941D01*
X178701000Y-138826033D01*
X178701000Y-138973967D01*
X178672140Y-139119059D01*
X178615528Y-139255732D01*
X178615527Y-139255733D01*
X178533338Y-139378738D01*
X178428738Y-139483338D01*
X178428735Y-139483340D01*
X178305732Y-139565528D01*
X178169059Y-139622140D01*
X178082004Y-139639456D01*
X178023969Y-139651000D01*
X177876031Y-139651000D01*
X177817996Y-139639456D01*
X177730941Y-139622140D01*
X177594268Y-139565528D01*
X177471265Y-139483340D01*
X177471262Y-139483338D01*
X177366662Y-139378738D01*
X177284473Y-139255733D01*
X177284472Y-139255732D01*
X177227860Y-139119059D01*
X177199000Y-138973967D01*
X177199000Y-138826033D01*
X177227860Y-138680941D01*
X177284472Y-138544268D01*
X177366660Y-138421265D01*
X177366662Y-138421262D01*
X177471262Y-138316662D01*
X177594267Y-138234473D01*
X177594268Y-138234472D01*
X177730941Y-138177860D01*
X177817996Y-138160544D01*
X177876031Y-138149000D01*
X178023969Y-138149000D01*
X178082004Y-138160544D01*
X178082004Y-138160544D01*
G37*
G36*
X175582004Y-138160544D02*
X175669059Y-138177860D01*
X175805732Y-138234472D01*
X175805733Y-138234473D01*
X175928738Y-138316662D01*
X176033338Y-138421262D01*
X176033340Y-138421265D01*
X176115528Y-138544268D01*
X176172140Y-138680941D01*
X176201000Y-138826033D01*
X176201000Y-138973967D01*
X176172140Y-139119059D01*
X176115528Y-139255732D01*
X176115527Y-139255733D01*
X176033338Y-139378738D01*
X175928738Y-139483338D01*
X175928735Y-139483340D01*
X175805732Y-139565528D01*
X175669059Y-139622140D01*
X175582004Y-139639456D01*
X175523969Y-139651000D01*
X175376031Y-139651000D01*
X175317996Y-139639456D01*
X175230941Y-139622140D01*
X175094268Y-139565528D01*
X174971265Y-139483340D01*
X174971262Y-139483338D01*
X174866662Y-139378738D01*
X174784473Y-139255733D01*
X174784472Y-139255732D01*
X174727860Y-139119059D01*
X174699000Y-138973967D01*
X174699000Y-138826033D01*
X174727860Y-138680941D01*
X174784472Y-138544268D01*
X174866660Y-138421265D01*
X174866662Y-138421262D01*
X174971262Y-138316662D01*
X175094267Y-138234473D01*
X175094268Y-138234472D01*
X175230941Y-138177860D01*
X175317996Y-138160544D01*
X175376031Y-138149000D01*
X175523969Y-138149000D01*
X175582004Y-138160544D01*
X175582004Y-138160544D01*
G37*
G36*
X180082004Y-138160544D02*
X180169059Y-138177860D01*
X180305732Y-138234472D01*
X180305733Y-138234473D01*
X180428738Y-138316662D01*
X180533338Y-138421262D01*
X180533340Y-138421265D01*
X180615528Y-138544268D01*
X180672140Y-138680941D01*
X180701000Y-138826033D01*
X180701000Y-138973967D01*
X180672140Y-139119059D01*
X180615528Y-139255732D01*
X180615527Y-139255733D01*
X180533338Y-139378738D01*
X180428738Y-139483338D01*
X180428735Y-139483340D01*
X180305732Y-139565528D01*
X180169059Y-139622140D01*
X180082004Y-139639456D01*
X180023969Y-139651000D01*
X179876031Y-139651000D01*
X179817996Y-139639456D01*
X179730941Y-139622140D01*
X179594268Y-139565528D01*
X179471265Y-139483340D01*
X179471262Y-139483338D01*
X179366662Y-139378738D01*
X179284473Y-139255733D01*
X179284472Y-139255732D01*
X179227860Y-139119059D01*
X179199000Y-138973967D01*
X179199000Y-138826033D01*
X179227860Y-138680941D01*
X179284472Y-138544268D01*
X179366660Y-138421265D01*
X179366662Y-138421262D01*
X179471262Y-138316662D01*
X179594267Y-138234473D01*
X179594268Y-138234472D01*
X179730941Y-138177860D01*
X179817996Y-138160544D01*
X179876031Y-138149000D01*
X180023969Y-138149000D01*
X180082004Y-138160544D01*
X180082004Y-138160544D01*
G37*
G36*
X172852527Y-134988736D02*
X172952410Y-135008604D01*
X173234674Y-135125521D01*
X173488705Y-135295259D01*
X173704741Y-135511295D01*
X173874479Y-135765326D01*
X173991396Y-136047590D01*
X174051000Y-136347240D01*
X174051000Y-136652760D01*
X173991396Y-136952410D01*
X173874479Y-137234674D01*
X173704741Y-137488705D01*
X173488705Y-137704741D01*
X173234674Y-137874479D01*
X172952410Y-137991396D01*
X172852527Y-138011264D01*
X172652762Y-138051000D01*
X172347238Y-138051000D01*
X172147473Y-138011264D01*
X172047590Y-137991396D01*
X171765326Y-137874479D01*
X171511295Y-137704741D01*
X171295259Y-137488705D01*
X171125521Y-137234674D01*
X171008604Y-136952410D01*
X170949000Y-136652760D01*
X170949000Y-136347240D01*
X171008604Y-136047590D01*
X171125521Y-135765326D01*
X171295259Y-135511295D01*
X171511295Y-135295259D01*
X171765326Y-135125521D01*
X172047590Y-135008604D01*
X172147473Y-134988736D01*
X172347238Y-134949000D01*
X172652762Y-134949000D01*
X172852527Y-134988736D01*
X172852527Y-134988736D01*
G37*
G36*
X185752527Y-134988736D02*
X185852410Y-135008604D01*
X186134674Y-135125521D01*
X186388705Y-135295259D01*
X186604741Y-135511295D01*
X186774479Y-135765326D01*
X186891396Y-136047590D01*
X186951000Y-136347240D01*
X186951000Y-136652760D01*
X186891396Y-136952410D01*
X186774479Y-137234674D01*
X186604741Y-137488705D01*
X186388705Y-137704741D01*
X186134674Y-137874479D01*
X185852410Y-137991396D01*
X185752527Y-138011264D01*
X185552762Y-138051000D01*
X185247238Y-138051000D01*
X185047473Y-138011264D01*
X184947590Y-137991396D01*
X184665326Y-137874479D01*
X184411295Y-137704741D01*
X184195259Y-137488705D01*
X184025521Y-137234674D01*
X183908604Y-136952410D01*
X183849000Y-136652760D01*
X183849000Y-136347240D01*
X183908604Y-136047590D01*
X184025521Y-135765326D01*
X184195259Y-135511295D01*
X184411295Y-135295259D01*
X184665326Y-135125521D01*
X184947590Y-135008604D01*
X185047473Y-134988736D01*
X185247238Y-134949000D01*
X185552762Y-134949000D01*
X185752527Y-134988736D01*
X185752527Y-134988736D01*
G37*
G36*
X182582004Y-112467244D02*
X182669059Y-112484560D01*
X182805732Y-112541172D01*
X182805733Y-112541173D01*
X182928738Y-112623362D01*
X183033338Y-112727962D01*
X183033340Y-112727965D01*
X183115528Y-112850968D01*
X183172140Y-112987641D01*
X183201000Y-113132733D01*
X183201000Y-113280667D01*
X183172140Y-113425759D01*
X183115528Y-113562432D01*
X183115527Y-113562433D01*
X183033338Y-113685438D01*
X182928738Y-113790038D01*
X182928735Y-113790040D01*
X182805732Y-113872228D01*
X182669059Y-113928840D01*
X182582004Y-113946156D01*
X182523969Y-113957700D01*
X182376031Y-113957700D01*
X182317996Y-113946156D01*
X182230941Y-113928840D01*
X182094268Y-113872228D01*
X181971265Y-113790040D01*
X181971262Y-113790038D01*
X181866662Y-113685438D01*
X181784473Y-113562433D01*
X181784472Y-113562432D01*
X181727860Y-113425759D01*
X181699000Y-113280667D01*
X181699000Y-113132733D01*
X181727860Y-112987641D01*
X181784472Y-112850968D01*
X181866660Y-112727965D01*
X181866662Y-112727962D01*
X181971262Y-112623362D01*
X182094267Y-112541173D01*
X182094268Y-112541172D01*
X182230941Y-112484560D01*
X182317996Y-112467244D01*
X182376031Y-112455700D01*
X182523969Y-112455700D01*
X182582004Y-112467244D01*
X182582004Y-112467244D01*
G37*
G36*
X180082004Y-112467244D02*
X180169059Y-112484560D01*
X180305732Y-112541172D01*
X180305733Y-112541173D01*
X180428738Y-112623362D01*
X180533338Y-112727962D01*
X180533340Y-112727965D01*
X180615528Y-112850968D01*
X180672140Y-112987641D01*
X180701000Y-113132733D01*
X180701000Y-113280667D01*
X180672140Y-113425759D01*
X180615528Y-113562432D01*
X180615527Y-113562433D01*
X180533338Y-113685438D01*
X180428738Y-113790038D01*
X180428735Y-113790040D01*
X180305732Y-113872228D01*
X180169059Y-113928840D01*
X180082004Y-113946156D01*
X180023969Y-113957700D01*
X179876031Y-113957700D01*
X179817996Y-113946156D01*
X179730941Y-113928840D01*
X179594268Y-113872228D01*
X179471265Y-113790040D01*
X179471262Y-113790038D01*
X179366662Y-113685438D01*
X179284473Y-113562433D01*
X179284472Y-113562432D01*
X179227860Y-113425759D01*
X179199000Y-113280667D01*
X179199000Y-113132733D01*
X179227860Y-112987641D01*
X179284472Y-112850968D01*
X179366660Y-112727965D01*
X179366662Y-112727962D01*
X179471262Y-112623362D01*
X179594267Y-112541173D01*
X179594268Y-112541172D01*
X179730941Y-112484560D01*
X179817996Y-112467244D01*
X179876031Y-112455700D01*
X180023969Y-112455700D01*
X180082004Y-112467244D01*
X180082004Y-112467244D01*
G37*
G36*
X178082004Y-112467244D02*
X178169059Y-112484560D01*
X178305732Y-112541172D01*
X178305733Y-112541173D01*
X178428738Y-112623362D01*
X178533338Y-112727962D01*
X178533340Y-112727965D01*
X178615528Y-112850968D01*
X178672140Y-112987641D01*
X178701000Y-113132733D01*
X178701000Y-113280667D01*
X178672140Y-113425759D01*
X178615528Y-113562432D01*
X178615527Y-113562433D01*
X178533338Y-113685438D01*
X178428738Y-113790038D01*
X178428735Y-113790040D01*
X178305732Y-113872228D01*
X178169059Y-113928840D01*
X178082004Y-113946156D01*
X178023969Y-113957700D01*
X177876031Y-113957700D01*
X177817996Y-113946156D01*
X177730941Y-113928840D01*
X177594268Y-113872228D01*
X177471265Y-113790040D01*
X177471262Y-113790038D01*
X177366662Y-113685438D01*
X177284473Y-113562433D01*
X177284472Y-113562432D01*
X177227860Y-113425759D01*
X177199000Y-113280667D01*
X177199000Y-113132733D01*
X177227860Y-112987641D01*
X177284472Y-112850968D01*
X177366660Y-112727965D01*
X177366662Y-112727962D01*
X177471262Y-112623362D01*
X177594267Y-112541173D01*
X177594268Y-112541172D01*
X177730941Y-112484560D01*
X177817996Y-112467244D01*
X177876031Y-112455700D01*
X178023969Y-112455700D01*
X178082004Y-112467244D01*
X178082004Y-112467244D01*
G37*
G36*
X175582004Y-112467244D02*
X175669059Y-112484560D01*
X175805732Y-112541172D01*
X175805733Y-112541173D01*
X175928738Y-112623362D01*
X176033338Y-112727962D01*
X176033340Y-112727965D01*
X176115528Y-112850968D01*
X176172140Y-112987641D01*
X176201000Y-113132733D01*
X176201000Y-113280667D01*
X176172140Y-113425759D01*
X176115528Y-113562432D01*
X176115527Y-113562433D01*
X176033338Y-113685438D01*
X175928738Y-113790038D01*
X175928735Y-113790040D01*
X175805732Y-113872228D01*
X175669059Y-113928840D01*
X175582004Y-113946156D01*
X175523969Y-113957700D01*
X175376031Y-113957700D01*
X175317996Y-113946156D01*
X175230941Y-113928840D01*
X175094268Y-113872228D01*
X174971265Y-113790040D01*
X174971262Y-113790038D01*
X174866662Y-113685438D01*
X174784473Y-113562433D01*
X174784472Y-113562432D01*
X174727860Y-113425759D01*
X174699000Y-113280667D01*
X174699000Y-113132733D01*
X174727860Y-112987641D01*
X174784472Y-112850968D01*
X174866660Y-112727965D01*
X174866662Y-112727962D01*
X174971262Y-112623362D01*
X175094267Y-112541173D01*
X175094268Y-112541172D01*
X175230941Y-112484560D01*
X175317996Y-112467244D01*
X175376031Y-112455700D01*
X175523969Y-112455700D01*
X175582004Y-112467244D01*
X175582004Y-112467244D01*
G37*
G36*
X185752527Y-109295436D02*
X185852410Y-109315304D01*
X186134674Y-109432221D01*
X186388705Y-109601959D01*
X186604741Y-109817995D01*
X186774479Y-110072026D01*
X186891396Y-110354290D01*
X186951000Y-110653940D01*
X186951000Y-110959460D01*
X186891396Y-111259110D01*
X186774479Y-111541374D01*
X186604741Y-111795405D01*
X186388705Y-112011441D01*
X186134674Y-112181179D01*
X185852410Y-112298096D01*
X185752527Y-112317964D01*
X185552762Y-112357700D01*
X185247238Y-112357700D01*
X185047473Y-112317964D01*
X184947590Y-112298096D01*
X184665326Y-112181179D01*
X184411295Y-112011441D01*
X184195259Y-111795405D01*
X184025521Y-111541374D01*
X183908604Y-111259110D01*
X183849000Y-110959460D01*
X183849000Y-110653940D01*
X183908604Y-110354290D01*
X184025521Y-110072026D01*
X184195259Y-109817995D01*
X184411295Y-109601959D01*
X184665326Y-109432221D01*
X184947590Y-109315304D01*
X185047473Y-109295436D01*
X185247238Y-109255700D01*
X185552762Y-109255700D01*
X185752527Y-109295436D01*
X185752527Y-109295436D01*
G37*
G36*
X172852527Y-109295436D02*
X172952410Y-109315304D01*
X173234674Y-109432221D01*
X173488705Y-109601959D01*
X173704741Y-109817995D01*
X173874479Y-110072026D01*
X173991396Y-110354290D01*
X174051000Y-110653940D01*
X174051000Y-110959460D01*
X173991396Y-111259110D01*
X173874479Y-111541374D01*
X173704741Y-111795405D01*
X173488705Y-112011441D01*
X173234674Y-112181179D01*
X172952410Y-112298096D01*
X172852527Y-112317964D01*
X172652762Y-112357700D01*
X172347238Y-112357700D01*
X172147473Y-112317964D01*
X172047590Y-112298096D01*
X171765326Y-112181179D01*
X171511295Y-112011441D01*
X171295259Y-111795405D01*
X171125521Y-111541374D01*
X171008604Y-111259110D01*
X170949000Y-110959460D01*
X170949000Y-110653940D01*
X171008604Y-110354290D01*
X171125521Y-110072026D01*
X171295259Y-109817995D01*
X171511295Y-109601959D01*
X171765326Y-109432221D01*
X172047590Y-109315304D01*
X172147473Y-109295436D01*
X172347238Y-109255700D01*
X172652762Y-109255700D01*
X172852527Y-109295436D01*
X172852527Y-109295436D01*
G37*
G36*
X182582004Y-87610544D02*
X182669059Y-87627860D01*
X182805732Y-87684472D01*
X182805733Y-87684473D01*
X182928738Y-87766662D01*
X183033338Y-87871262D01*
X183033340Y-87871265D01*
X183115528Y-87994268D01*
X183172140Y-88130941D01*
X183201000Y-88276033D01*
X183201000Y-88423967D01*
X183172140Y-88569059D01*
X183115528Y-88705732D01*
X183115527Y-88705733D01*
X183033338Y-88828738D01*
X182928738Y-88933338D01*
X182928735Y-88933340D01*
X182805732Y-89015528D01*
X182669059Y-89072140D01*
X182582004Y-89089456D01*
X182523969Y-89101000D01*
X182376031Y-89101000D01*
X182317996Y-89089456D01*
X182230941Y-89072140D01*
X182094268Y-89015528D01*
X181971265Y-88933340D01*
X181971262Y-88933338D01*
X181866662Y-88828738D01*
X181784473Y-88705733D01*
X181784472Y-88705732D01*
X181727860Y-88569059D01*
X181699000Y-88423967D01*
X181699000Y-88276033D01*
X181727860Y-88130941D01*
X181784472Y-87994268D01*
X181866660Y-87871265D01*
X181866662Y-87871262D01*
X181971262Y-87766662D01*
X182094267Y-87684473D01*
X182094268Y-87684472D01*
X182230941Y-87627860D01*
X182317996Y-87610544D01*
X182376031Y-87599000D01*
X182523969Y-87599000D01*
X182582004Y-87610544D01*
X182582004Y-87610544D01*
G37*
G36*
X178082004Y-87610544D02*
X178169059Y-87627860D01*
X178305732Y-87684472D01*
X178305733Y-87684473D01*
X178428738Y-87766662D01*
X178533338Y-87871262D01*
X178533340Y-87871265D01*
X178615528Y-87994268D01*
X178672140Y-88130941D01*
X178701000Y-88276033D01*
X178701000Y-88423967D01*
X178672140Y-88569059D01*
X178615528Y-88705732D01*
X178615527Y-88705733D01*
X178533338Y-88828738D01*
X178428738Y-88933338D01*
X178428735Y-88933340D01*
X178305732Y-89015528D01*
X178169059Y-89072140D01*
X178082004Y-89089456D01*
X178023969Y-89101000D01*
X177876031Y-89101000D01*
X177817996Y-89089456D01*
X177730941Y-89072140D01*
X177594268Y-89015528D01*
X177471265Y-88933340D01*
X177471262Y-88933338D01*
X177366662Y-88828738D01*
X177284473Y-88705733D01*
X177284472Y-88705732D01*
X177227860Y-88569059D01*
X177199000Y-88423967D01*
X177199000Y-88276033D01*
X177227860Y-88130941D01*
X177284472Y-87994268D01*
X177366660Y-87871265D01*
X177366662Y-87871262D01*
X177471262Y-87766662D01*
X177594267Y-87684473D01*
X177594268Y-87684472D01*
X177730941Y-87627860D01*
X177817996Y-87610544D01*
X177876031Y-87599000D01*
X178023969Y-87599000D01*
X178082004Y-87610544D01*
X178082004Y-87610544D01*
G37*
G36*
X180082004Y-87610544D02*
X180169059Y-87627860D01*
X180305732Y-87684472D01*
X180305733Y-87684473D01*
X180428738Y-87766662D01*
X180533338Y-87871262D01*
X180533340Y-87871265D01*
X180615528Y-87994268D01*
X180672140Y-88130941D01*
X180701000Y-88276033D01*
X180701000Y-88423967D01*
X180672140Y-88569059D01*
X180615528Y-88705732D01*
X180615527Y-88705733D01*
X180533338Y-88828738D01*
X180428738Y-88933338D01*
X180428735Y-88933340D01*
X180305732Y-89015528D01*
X180169059Y-89072140D01*
X180082004Y-89089456D01*
X180023969Y-89101000D01*
X179876031Y-89101000D01*
X179817996Y-89089456D01*
X179730941Y-89072140D01*
X179594268Y-89015528D01*
X179471265Y-88933340D01*
X179471262Y-88933338D01*
X179366662Y-88828738D01*
X179284473Y-88705733D01*
X179284472Y-88705732D01*
X179227860Y-88569059D01*
X179199000Y-88423967D01*
X179199000Y-88276033D01*
X179227860Y-88130941D01*
X179284472Y-87994268D01*
X179366660Y-87871265D01*
X179366662Y-87871262D01*
X179471262Y-87766662D01*
X179594267Y-87684473D01*
X179594268Y-87684472D01*
X179730941Y-87627860D01*
X179817996Y-87610544D01*
X179876031Y-87599000D01*
X180023969Y-87599000D01*
X180082004Y-87610544D01*
X180082004Y-87610544D01*
G37*
G36*
X175582004Y-87610544D02*
X175669059Y-87627860D01*
X175805732Y-87684472D01*
X175805733Y-87684473D01*
X175928738Y-87766662D01*
X176033338Y-87871262D01*
X176033340Y-87871265D01*
X176115528Y-87994268D01*
X176172140Y-88130941D01*
X176201000Y-88276033D01*
X176201000Y-88423967D01*
X176172140Y-88569059D01*
X176115528Y-88705732D01*
X176115527Y-88705733D01*
X176033338Y-88828738D01*
X175928738Y-88933338D01*
X175928735Y-88933340D01*
X175805732Y-89015528D01*
X175669059Y-89072140D01*
X175582004Y-89089456D01*
X175523969Y-89101000D01*
X175376031Y-89101000D01*
X175317996Y-89089456D01*
X175230941Y-89072140D01*
X175094268Y-89015528D01*
X174971265Y-88933340D01*
X174971262Y-88933338D01*
X174866662Y-88828738D01*
X174784473Y-88705733D01*
X174784472Y-88705732D01*
X174727860Y-88569059D01*
X174699000Y-88423967D01*
X174699000Y-88276033D01*
X174727860Y-88130941D01*
X174784472Y-87994268D01*
X174866660Y-87871265D01*
X174866662Y-87871262D01*
X174971262Y-87766662D01*
X175094267Y-87684473D01*
X175094268Y-87684472D01*
X175230941Y-87627860D01*
X175317996Y-87610544D01*
X175376031Y-87599000D01*
X175523969Y-87599000D01*
X175582004Y-87610544D01*
X175582004Y-87610544D01*
G37*
G36*
X172852527Y-84438736D02*
X172952410Y-84458604D01*
X173234674Y-84575521D01*
X173488705Y-84745259D01*
X173704741Y-84961295D01*
X173874479Y-85215326D01*
X173991396Y-85497590D01*
X174051000Y-85797240D01*
X174051000Y-86102760D01*
X173991396Y-86402410D01*
X173874479Y-86684674D01*
X173704741Y-86938705D01*
X173488705Y-87154741D01*
X173234674Y-87324479D01*
X172952410Y-87441396D01*
X172852527Y-87461264D01*
X172652762Y-87501000D01*
X172347238Y-87501000D01*
X172147473Y-87461264D01*
X172047590Y-87441396D01*
X171765326Y-87324479D01*
X171511295Y-87154741D01*
X171295259Y-86938705D01*
X171125521Y-86684674D01*
X171008604Y-86402410D01*
X170949000Y-86102760D01*
X170949000Y-85797240D01*
X171008604Y-85497590D01*
X171125521Y-85215326D01*
X171295259Y-84961295D01*
X171511295Y-84745259D01*
X171765326Y-84575521D01*
X172047590Y-84458604D01*
X172147473Y-84438736D01*
X172347238Y-84399000D01*
X172652762Y-84399000D01*
X172852527Y-84438736D01*
X172852527Y-84438736D01*
G37*
G36*
X185752527Y-84438736D02*
X185852410Y-84458604D01*
X186134674Y-84575521D01*
X186388705Y-84745259D01*
X186604741Y-84961295D01*
X186774479Y-85215326D01*
X186891396Y-85497590D01*
X186951000Y-85797240D01*
X186951000Y-86102760D01*
X186891396Y-86402410D01*
X186774479Y-86684674D01*
X186604741Y-86938705D01*
X186388705Y-87154741D01*
X186134674Y-87324479D01*
X185852410Y-87441396D01*
X185752527Y-87461264D01*
X185552762Y-87501000D01*
X185247238Y-87501000D01*
X185047473Y-87461264D01*
X184947590Y-87441396D01*
X184665326Y-87324479D01*
X184411295Y-87154741D01*
X184195259Y-86938705D01*
X184025521Y-86684674D01*
X183908604Y-86402410D01*
X183849000Y-86102760D01*
X183849000Y-85797240D01*
X183908604Y-85497590D01*
X184025521Y-85215326D01*
X184195259Y-84961295D01*
X184411295Y-84745259D01*
X184665326Y-84575521D01*
X184947590Y-84458604D01*
X185047473Y-84438736D01*
X185247238Y-84399000D01*
X185552762Y-84399000D01*
X185752527Y-84438736D01*
X185752527Y-84438736D01*
G37*
G36*
X175582004Y-62960544D02*
X175669059Y-62977860D01*
X175805732Y-63034472D01*
X175805733Y-63034473D01*
X175928738Y-63116662D01*
X176033338Y-63221262D01*
X176033340Y-63221265D01*
X176115528Y-63344268D01*
X176172140Y-63480941D01*
X176201000Y-63626033D01*
X176201000Y-63773967D01*
X176172140Y-63919059D01*
X176115528Y-64055732D01*
X176115527Y-64055733D01*
X176033338Y-64178738D01*
X175928738Y-64283338D01*
X175928735Y-64283340D01*
X175805732Y-64365528D01*
X175669059Y-64422140D01*
X175582004Y-64439456D01*
X175523969Y-64451000D01*
X175376031Y-64451000D01*
X175317996Y-64439456D01*
X175230941Y-64422140D01*
X175094268Y-64365528D01*
X174971265Y-64283340D01*
X174971262Y-64283338D01*
X174866662Y-64178738D01*
X174784473Y-64055733D01*
X174784472Y-64055732D01*
X174727860Y-63919059D01*
X174699000Y-63773967D01*
X174699000Y-63626033D01*
X174727860Y-63480941D01*
X174784472Y-63344268D01*
X174866660Y-63221265D01*
X174866662Y-63221262D01*
X174971262Y-63116662D01*
X175094267Y-63034473D01*
X175094268Y-63034472D01*
X175230941Y-62977860D01*
X175317996Y-62960544D01*
X175376031Y-62949000D01*
X175523969Y-62949000D01*
X175582004Y-62960544D01*
X175582004Y-62960544D01*
G37*
G36*
X182582004Y-62960544D02*
X182669059Y-62977860D01*
X182805732Y-63034472D01*
X182805733Y-63034473D01*
X182928738Y-63116662D01*
X183033338Y-63221262D01*
X183033340Y-63221265D01*
X183115528Y-63344268D01*
X183172140Y-63480941D01*
X183201000Y-63626033D01*
X183201000Y-63773967D01*
X183172140Y-63919059D01*
X183115528Y-64055732D01*
X183115527Y-64055733D01*
X183033338Y-64178738D01*
X182928738Y-64283338D01*
X182928735Y-64283340D01*
X182805732Y-64365528D01*
X182669059Y-64422140D01*
X182582004Y-64439456D01*
X182523969Y-64451000D01*
X182376031Y-64451000D01*
X182317996Y-64439456D01*
X182230941Y-64422140D01*
X182094268Y-64365528D01*
X181971265Y-64283340D01*
X181971262Y-64283338D01*
X181866662Y-64178738D01*
X181784473Y-64055733D01*
X181784472Y-64055732D01*
X181727860Y-63919059D01*
X181699000Y-63773967D01*
X181699000Y-63626033D01*
X181727860Y-63480941D01*
X181784472Y-63344268D01*
X181866660Y-63221265D01*
X181866662Y-63221262D01*
X181971262Y-63116662D01*
X182094267Y-63034473D01*
X182094268Y-63034472D01*
X182230941Y-62977860D01*
X182317996Y-62960544D01*
X182376031Y-62949000D01*
X182523969Y-62949000D01*
X182582004Y-62960544D01*
X182582004Y-62960544D01*
G37*
G36*
X180082004Y-62960544D02*
X180169059Y-62977860D01*
X180305732Y-63034472D01*
X180305733Y-63034473D01*
X180428738Y-63116662D01*
X180533338Y-63221262D01*
X180533340Y-63221265D01*
X180615528Y-63344268D01*
X180672140Y-63480941D01*
X180701000Y-63626033D01*
X180701000Y-63773967D01*
X180672140Y-63919059D01*
X180615528Y-64055732D01*
X180615527Y-64055733D01*
X180533338Y-64178738D01*
X180428738Y-64283338D01*
X180428735Y-64283340D01*
X180305732Y-64365528D01*
X180169059Y-64422140D01*
X180082004Y-64439456D01*
X180023969Y-64451000D01*
X179876031Y-64451000D01*
X179817996Y-64439456D01*
X179730941Y-64422140D01*
X179594268Y-64365528D01*
X179471265Y-64283340D01*
X179471262Y-64283338D01*
X179366662Y-64178738D01*
X179284473Y-64055733D01*
X179284472Y-64055732D01*
X179227860Y-63919059D01*
X179199000Y-63773967D01*
X179199000Y-63626033D01*
X179227860Y-63480941D01*
X179284472Y-63344268D01*
X179366660Y-63221265D01*
X179366662Y-63221262D01*
X179471262Y-63116662D01*
X179594267Y-63034473D01*
X179594268Y-63034472D01*
X179730941Y-62977860D01*
X179817996Y-62960544D01*
X179876031Y-62949000D01*
X180023969Y-62949000D01*
X180082004Y-62960544D01*
X180082004Y-62960544D01*
G37*
G36*
X178082004Y-62960544D02*
X178169059Y-62977860D01*
X178305732Y-63034472D01*
X178305733Y-63034473D01*
X178428738Y-63116662D01*
X178533338Y-63221262D01*
X178533340Y-63221265D01*
X178615528Y-63344268D01*
X178672140Y-63480941D01*
X178701000Y-63626033D01*
X178701000Y-63773967D01*
X178672140Y-63919059D01*
X178615528Y-64055732D01*
X178615527Y-64055733D01*
X178533338Y-64178738D01*
X178428738Y-64283338D01*
X178428735Y-64283340D01*
X178305732Y-64365528D01*
X178169059Y-64422140D01*
X178082004Y-64439456D01*
X178023969Y-64451000D01*
X177876031Y-64451000D01*
X177817996Y-64439456D01*
X177730941Y-64422140D01*
X177594268Y-64365528D01*
X177471265Y-64283340D01*
X177471262Y-64283338D01*
X177366662Y-64178738D01*
X177284473Y-64055733D01*
X177284472Y-64055732D01*
X177227860Y-63919059D01*
X177199000Y-63773967D01*
X177199000Y-63626033D01*
X177227860Y-63480941D01*
X177284472Y-63344268D01*
X177366660Y-63221265D01*
X177366662Y-63221262D01*
X177471262Y-63116662D01*
X177594267Y-63034473D01*
X177594268Y-63034472D01*
X177730941Y-62977860D01*
X177817996Y-62960544D01*
X177876031Y-62949000D01*
X178023969Y-62949000D01*
X178082004Y-62960544D01*
X178082004Y-62960544D01*
G37*
G36*
X185752527Y-59788736D02*
X185852410Y-59808604D01*
X186134674Y-59925521D01*
X186388705Y-60095259D01*
X186604741Y-60311295D01*
X186774479Y-60565326D01*
X186832499Y-60705400D01*
X186891396Y-60847591D01*
X186951000Y-61147238D01*
X186951000Y-61452762D01*
X186913231Y-61642639D01*
X186891396Y-61752410D01*
X186774479Y-62034674D01*
X186604741Y-62288705D01*
X186388705Y-62504741D01*
X186134674Y-62674479D01*
X185852410Y-62791396D01*
X185752527Y-62811264D01*
X185552762Y-62851000D01*
X185247238Y-62851000D01*
X185047473Y-62811264D01*
X184947590Y-62791396D01*
X184665326Y-62674479D01*
X184411295Y-62504741D01*
X184195259Y-62288705D01*
X184025521Y-62034674D01*
X183908604Y-61752410D01*
X183886769Y-61642639D01*
X183849000Y-61452762D01*
X183849000Y-61147238D01*
X183908604Y-60847591D01*
X183967501Y-60705400D01*
X184025521Y-60565326D01*
X184195259Y-60311295D01*
X184411295Y-60095259D01*
X184665326Y-59925521D01*
X184947590Y-59808604D01*
X185047473Y-59788736D01*
X185247238Y-59749000D01*
X185552762Y-59749000D01*
X185752527Y-59788736D01*
X185752527Y-59788736D01*
G37*
G36*
X172852527Y-59788736D02*
X172952410Y-59808604D01*
X173234674Y-59925521D01*
X173488705Y-60095259D01*
X173704741Y-60311295D01*
X173874479Y-60565326D01*
X173932499Y-60705400D01*
X173991396Y-60847591D01*
X174051000Y-61147238D01*
X174051000Y-61452762D01*
X174013231Y-61642639D01*
X173991396Y-61752410D01*
X173874479Y-62034674D01*
X173704741Y-62288705D01*
X173488705Y-62504741D01*
X173234674Y-62674479D01*
X172952410Y-62791396D01*
X172852527Y-62811264D01*
X172652762Y-62851000D01*
X172347238Y-62851000D01*
X172147473Y-62811264D01*
X172047590Y-62791396D01*
X171765326Y-62674479D01*
X171511295Y-62504741D01*
X171295259Y-62288705D01*
X171125521Y-62034674D01*
X171008604Y-61752410D01*
X170986769Y-61642639D01*
X170949000Y-61452762D01*
X170949000Y-61147238D01*
X171008604Y-60847591D01*
X171067501Y-60705400D01*
X171125521Y-60565326D01*
X171295259Y-60311295D01*
X171511295Y-60095259D01*
X171765326Y-59925521D01*
X172047590Y-59808604D01*
X172147473Y-59788736D01*
X172347238Y-59749000D01*
X172652762Y-59749000D01*
X172852527Y-59788736D01*
X172852527Y-59788736D01*
G37*
G36*
X111913325Y-59768160D02*
X111913328Y-59768161D01*
X111913329Y-59768161D01*
X112092593Y-59822540D01*
X112092595Y-59822541D01*
X112257805Y-59910848D01*
X112402612Y-60029688D01*
X112521452Y-60174495D01*
X112609759Y-60339705D01*
X112664140Y-60518975D01*
X112682501Y-60705400D01*
X112664140Y-60891825D01*
X112609759Y-61071095D01*
X112521452Y-61236305D01*
X112402612Y-61381112D01*
X112257805Y-61499952D01*
X112257803Y-61499953D01*
X112092593Y-61588260D01*
X111913329Y-61642639D01*
X111913328Y-61642639D01*
X111913325Y-61642640D01*
X111773618Y-61656400D01*
X109480182Y-61656400D01*
X109340475Y-61642640D01*
X109340472Y-61642639D01*
X109340471Y-61642639D01*
X109161207Y-61588260D01*
X108995997Y-61499953D01*
X108995995Y-61499952D01*
X108851188Y-61381112D01*
X108732348Y-61236305D01*
X108644041Y-61071095D01*
X108589660Y-60891825D01*
X108571299Y-60705400D01*
X108589660Y-60518975D01*
X108644041Y-60339705D01*
X108732348Y-60174495D01*
X108851188Y-60029688D01*
X108995995Y-59910848D01*
X109161205Y-59822541D01*
X109161207Y-59822540D01*
X109340471Y-59768161D01*
X109340472Y-59768161D01*
X109340475Y-59768160D01*
X109480182Y-59754400D01*
X111773618Y-59754400D01*
X111913325Y-59768160D01*
X111913325Y-59768160D01*
G37*
G36*
X114577900Y-58156400D02*
X112675900Y-58156400D01*
X112675900Y-53654400D01*
X114577900Y-53654400D01*
X114577900Y-58156400D01*
X114577900Y-58156400D01*
G37*
G36*
X107813325Y-53868160D02*
X107813328Y-53868161D01*
X107813329Y-53868161D01*
X107992593Y-53922540D01*
X107992595Y-53922541D01*
X108157805Y-54010848D01*
X108302612Y-54129688D01*
X108421452Y-54274495D01*
X108509759Y-54439705D01*
X108564140Y-54618975D01*
X108577900Y-54758682D01*
X108577900Y-57052118D01*
X108564140Y-57191825D01*
X108509759Y-57371095D01*
X108421452Y-57536305D01*
X108302612Y-57681112D01*
X108157804Y-57799954D01*
X107992597Y-57888258D01*
X107992594Y-57888259D01*
X107992592Y-57888260D01*
X107813328Y-57942639D01*
X107813327Y-57942639D01*
X107813324Y-57942640D01*
X107626900Y-57961001D01*
X107440475Y-57942640D01*
X107440472Y-57942639D01*
X107440471Y-57942639D01*
X107261207Y-57888260D01*
X107095997Y-57799953D01*
X107095995Y-57799952D01*
X106951188Y-57681112D01*
X106832346Y-57536304D01*
X106744042Y-57371097D01*
X106689662Y-57191829D01*
X106689661Y-57191828D01*
X106689661Y-57191827D01*
X106689660Y-57191824D01*
X106675900Y-57052117D01*
X106675901Y-54758682D01*
X106689661Y-54618975D01*
X106744042Y-54439705D01*
X106832349Y-54274495D01*
X106951189Y-54129688D01*
X107095996Y-54010848D01*
X107261206Y-53922541D01*
X107261208Y-53922540D01*
X107440472Y-53868161D01*
X107440473Y-53868161D01*
X107440476Y-53868160D01*
X107626900Y-53849799D01*
X107813325Y-53868160D01*
X107813325Y-53868160D01*
G37*
M02*
