G04 #@! TF.GenerationSoftware,KiCad,Pcbnew,5.0.2-bee76a0~70~ubuntu18.04.1*
G04 #@! TF.CreationDate,2018-12-05T13:48:36+01:00*
G04 #@! TF.ProjectId,usbhub,75736268-7562-42e6-9b69-6361645f7063,rev?*
G04 #@! TF.SameCoordinates,Original*
G04 #@! TF.FileFunction,Copper,L2,Bot*
G04 #@! TF.FilePolarity,Positive*
%FSLAX46Y46*%
G04 Gerber Fmt 4.6, Leading zero omitted, Abs format (unit mm)*
G04 Created by KiCad (PCBNEW 5.0.2-bee76a0~70~ubuntu18.04.1) date 2018-12-05T13:48:36 CET*
%MOMM*%
%LPD*%
G01*
G04 APERTURE LIST*
G04 #@! TA.AperFunction,ComponentPad*
%ADD10O,1.700000X1.700000*%
G04 #@! TD*
G04 #@! TA.AperFunction,ComponentPad*
%ADD11R,1.700000X1.700000*%
G04 #@! TD*
G04 #@! TA.AperFunction,ComponentPad*
%ADD12O,4.000000X1.800000*%
G04 #@! TD*
G04 #@! TA.AperFunction,ComponentPad*
%ADD13O,1.800000X4.000000*%
G04 #@! TD*
G04 #@! TA.AperFunction,ComponentPad*
%ADD14R,1.800000X4.400000*%
G04 #@! TD*
G04 #@! TA.AperFunction,ViaPad*
%ADD15C,0.440000*%
G04 #@! TD*
G04 #@! TA.AperFunction,Conductor*
%ADD16C,0.100000*%
G04 #@! TD*
G04 #@! TA.AperFunction,Conductor*
%ADD17C,4.700000*%
G04 #@! TD*
G04 #@! TA.AperFunction,ViaPad*
%ADD18C,0.500000*%
G04 #@! TD*
G04 #@! TA.AperFunction,ComponentPad*
%ADD19C,1.400000*%
G04 #@! TD*
G04 #@! TA.AperFunction,ComponentPad*
%ADD20C,3.000000*%
G04 #@! TD*
G04 #@! TA.AperFunction,ComponentPad*
%ADD21O,0.900000X2.100000*%
G04 #@! TD*
G04 #@! TA.AperFunction,ComponentPad*
%ADD22O,1.000000X1.600000*%
G04 #@! TD*
G04 #@! TA.AperFunction,ViaPad*
%ADD23C,0.600000*%
G04 #@! TD*
G04 #@! TA.AperFunction,ViaPad*
%ADD24C,0.800000*%
G04 #@! TD*
G04 #@! TA.AperFunction,Conductor*
%ADD25C,0.250000*%
G04 #@! TD*
G04 #@! TA.AperFunction,Conductor*
%ADD26C,0.600000*%
G04 #@! TD*
G04 #@! TA.AperFunction,Conductor*
%ADD27C,0.200000*%
G04 #@! TD*
G04 #@! TA.AperFunction,Conductor*
%ADD28C,0.254000*%
G04 #@! TD*
G04 APERTURE END LIST*
D10*
G04 #@! TO.P,J9,4*
G04 #@! TO.N,/MCU/MCU_SWDCLK*
X143764000Y-145554700D03*
G04 #@! TO.P,J9,3*
G04 #@! TO.N,GND*
X146304000Y-145554700D03*
G04 #@! TO.P,J9,2*
G04 #@! TO.N,/MCU/MCU_SWDIO*
X148844000Y-145554700D03*
D11*
G04 #@! TO.P,J9,1*
G04 #@! TO.N,VDDMCU*
X151384000Y-145554700D03*
G04 #@! TD*
G04 #@! TO.P,J10,1*
G04 #@! TO.N,GND*
X164465000Y-145554700D03*
D10*
G04 #@! TO.P,J10,2*
G04 #@! TO.N,/MCU/UART_TX*
X161925000Y-145554700D03*
G04 #@! TO.P,J10,3*
G04 #@! TO.N,/MCU/UART_RX*
X159385000Y-145554700D03*
G04 #@! TO.P,J10,4*
G04 #@! TO.N,VDDMCU*
X156845000Y-145554700D03*
G04 #@! TD*
D12*
G04 #@! TO.P,J1,3*
G04 #@! TO.N,Net-(J1-Pad3)*
X110626900Y-60705400D03*
D13*
G04 #@! TO.P,J1,2*
G04 #@! TO.N,GND*
X107626900Y-55905400D03*
D14*
G04 #@! TO.P,J1,1*
G04 #@! TO.N,/USB2517/EXT_PWR*
X113626900Y-55905400D03*
G04 #@! TD*
D15*
G04 #@! TO.N,GND*
G04 #@! TO.C,U11*
X142588200Y-122956100D03*
X143468200Y-122956100D03*
X144348200Y-122956100D03*
X145228200Y-122956100D03*
X146108200Y-122956100D03*
X142588200Y-122076100D03*
X143468200Y-122076100D03*
X144348200Y-122076100D03*
X145228200Y-122076100D03*
X146108200Y-122076100D03*
X142588200Y-121196100D03*
X143468200Y-121196100D03*
X144348200Y-121196100D03*
X145228200Y-121196100D03*
X146108200Y-121196100D03*
X142588200Y-120316100D03*
X143468200Y-120316100D03*
X144348200Y-120316100D03*
X145228200Y-120316100D03*
X146108200Y-120316100D03*
X142588200Y-119436100D03*
X143468200Y-119436100D03*
X144348200Y-119436100D03*
X145228200Y-119436100D03*
X146108200Y-119436100D03*
G04 #@! TD*
D10*
G04 #@! TO.P,J3,4*
G04 #@! TO.N,GND*
X113030000Y-145554700D03*
G04 #@! TO.P,J3,3*
G04 #@! TO.N,/USBPorts/PORT6_D+*
X110490000Y-145554700D03*
G04 #@! TO.P,J3,2*
G04 #@! TO.N,/USBPorts/PORT6_D-*
X107950000Y-145554700D03*
D11*
G04 #@! TO.P,J3,1*
G04 #@! TO.N,+5V*
X105410000Y-145554700D03*
G04 #@! TD*
D10*
G04 #@! TO.P,J5,4*
G04 #@! TO.N,GND*
X127317500Y-145554700D03*
G04 #@! TO.P,J5,3*
G04 #@! TO.N,/USBPorts/PORT7_D+*
X124777500Y-145554700D03*
G04 #@! TO.P,J5,2*
G04 #@! TO.N,/USBPorts/PORT7_D-*
X122237500Y-145554700D03*
D11*
G04 #@! TO.P,J5,1*
G04 #@! TO.N,+5V*
X119697500Y-145554700D03*
G04 #@! TD*
D16*
G04 #@! TO.N,GND*
G04 #@! TO.C,U3*
G36*
X145324507Y-94101204D02*
X145348775Y-94104804D01*
X145372573Y-94110765D01*
X145395673Y-94119030D01*
X145417851Y-94129519D01*
X145438894Y-94142132D01*
X145458599Y-94156747D01*
X145476778Y-94173222D01*
X145493253Y-94191401D01*
X145507868Y-94211106D01*
X145520481Y-94232149D01*
X145530970Y-94254327D01*
X145539235Y-94277427D01*
X145545196Y-94301225D01*
X145548796Y-94325493D01*
X145550000Y-94349997D01*
X145550000Y-98550003D01*
X145548796Y-98574507D01*
X145545196Y-98598775D01*
X145539235Y-98622573D01*
X145530970Y-98645673D01*
X145520481Y-98667851D01*
X145507868Y-98688894D01*
X145493253Y-98708599D01*
X145476778Y-98726778D01*
X145458599Y-98743253D01*
X145438894Y-98757868D01*
X145417851Y-98770481D01*
X145395673Y-98780970D01*
X145372573Y-98789235D01*
X145348775Y-98795196D01*
X145324507Y-98798796D01*
X145300003Y-98800000D01*
X141099997Y-98800000D01*
X141075493Y-98798796D01*
X141051225Y-98795196D01*
X141027427Y-98789235D01*
X141004327Y-98780970D01*
X140982149Y-98770481D01*
X140961106Y-98757868D01*
X140941401Y-98743253D01*
X140923222Y-98726778D01*
X140906747Y-98708599D01*
X140892132Y-98688894D01*
X140879519Y-98667851D01*
X140869030Y-98645673D01*
X140860765Y-98622573D01*
X140854804Y-98598775D01*
X140851204Y-98574507D01*
X140850000Y-98550003D01*
X140850000Y-94349997D01*
X140851204Y-94325493D01*
X140854804Y-94301225D01*
X140860765Y-94277427D01*
X140869030Y-94254327D01*
X140879519Y-94232149D01*
X140892132Y-94211106D01*
X140906747Y-94191401D01*
X140923222Y-94173222D01*
X140941401Y-94156747D01*
X140961106Y-94142132D01*
X140982149Y-94129519D01*
X141004327Y-94119030D01*
X141027427Y-94110765D01*
X141051225Y-94104804D01*
X141075493Y-94101204D01*
X141099997Y-94100000D01*
X145300003Y-94100000D01*
X145324507Y-94101204D01*
X145324507Y-94101204D01*
G37*
D17*
X143200000Y-96450000D03*
D18*
X141100000Y-94350000D03*
X142500000Y-94350000D03*
X143900000Y-94350000D03*
X145300000Y-94350000D03*
X141100000Y-95750000D03*
X142500000Y-95750000D03*
X143900000Y-95750000D03*
X145300000Y-95750000D03*
X141100000Y-97150000D03*
X142500000Y-97150000D03*
X143900000Y-97150000D03*
X145300000Y-97150000D03*
X141100000Y-98550000D03*
X142500000Y-98550000D03*
X143900000Y-98550000D03*
X145300000Y-98550000D03*
G04 #@! TD*
D19*
G04 #@! TO.P,J6,4*
G04 #@! TO.N,GND*
X175450000Y-113206700D03*
G04 #@! TO.P,J6,3*
G04 #@! TO.N,/USBPorts/USB3_D+*
X177950000Y-113206700D03*
G04 #@! TO.P,J6,2*
G04 #@! TO.N,/USBPorts/USB3_D-*
X179950000Y-113206700D03*
G04 #@! TO.P,J6,1*
G04 #@! TO.N,/USBPorts/USB3_VBUS*
X182450000Y-113206700D03*
D20*
G04 #@! TO.P,J6,5*
G04 #@! TO.N,GND*
X185400000Y-110806700D03*
X172500000Y-110806700D03*
G04 #@! TD*
D19*
G04 #@! TO.P,J7,4*
G04 #@! TO.N,GND*
X175450000Y-88350000D03*
G04 #@! TO.P,J7,3*
G04 #@! TO.N,/USBPorts/USB4_D+*
X177950000Y-88350000D03*
G04 #@! TO.P,J7,2*
G04 #@! TO.N,/USBPorts/USB4_D-*
X179950000Y-88350000D03*
G04 #@! TO.P,J7,1*
G04 #@! TO.N,/USBPorts/USB4_VBUS*
X182450000Y-88350000D03*
D20*
G04 #@! TO.P,J7,5*
G04 #@! TO.N,GND*
X185400000Y-85950000D03*
X172500000Y-85950000D03*
G04 #@! TD*
D19*
G04 #@! TO.P,J4,4*
G04 #@! TO.N,GND*
X175450000Y-138900000D03*
G04 #@! TO.P,J4,3*
G04 #@! TO.N,/USBPorts/USB2_D+*
X177950000Y-138900000D03*
G04 #@! TO.P,J4,2*
G04 #@! TO.N,/USBPorts/USB2_D-*
X179950000Y-138900000D03*
G04 #@! TO.P,J4,1*
G04 #@! TO.N,/USBPorts/USB2_VBUS*
X182450000Y-138900000D03*
D20*
G04 #@! TO.P,J4,5*
G04 #@! TO.N,GND*
X185400000Y-136500000D03*
X172500000Y-136500000D03*
G04 #@! TD*
D19*
G04 #@! TO.P,J8,4*
G04 #@! TO.N,GND*
X175450000Y-63700000D03*
G04 #@! TO.P,J8,3*
G04 #@! TO.N,/USBPorts/USB5_D+*
X177950000Y-63700000D03*
G04 #@! TO.P,J8,2*
G04 #@! TO.N,/USBPorts/USB5_D-*
X179950000Y-63700000D03*
G04 #@! TO.P,J8,1*
G04 #@! TO.N,/USBPorts/USB5_VBUS*
X182450000Y-63700000D03*
D20*
G04 #@! TO.P,J8,5*
G04 #@! TO.N,GND*
X185400000Y-61300000D03*
X172500000Y-61300000D03*
G04 #@! TD*
D21*
G04 #@! TO.P,J2,S1*
G04 #@! TO.N,GND*
X139943300Y-143028800D03*
X131303300Y-143028800D03*
D22*
X139943300Y-147208800D03*
X131303300Y-147208800D03*
G04 #@! TD*
D23*
G04 #@! TO.N,GND*
X148272500Y-81978500D03*
X153822400Y-81788000D03*
X154376120Y-126746000D03*
X174777400Y-140804900D03*
X175399700Y-73825100D03*
X133946900Y-105384600D03*
X127279400Y-96202498D03*
X128143000Y-94627700D03*
X144297400Y-106692700D03*
X146507200Y-106832400D03*
X140550900Y-81495900D03*
X143002000Y-86677500D03*
X151358600Y-116890800D03*
X136982200Y-101117400D03*
X154513280Y-95026480D03*
X153085800Y-92623640D03*
X160213040Y-134137400D03*
X152892760Y-125572520D03*
X134470322Y-97037066D03*
X147955000Y-90678000D03*
X153670000Y-67183000D03*
X154051000Y-105283000D03*
X149987000Y-114808000D03*
X136271000Y-96266000D03*
D24*
G04 #@! TO.N,VBUS*
X127774700Y-121081800D03*
X126377698Y-104648000D03*
G04 #@! TO.N,+5V*
X145961100Y-57429400D03*
X145961100Y-56600000D03*
X145961100Y-58300000D03*
X145961100Y-59200000D03*
X145961100Y-55700000D03*
X145961100Y-54800000D03*
X145961100Y-53900000D03*
X145961100Y-53000000D03*
X145961100Y-52100000D03*
X145961100Y-60100000D03*
X145961100Y-61000000D03*
X146000000Y-61900000D03*
X144018000Y-116509800D03*
X161988500Y-122428000D03*
X161163000Y-122428000D03*
X161163000Y-123253500D03*
X161988500Y-123253500D03*
X162877500Y-72644000D03*
X162877500Y-73469500D03*
X162052000Y-73469500D03*
X162052000Y-72644000D03*
D23*
G04 #@! TO.N,VDDMCU*
X151726900Y-137096500D03*
X146685000Y-127165100D03*
X148653500Y-125196600D03*
D24*
X150202900Y-117856000D03*
D23*
X147116800Y-114122200D03*
X140208000Y-120871100D03*
G04 #@! TO.N,/MCU/PORT2_PWR*
X135407400Y-123685300D03*
X140906038Y-89234902D03*
G04 #@! TO.N,+3V3*
X142963900Y-103962200D03*
X140360400Y-101989600D03*
X149759910Y-87960200D03*
X135915500Y-100711000D03*
X133388100Y-97104200D03*
X153898600Y-96520000D03*
X152979084Y-98899584D03*
X153860500Y-90571299D03*
X171389042Y-113096040D03*
X154172920Y-125552200D03*
X147368098Y-101717002D03*
X148849080Y-95582719D03*
X148868840Y-100775000D03*
X146114963Y-87863765D03*
G04 #@! TO.N,/MCU/PORT5_PWR*
X140055600Y-87033100D03*
X133442010Y-126238000D03*
G04 #@! TO.N,/MCU/PORT4_PWR*
X134213864Y-124750859D03*
X140944600Y-87490300D03*
G04 #@! TO.N,/MCU/PORT3_PWR*
X134807936Y-124215059D03*
X144233900Y-88074500D03*
D24*
G04 #@! TO.N,/MCU/PORT5_EN*
X151460200Y-108165900D03*
X152082500Y-72491600D03*
D23*
X171551600Y-66141600D03*
X171551600Y-69380100D03*
G04 #@! TO.N,/MCU/PORT2_EN*
X152171400Y-124396500D03*
X148577300Y-122821100D03*
D24*
G04 #@! TO.N,/MCU/PORT4_EN*
X152323800Y-107086400D03*
X153390600Y-75209400D03*
D23*
G04 #@! TO.N,/MCU/PORT3_EN*
X152565100Y-123355100D03*
X149288500Y-121488200D03*
X173151800Y-119253000D03*
X172847000Y-114300000D03*
G04 #@! TO.N,/MCU/VBUSDETECT*
X148628080Y-107797600D03*
X141038328Y-91234967D03*
G04 #@! TO.N,/MCU/USB_MCU_D-*
X147307300Y-110966700D03*
X149788079Y-110583179D03*
G04 #@! TO.N,/MCU/USB_MCU_D+*
X140956700Y-116179600D03*
X140627100Y-114350800D03*
X147307300Y-111816700D03*
X150389121Y-111184221D03*
G04 #@! TO.N,/MCU/MCU_SWDCLK*
X138722102Y-119164100D03*
X145872200Y-137248900D03*
G04 #@! TO.N,/MCU/MCU_SWDIO*
X139656573Y-119692185D03*
X147815300Y-137312400D03*
G04 #@! TO.N,/USBPorts/USB3_OC*
X153809700Y-118656100D03*
X154040840Y-122346720D03*
X153289000Y-110363000D03*
X146207861Y-89006731D03*
G04 #@! TO.N,/USBPorts/USB2_OC*
X153009600Y-118186200D03*
X153657855Y-123081559D03*
X153035000Y-111379000D03*
X141224000Y-90424000D03*
D24*
G04 #@! TO.N,/USBPorts/USB5_OC*
X154101800Y-71628000D03*
X134493000Y-88582500D03*
D23*
G04 #@! TO.N,/USBPorts/USB4_OC*
X153985858Y-72678901D03*
X145415000Y-88900000D03*
G04 #@! TD*
D25*
G04 #@! TO.N,VBUS*
X127774700Y-121081800D02*
X127774700Y-106045002D01*
X127774700Y-106045002D02*
X126777697Y-105047999D01*
X126777697Y-105047999D02*
X126377698Y-104648000D01*
D26*
G04 #@! TO.N,+5V*
X144018000Y-114249200D02*
X145148300Y-113118900D01*
X144018000Y-116509800D02*
X144018000Y-114249200D01*
X145148300Y-113118900D02*
X156883100Y-113118900D01*
X156883100Y-113118900D02*
X161632900Y-113118900D01*
D27*
G04 #@! TO.N,VDDMCU*
X146685000Y-127165100D02*
X148653500Y-125196600D01*
D25*
X150202900Y-117856000D02*
X150202900Y-117208300D01*
X150202900Y-117208300D02*
X147116800Y-114122200D01*
D27*
X140208000Y-121295364D02*
X140208000Y-120871100D01*
X140208000Y-122428000D02*
X140208000Y-121295364D01*
X146685000Y-127165100D02*
X144945100Y-127165100D01*
X144945100Y-127165100D02*
X140208000Y-122428000D01*
X151726900Y-137096500D02*
X151726900Y-141947900D01*
X151384000Y-142290800D02*
X151384000Y-145554700D01*
X151726900Y-141947900D02*
X151384000Y-142290800D01*
X153238200Y-141947900D02*
X156845000Y-145554700D01*
X151726900Y-141947900D02*
X153238200Y-141947900D01*
G04 #@! TO.N,/MCU/PORT2_PWR*
X133573894Y-112966500D02*
X133565900Y-112966500D01*
X140906038Y-89234902D02*
X139712700Y-90428240D01*
X139712700Y-106827694D02*
X133573894Y-112966500D01*
X139712700Y-90428240D02*
X139712700Y-106827694D01*
X135407400Y-123685300D02*
X133210300Y-121488200D01*
X133210300Y-113330094D02*
X133573894Y-112966500D01*
X133210300Y-121488200D02*
X133210300Y-113330094D01*
D25*
G04 #@! TO.N,+3V3*
X140991300Y-101989600D02*
X140360400Y-101989600D01*
X142963900Y-103962200D02*
X140991300Y-101989600D01*
D27*
X135915500Y-100711000D02*
X135915500Y-99631600D01*
X135915500Y-99631600D02*
X133388100Y-97104200D01*
X153898600Y-96520000D02*
X153898600Y-97980068D01*
X153898600Y-97980068D02*
X152979084Y-98899584D01*
X153898600Y-90609399D02*
X153860500Y-90571299D01*
X153898600Y-96520000D02*
X153898600Y-90609399D01*
X169321480Y-135686800D02*
X156403040Y-135686800D01*
X153872921Y-125852199D02*
X154172920Y-125552200D01*
X153438299Y-132722059D02*
X153438299Y-126286821D01*
X153438299Y-126286821D02*
X153872921Y-125852199D01*
X156403040Y-135686800D02*
X153438299Y-132722059D01*
X171389042Y-133619238D02*
X169321480Y-135686800D01*
X171389042Y-113096040D02*
X171389042Y-133619238D01*
D25*
X142963900Y-103962200D02*
X145122900Y-103962200D01*
X145122900Y-103962200D02*
X147068099Y-102017001D01*
X147068099Y-102017001D02*
X147368098Y-101717002D01*
D27*
X148849080Y-95582719D02*
X148849080Y-100755240D01*
X148849080Y-100755240D02*
X148868840Y-100775000D01*
X146211398Y-87960200D02*
X146114963Y-87863765D01*
X149759910Y-87960200D02*
X146211398Y-87960200D01*
G04 #@! TO.N,/MCU/PORT5_PWR*
X130302000Y-96786700D02*
X130302000Y-123097990D01*
X130302000Y-123097990D02*
X133142011Y-125938001D01*
X140055600Y-87033100D02*
X130302000Y-96786700D01*
X133142011Y-125938001D02*
X133442010Y-126238000D01*
G04 #@! TO.N,/MCU/PORT4_PWR*
X140644601Y-87790299D02*
X140944600Y-87490300D01*
X138493500Y-106907500D02*
X138493500Y-89941400D01*
X131908510Y-113492490D02*
X138493500Y-106907500D01*
X138493500Y-89941400D02*
X140644601Y-87790299D01*
X131908510Y-122445505D02*
X131908510Y-113492490D01*
X134213864Y-124750859D02*
X131908510Y-122445505D01*
G04 #@! TO.N,/MCU/PORT3_PWR*
X132518698Y-113448002D02*
X132518698Y-113455998D01*
X132518698Y-121925821D02*
X134807936Y-124215059D01*
X132518698Y-113448002D02*
X132518698Y-121925821D01*
X144233900Y-88074500D02*
X143713200Y-88595200D01*
X143713200Y-88595200D02*
X140657738Y-88595200D01*
X139153900Y-90099038D02*
X139153900Y-106812800D01*
X140657738Y-88595200D02*
X139153900Y-90099038D01*
X139153900Y-106812800D02*
X132518698Y-113448002D01*
D25*
G04 #@! TO.N,/MCU/PORT5_EN*
X151460200Y-73113900D02*
X151682501Y-72891599D01*
X151682501Y-72891599D02*
X152082500Y-72491600D01*
X151460200Y-108165900D02*
X151460200Y-73113900D01*
D27*
X171551600Y-66141600D02*
X171551600Y-66565864D01*
X171551600Y-66565864D02*
X171551600Y-69380100D01*
G04 #@! TO.N,/MCU/PORT2_EN*
X152171400Y-124396500D02*
X150596000Y-122821100D01*
X149001564Y-122821100D02*
X148577300Y-122821100D01*
X150596000Y-122821100D02*
X149001564Y-122821100D01*
D25*
G04 #@! TO.N,/MCU/PORT4_EN*
X152323800Y-107086400D02*
X152323800Y-76276200D01*
X152323800Y-76276200D02*
X153390600Y-75209400D01*
D27*
G04 #@! TO.N,/MCU/PORT3_EN*
X149339300Y-121437400D02*
X149288500Y-121488200D01*
X150063200Y-121437400D02*
X149339300Y-121437400D01*
X152565100Y-123355100D02*
X151980900Y-123355100D01*
X151980900Y-123355100D02*
X150063200Y-121437400D01*
X173146999Y-114599999D02*
X172847000Y-114300000D01*
X173990000Y-115443000D02*
X173146999Y-114599999D01*
X173151800Y-119253000D02*
X173990000Y-118414800D01*
X173990000Y-118414800D02*
X173990000Y-115443000D01*
G04 #@! TO.N,/MCU/VBUSDETECT*
X148628080Y-107797600D02*
X149468840Y-106956840D01*
X147622967Y-91234967D02*
X141462592Y-91234967D01*
X141462592Y-91234967D02*
X141038328Y-91234967D01*
X149468840Y-93080840D02*
X147622967Y-91234967D01*
X149468840Y-106956840D02*
X149468840Y-93080840D01*
G04 #@! TO.N,/MCU/USB_MCU_D-*
X149487401Y-111166700D02*
X149788079Y-110866022D01*
X147507300Y-111166700D02*
X149487401Y-111166700D01*
X147307300Y-110966700D02*
X147507300Y-111166700D01*
X149788079Y-110866022D02*
X149788079Y-110583179D01*
G04 #@! TO.N,/MCU/USB_MCU_D+*
X140956700Y-116179600D02*
X140956700Y-114680400D01*
X140956700Y-114680400D02*
X140627100Y-114350800D01*
X150106278Y-111184221D02*
X150389121Y-111184221D01*
X149673799Y-111616700D02*
X150106278Y-111184221D01*
X147307300Y-111816700D02*
X147507300Y-111616700D01*
X147507300Y-111616700D02*
X149673799Y-111616700D01*
G04 #@! TO.N,/MCU/MCU_SWDCLK*
X145872200Y-136067800D02*
X145872200Y-137248900D01*
X138322103Y-128517703D02*
X145872200Y-136067800D01*
X138722102Y-119164100D02*
X138322103Y-119564099D01*
X138322103Y-119564099D02*
X138322103Y-128517703D01*
G04 #@! TO.N,/MCU/MCU_SWDIO*
X138811000Y-128308100D02*
X147815300Y-137312400D01*
X138811000Y-120523000D02*
X138811000Y-128308100D01*
X139656573Y-119692185D02*
X139641815Y-119692185D01*
X139641815Y-119692185D02*
X138811000Y-120523000D01*
G04 #@! TO.N,/USBPorts/USB3_OC*
X153809700Y-118656100D02*
X153809700Y-122115580D01*
X153809700Y-122115580D02*
X154040840Y-122346720D01*
X146632125Y-89006731D02*
X146207861Y-89006731D01*
X149331731Y-89006731D02*
X146632125Y-89006731D01*
X150304500Y-89979500D02*
X149331731Y-89006731D01*
X150304500Y-108056764D02*
X150304500Y-89979500D01*
X152610736Y-110363000D02*
X150304500Y-108056764D01*
X153289000Y-110363000D02*
X152610736Y-110363000D01*
G04 #@! TO.N,/USBPorts/USB2_OC*
X153009600Y-122433304D02*
X153357856Y-122781560D01*
X153357856Y-122781560D02*
X153657855Y-123081559D01*
X153009600Y-118186200D02*
X153009600Y-122433304D01*
X149868851Y-90940851D02*
X148925001Y-89997001D01*
X153035000Y-111379000D02*
X149868851Y-108212851D01*
X149868851Y-108212851D02*
X149868851Y-90940851D01*
X148925001Y-89997001D02*
X141650999Y-89997001D01*
X141650999Y-89997001D02*
X141523999Y-90124001D01*
X141523999Y-90124001D02*
X141224000Y-90424000D01*
D25*
G04 #@! TO.N,/USBPorts/USB5_OC*
X134493000Y-81622900D02*
X134493000Y-88016815D01*
X134493000Y-88016815D02*
X134493000Y-88582500D01*
X147434300Y-68681600D02*
X134493000Y-81622900D01*
X154101800Y-71628000D02*
X151155400Y-68681600D01*
X151155400Y-68681600D02*
X147434300Y-68681600D01*
D27*
G04 #@! TO.N,/USBPorts/USB4_OC*
X145415000Y-88475736D02*
X145415000Y-88900000D01*
X145415000Y-75641200D02*
X145415000Y-88475736D01*
X150253700Y-70802500D02*
X145415000Y-75641200D01*
X153985858Y-72678901D02*
X152109457Y-70802500D01*
X152109457Y-70802500D02*
X150253700Y-70802500D01*
G04 #@! TD*
D28*
G04 #@! TO.N,+5V*
G36*
X166579638Y-132656079D02*
X158212889Y-132615553D01*
X158016753Y-63143471D01*
X158006949Y-63094898D01*
X157979303Y-63053774D01*
X157938023Y-63026361D01*
X157889699Y-63016830D01*
X143827484Y-63022945D01*
X143875472Y-50402000D01*
X166414719Y-50402000D01*
X166579638Y-132656079D01*
X166579638Y-132656079D01*
G37*
X166579638Y-132656079D02*
X158212889Y-132615553D01*
X158016753Y-63143471D01*
X158006949Y-63094898D01*
X157979303Y-63053774D01*
X157938023Y-63026361D01*
X157889699Y-63016830D01*
X143827484Y-63022945D01*
X143875472Y-50402000D01*
X166414719Y-50402000D01*
X166579638Y-132656079D01*
D27*
G04 #@! TO.N,GND*
G36*
X143400002Y-63148859D02*
X143422886Y-63264926D01*
X143487960Y-63362224D01*
X143585315Y-63427214D01*
X143700130Y-63450000D01*
X157590600Y-63443960D01*
X157729150Y-112518900D01*
X145207388Y-112518900D01*
X145148300Y-112507147D01*
X145089212Y-112518900D01*
X145089209Y-112518900D01*
X144914192Y-112553713D01*
X144765819Y-112652852D01*
X144765816Y-112652855D01*
X144715725Y-112686325D01*
X144682255Y-112736416D01*
X143635519Y-113783154D01*
X143585426Y-113816625D01*
X143551954Y-113866719D01*
X143551953Y-113866720D01*
X143452814Y-114015092D01*
X143406247Y-114249200D01*
X143418001Y-114308291D01*
X143418000Y-116129138D01*
X143318000Y-116370561D01*
X143318000Y-116649039D01*
X143424568Y-116906318D01*
X143621482Y-117103232D01*
X143878761Y-117209800D01*
X144157239Y-117209800D01*
X144414518Y-117103232D01*
X144611432Y-116906318D01*
X144718000Y-116649039D01*
X144718000Y-116370561D01*
X144618000Y-116129139D01*
X144618000Y-114497727D01*
X145396829Y-113718900D01*
X146671571Y-113718900D01*
X146608144Y-113782327D01*
X146516800Y-114002853D01*
X146516800Y-114241547D01*
X146608144Y-114462073D01*
X146776927Y-114630856D01*
X146997453Y-114722200D01*
X147115760Y-114722200D01*
X149731255Y-117337695D01*
X149609468Y-117459482D01*
X149502900Y-117716761D01*
X149502900Y-117995239D01*
X149609468Y-118252518D01*
X149806382Y-118449432D01*
X150063661Y-118556000D01*
X150342139Y-118556000D01*
X150599418Y-118449432D01*
X150796332Y-118252518D01*
X150902900Y-117995239D01*
X150902900Y-117716761D01*
X150796332Y-117459482D01*
X150627900Y-117291050D01*
X150627900Y-117250155D01*
X150636226Y-117208299D01*
X150618971Y-117121554D01*
X150603241Y-117042473D01*
X150509308Y-116901892D01*
X150473822Y-116878181D01*
X147716800Y-114121160D01*
X147716800Y-114002853D01*
X147625456Y-113782327D01*
X147562029Y-113718900D01*
X157732538Y-113718900D01*
X157786247Y-132742789D01*
X157808529Y-132855403D01*
X157873089Y-132953044D01*
X157970100Y-133018547D01*
X158084793Y-133041938D01*
X166705441Y-133083693D01*
X166822255Y-133060630D01*
X166919451Y-132995403D01*
X166984287Y-132897946D01*
X167006893Y-132783096D01*
X166917407Y-88151088D01*
X176950000Y-88151088D01*
X176950000Y-88548912D01*
X177102241Y-88916454D01*
X177383546Y-89197759D01*
X177751088Y-89350000D01*
X178148912Y-89350000D01*
X178516454Y-89197759D01*
X178797759Y-88916454D01*
X178950000Y-88548912D01*
X179102241Y-88916454D01*
X179383546Y-89197759D01*
X179751088Y-89350000D01*
X180148912Y-89350000D01*
X180516454Y-89197759D01*
X180797759Y-88916454D01*
X180950000Y-88548912D01*
X180950000Y-88151088D01*
X181450000Y-88151088D01*
X181450000Y-88548912D01*
X181602241Y-88916454D01*
X181883546Y-89197759D01*
X182251088Y-89350000D01*
X182648912Y-89350000D01*
X183016454Y-89197759D01*
X183297759Y-88916454D01*
X183450000Y-88548912D01*
X183450000Y-88151088D01*
X183297759Y-87783546D01*
X183016454Y-87502241D01*
X182648912Y-87350000D01*
X182251088Y-87350000D01*
X181883546Y-87502241D01*
X181602241Y-87783546D01*
X181450000Y-88151088D01*
X180950000Y-88151088D01*
X180797759Y-87783546D01*
X180516454Y-87502241D01*
X180148912Y-87350000D01*
X179751088Y-87350000D01*
X179383546Y-87502241D01*
X179102241Y-87783546D01*
X178950000Y-88151088D01*
X178797759Y-87783546D01*
X178516454Y-87502241D01*
X178148912Y-87350000D01*
X177751088Y-87350000D01*
X177383546Y-87502241D01*
X177102241Y-87783546D01*
X176950000Y-88151088D01*
X166917407Y-88151088D01*
X166873039Y-66022253D01*
X170951600Y-66022253D01*
X170951600Y-66260947D01*
X171042944Y-66481473D01*
X171151600Y-66590129D01*
X171151601Y-68931570D01*
X171042944Y-69040227D01*
X170951600Y-69260753D01*
X170951600Y-69499447D01*
X171042944Y-69719973D01*
X171211727Y-69888756D01*
X171432253Y-69980100D01*
X171670947Y-69980100D01*
X171891473Y-69888756D01*
X172060256Y-69719973D01*
X172151600Y-69499447D01*
X172151600Y-69260753D01*
X172060256Y-69040227D01*
X171951600Y-68931571D01*
X171951600Y-66590129D01*
X172060256Y-66481473D01*
X172151600Y-66260947D01*
X172151600Y-66022253D01*
X172060256Y-65801727D01*
X171891473Y-65632944D01*
X171670947Y-65541600D01*
X171432253Y-65541600D01*
X171211727Y-65632944D01*
X171042944Y-65801727D01*
X170951600Y-66022253D01*
X166873039Y-66022253D01*
X166867985Y-63501088D01*
X176950000Y-63501088D01*
X176950000Y-63898912D01*
X177102241Y-64266454D01*
X177383546Y-64547759D01*
X177751088Y-64700000D01*
X178148912Y-64700000D01*
X178516454Y-64547759D01*
X178797759Y-64266454D01*
X178950000Y-63898912D01*
X179102241Y-64266454D01*
X179383546Y-64547759D01*
X179751088Y-64700000D01*
X180148912Y-64700000D01*
X180516454Y-64547759D01*
X180797759Y-64266454D01*
X180950000Y-63898912D01*
X180950000Y-63501088D01*
X181450000Y-63501088D01*
X181450000Y-63898912D01*
X181602241Y-64266454D01*
X181883546Y-64547759D01*
X182251088Y-64700000D01*
X182648912Y-64700000D01*
X183016454Y-64547759D01*
X183297759Y-64266454D01*
X183450000Y-63898912D01*
X183450000Y-63501088D01*
X183297759Y-63133546D01*
X183016454Y-62852241D01*
X182648912Y-62700000D01*
X182251088Y-62700000D01*
X181883546Y-62852241D01*
X181602241Y-63133546D01*
X181450000Y-63501088D01*
X180950000Y-63501088D01*
X180797759Y-63133546D01*
X180516454Y-62852241D01*
X180148912Y-62700000D01*
X179751088Y-62700000D01*
X179383546Y-62852241D01*
X179102241Y-63133546D01*
X178950000Y-63501088D01*
X178797759Y-63133546D01*
X178516454Y-62852241D01*
X178148912Y-62700000D01*
X177751088Y-62700000D01*
X177383546Y-62852241D01*
X177102241Y-63133546D01*
X176950000Y-63501088D01*
X166867985Y-63501088D01*
X166841666Y-50375000D01*
X194983304Y-50375000D01*
X195818752Y-50449562D01*
X196611628Y-50666468D01*
X197353558Y-51020351D01*
X198021098Y-51500027D01*
X198593140Y-52090329D01*
X199051613Y-52772609D01*
X199382016Y-53525289D01*
X199574603Y-54327470D01*
X199625000Y-55013751D01*
X199625001Y-144983293D01*
X199550438Y-145818752D01*
X199333533Y-146611622D01*
X198979649Y-147353558D01*
X198499973Y-148021098D01*
X197909671Y-148593140D01*
X197227391Y-149051613D01*
X196474714Y-149382015D01*
X195672530Y-149574603D01*
X194986249Y-149625000D01*
X105016696Y-149625000D01*
X104181248Y-149550438D01*
X103388378Y-149333533D01*
X102646442Y-148979649D01*
X101978902Y-148499973D01*
X101406860Y-147909671D01*
X100948387Y-147227391D01*
X100617985Y-146474714D01*
X100425397Y-145672530D01*
X100375000Y-144986249D01*
X100375000Y-144704700D01*
X104254123Y-144704700D01*
X104254123Y-146404700D01*
X104277407Y-146521754D01*
X104343712Y-146620988D01*
X104442946Y-146687293D01*
X104560000Y-146710577D01*
X106260000Y-146710577D01*
X106377054Y-146687293D01*
X106476288Y-146620988D01*
X106542593Y-146521754D01*
X106565877Y-146404700D01*
X106565877Y-145554700D01*
X106777471Y-145554700D01*
X106866724Y-146003407D01*
X107120897Y-146383803D01*
X107501293Y-146637976D01*
X107836739Y-146704700D01*
X108063261Y-146704700D01*
X108398707Y-146637976D01*
X108779103Y-146383803D01*
X109033276Y-146003407D01*
X109122529Y-145554700D01*
X109317471Y-145554700D01*
X109406724Y-146003407D01*
X109660897Y-146383803D01*
X110041293Y-146637976D01*
X110376739Y-146704700D01*
X110603261Y-146704700D01*
X110938707Y-146637976D01*
X111319103Y-146383803D01*
X111573276Y-146003407D01*
X111662529Y-145554700D01*
X111573276Y-145105993D01*
X111319103Y-144725597D01*
X111287829Y-144704700D01*
X118541623Y-144704700D01*
X118541623Y-146404700D01*
X118564907Y-146521754D01*
X118631212Y-146620988D01*
X118730446Y-146687293D01*
X118847500Y-146710577D01*
X120547500Y-146710577D01*
X120664554Y-146687293D01*
X120763788Y-146620988D01*
X120830093Y-146521754D01*
X120853377Y-146404700D01*
X120853377Y-145554700D01*
X121064971Y-145554700D01*
X121154224Y-146003407D01*
X121408397Y-146383803D01*
X121788793Y-146637976D01*
X122124239Y-146704700D01*
X122350761Y-146704700D01*
X122686207Y-146637976D01*
X123066603Y-146383803D01*
X123320776Y-146003407D01*
X123410029Y-145554700D01*
X123604971Y-145554700D01*
X123694224Y-146003407D01*
X123948397Y-146383803D01*
X124328793Y-146637976D01*
X124664239Y-146704700D01*
X124890761Y-146704700D01*
X125226207Y-146637976D01*
X125606603Y-146383803D01*
X125860776Y-146003407D01*
X125950029Y-145554700D01*
X142591471Y-145554700D01*
X142680724Y-146003407D01*
X142934897Y-146383803D01*
X143315293Y-146637976D01*
X143650739Y-146704700D01*
X143877261Y-146704700D01*
X144212707Y-146637976D01*
X144593103Y-146383803D01*
X144847276Y-146003407D01*
X144936529Y-145554700D01*
X147671471Y-145554700D01*
X147760724Y-146003407D01*
X148014897Y-146383803D01*
X148395293Y-146637976D01*
X148730739Y-146704700D01*
X148957261Y-146704700D01*
X149292707Y-146637976D01*
X149673103Y-146383803D01*
X149927276Y-146003407D01*
X150016529Y-145554700D01*
X149927276Y-145105993D01*
X149673103Y-144725597D01*
X149641829Y-144704700D01*
X150228123Y-144704700D01*
X150228123Y-146404700D01*
X150251407Y-146521754D01*
X150317712Y-146620988D01*
X150416946Y-146687293D01*
X150534000Y-146710577D01*
X152234000Y-146710577D01*
X152351054Y-146687293D01*
X152450288Y-146620988D01*
X152516593Y-146521754D01*
X152539877Y-146404700D01*
X152539877Y-144704700D01*
X152516593Y-144587646D01*
X152450288Y-144488412D01*
X152351054Y-144422107D01*
X152234000Y-144398823D01*
X151784000Y-144398823D01*
X151784000Y-142456484D01*
X151892585Y-142347900D01*
X153072516Y-142347900D01*
X155789315Y-145064700D01*
X155761724Y-145105993D01*
X155672471Y-145554700D01*
X155761724Y-146003407D01*
X156015897Y-146383803D01*
X156396293Y-146637976D01*
X156731739Y-146704700D01*
X156958261Y-146704700D01*
X157293707Y-146637976D01*
X157674103Y-146383803D01*
X157928276Y-146003407D01*
X158017529Y-145554700D01*
X158212471Y-145554700D01*
X158301724Y-146003407D01*
X158555897Y-146383803D01*
X158936293Y-146637976D01*
X159271739Y-146704700D01*
X159498261Y-146704700D01*
X159833707Y-146637976D01*
X160214103Y-146383803D01*
X160468276Y-146003407D01*
X160557529Y-145554700D01*
X160752471Y-145554700D01*
X160841724Y-146003407D01*
X161095897Y-146383803D01*
X161476293Y-146637976D01*
X161811739Y-146704700D01*
X162038261Y-146704700D01*
X162373707Y-146637976D01*
X162754103Y-146383803D01*
X163008276Y-146003407D01*
X163097529Y-145554700D01*
X163008276Y-145105993D01*
X162754103Y-144725597D01*
X162373707Y-144471424D01*
X162038261Y-144404700D01*
X161811739Y-144404700D01*
X161476293Y-144471424D01*
X161095897Y-144725597D01*
X160841724Y-145105993D01*
X160752471Y-145554700D01*
X160557529Y-145554700D01*
X160468276Y-145105993D01*
X160214103Y-144725597D01*
X159833707Y-144471424D01*
X159498261Y-144404700D01*
X159271739Y-144404700D01*
X158936293Y-144471424D01*
X158555897Y-144725597D01*
X158301724Y-145105993D01*
X158212471Y-145554700D01*
X158017529Y-145554700D01*
X157928276Y-145105993D01*
X157674103Y-144725597D01*
X157293707Y-144471424D01*
X156958261Y-144404700D01*
X156731739Y-144404700D01*
X156396293Y-144471424D01*
X156355000Y-144499015D01*
X153548903Y-141692919D01*
X153526584Y-141659516D01*
X153394272Y-141571109D01*
X153277594Y-141547900D01*
X153238200Y-141540064D01*
X153198806Y-141547900D01*
X152126900Y-141547900D01*
X152126900Y-138701088D01*
X176950000Y-138701088D01*
X176950000Y-139098912D01*
X177102241Y-139466454D01*
X177383546Y-139747759D01*
X177751088Y-139900000D01*
X178148912Y-139900000D01*
X178516454Y-139747759D01*
X178797759Y-139466454D01*
X178950000Y-139098912D01*
X179102241Y-139466454D01*
X179383546Y-139747759D01*
X179751088Y-139900000D01*
X180148912Y-139900000D01*
X180516454Y-139747759D01*
X180797759Y-139466454D01*
X180950000Y-139098912D01*
X180950000Y-138701088D01*
X181450000Y-138701088D01*
X181450000Y-139098912D01*
X181602241Y-139466454D01*
X181883546Y-139747759D01*
X182251088Y-139900000D01*
X182648912Y-139900000D01*
X183016454Y-139747759D01*
X183297759Y-139466454D01*
X183450000Y-139098912D01*
X183450000Y-138701088D01*
X183297759Y-138333546D01*
X183016454Y-138052241D01*
X182648912Y-137900000D01*
X182251088Y-137900000D01*
X181883546Y-138052241D01*
X181602241Y-138333546D01*
X181450000Y-138701088D01*
X180950000Y-138701088D01*
X180797759Y-138333546D01*
X180516454Y-138052241D01*
X180148912Y-137900000D01*
X179751088Y-137900000D01*
X179383546Y-138052241D01*
X179102241Y-138333546D01*
X178950000Y-138701088D01*
X178797759Y-138333546D01*
X178516454Y-138052241D01*
X178148912Y-137900000D01*
X177751088Y-137900000D01*
X177383546Y-138052241D01*
X177102241Y-138333546D01*
X176950000Y-138701088D01*
X152126900Y-138701088D01*
X152126900Y-137545029D01*
X152235556Y-137436373D01*
X152326900Y-137215847D01*
X152326900Y-136977153D01*
X152235556Y-136756627D01*
X152066773Y-136587844D01*
X151846247Y-136496500D01*
X151607553Y-136496500D01*
X151387027Y-136587844D01*
X151218244Y-136756627D01*
X151126900Y-136977153D01*
X151126900Y-137215847D01*
X151218244Y-137436373D01*
X151326900Y-137545029D01*
X151326901Y-141782214D01*
X151129018Y-141980098D01*
X151095616Y-142002416D01*
X151027760Y-142103972D01*
X151007209Y-142134729D01*
X150976164Y-142290800D01*
X150984000Y-142330194D01*
X150984001Y-144398823D01*
X150534000Y-144398823D01*
X150416946Y-144422107D01*
X150317712Y-144488412D01*
X150251407Y-144587646D01*
X150228123Y-144704700D01*
X149641829Y-144704700D01*
X149292707Y-144471424D01*
X148957261Y-144404700D01*
X148730739Y-144404700D01*
X148395293Y-144471424D01*
X148014897Y-144725597D01*
X147760724Y-145105993D01*
X147671471Y-145554700D01*
X144936529Y-145554700D01*
X144847276Y-145105993D01*
X144593103Y-144725597D01*
X144212707Y-144471424D01*
X143877261Y-144404700D01*
X143650739Y-144404700D01*
X143315293Y-144471424D01*
X142934897Y-144725597D01*
X142680724Y-145105993D01*
X142591471Y-145554700D01*
X125950029Y-145554700D01*
X125860776Y-145105993D01*
X125606603Y-144725597D01*
X125226207Y-144471424D01*
X124890761Y-144404700D01*
X124664239Y-144404700D01*
X124328793Y-144471424D01*
X123948397Y-144725597D01*
X123694224Y-145105993D01*
X123604971Y-145554700D01*
X123410029Y-145554700D01*
X123320776Y-145105993D01*
X123066603Y-144725597D01*
X122686207Y-144471424D01*
X122350761Y-144404700D01*
X122124239Y-144404700D01*
X121788793Y-144471424D01*
X121408397Y-144725597D01*
X121154224Y-145105993D01*
X121064971Y-145554700D01*
X120853377Y-145554700D01*
X120853377Y-144704700D01*
X120830093Y-144587646D01*
X120763788Y-144488412D01*
X120664554Y-144422107D01*
X120547500Y-144398823D01*
X118847500Y-144398823D01*
X118730446Y-144422107D01*
X118631212Y-144488412D01*
X118564907Y-144587646D01*
X118541623Y-144704700D01*
X111287829Y-144704700D01*
X110938707Y-144471424D01*
X110603261Y-144404700D01*
X110376739Y-144404700D01*
X110041293Y-144471424D01*
X109660897Y-144725597D01*
X109406724Y-145105993D01*
X109317471Y-145554700D01*
X109122529Y-145554700D01*
X109033276Y-145105993D01*
X108779103Y-144725597D01*
X108398707Y-144471424D01*
X108063261Y-144404700D01*
X107836739Y-144404700D01*
X107501293Y-144471424D01*
X107120897Y-144725597D01*
X106866724Y-145105993D01*
X106777471Y-145554700D01*
X106565877Y-145554700D01*
X106565877Y-144704700D01*
X106542593Y-144587646D01*
X106476288Y-144488412D01*
X106377054Y-144422107D01*
X106260000Y-144398823D01*
X104560000Y-144398823D01*
X104442946Y-144422107D01*
X104343712Y-144488412D01*
X104277407Y-144587646D01*
X104254123Y-144704700D01*
X100375000Y-144704700D01*
X100375000Y-143404480D01*
X132108300Y-143404480D01*
X132108300Y-143653120D01*
X132203451Y-143882834D01*
X132379266Y-144058649D01*
X132608980Y-144153800D01*
X132857620Y-144153800D01*
X133087334Y-144058649D01*
X133263149Y-143882834D01*
X133358300Y-143653120D01*
X133358300Y-143404480D01*
X137888300Y-143404480D01*
X137888300Y-143653120D01*
X137983451Y-143882834D01*
X138159266Y-144058649D01*
X138388980Y-144153800D01*
X138637620Y-144153800D01*
X138867334Y-144058649D01*
X139043149Y-143882834D01*
X139138300Y-143653120D01*
X139138300Y-143404480D01*
X139043149Y-143174766D01*
X138867334Y-142998951D01*
X138637620Y-142903800D01*
X138388980Y-142903800D01*
X138159266Y-142998951D01*
X137983451Y-143174766D01*
X137888300Y-143404480D01*
X133358300Y-143404480D01*
X133263149Y-143174766D01*
X133087334Y-142998951D01*
X132857620Y-142903800D01*
X132608980Y-142903800D01*
X132379266Y-142998951D01*
X132203451Y-143174766D01*
X132108300Y-143404480D01*
X100375000Y-143404480D01*
X100375000Y-104508761D01*
X125677698Y-104508761D01*
X125677698Y-104787239D01*
X125784266Y-105044518D01*
X125981180Y-105241432D01*
X126238459Y-105348000D01*
X126476657Y-105348000D01*
X126506774Y-105378117D01*
X126506777Y-105378119D01*
X127349701Y-106221044D01*
X127349700Y-120516850D01*
X127181268Y-120685282D01*
X127074700Y-120942561D01*
X127074700Y-121221039D01*
X127181268Y-121478318D01*
X127378182Y-121675232D01*
X127635461Y-121781800D01*
X127913939Y-121781800D01*
X128171218Y-121675232D01*
X128368132Y-121478318D01*
X128474700Y-121221039D01*
X128474700Y-120942561D01*
X128368132Y-120685282D01*
X128199700Y-120516850D01*
X128199700Y-106086859D01*
X128208026Y-106045001D01*
X128175041Y-105879175D01*
X128104818Y-105774079D01*
X128081108Y-105738594D01*
X128045622Y-105714883D01*
X127107817Y-104777079D01*
X127107815Y-104777076D01*
X127077698Y-104746959D01*
X127077698Y-104508761D01*
X126971130Y-104251482D01*
X126774216Y-104054568D01*
X126516937Y-103948000D01*
X126238459Y-103948000D01*
X125981180Y-104054568D01*
X125784266Y-104251482D01*
X125677698Y-104508761D01*
X100375000Y-104508761D01*
X100375000Y-96786700D01*
X129894164Y-96786700D01*
X129902000Y-96826094D01*
X129902001Y-123058591D01*
X129894164Y-123097990D01*
X129925209Y-123254061D01*
X129925210Y-123254062D01*
X130013617Y-123386374D01*
X130047017Y-123408691D01*
X132842010Y-126203685D01*
X132842010Y-126357347D01*
X132933354Y-126577873D01*
X133102137Y-126746656D01*
X133322663Y-126838000D01*
X133561357Y-126838000D01*
X133781883Y-126746656D01*
X133950666Y-126577873D01*
X134042010Y-126357347D01*
X134042010Y-126118653D01*
X133950666Y-125898127D01*
X133781883Y-125729344D01*
X133561357Y-125638000D01*
X133407695Y-125638000D01*
X130702000Y-122932306D01*
X130702000Y-96984853D01*
X132788100Y-96984853D01*
X132788100Y-97223547D01*
X132879444Y-97444073D01*
X133048227Y-97612856D01*
X133268753Y-97704200D01*
X133422416Y-97704200D01*
X135515501Y-99797287D01*
X135515500Y-100262471D01*
X135406844Y-100371127D01*
X135315500Y-100591653D01*
X135315500Y-100830347D01*
X135406844Y-101050873D01*
X135575627Y-101219656D01*
X135796153Y-101311000D01*
X136034847Y-101311000D01*
X136255373Y-101219656D01*
X136424156Y-101050873D01*
X136515500Y-100830347D01*
X136515500Y-100591653D01*
X136424156Y-100371127D01*
X136315500Y-100262471D01*
X136315500Y-99670992D01*
X136323336Y-99631599D01*
X136315500Y-99592206D01*
X136292291Y-99475528D01*
X136203884Y-99343216D01*
X136170487Y-99320901D01*
X133988100Y-97138516D01*
X133988100Y-96984853D01*
X133896756Y-96764327D01*
X133727973Y-96595544D01*
X133507447Y-96504200D01*
X133268753Y-96504200D01*
X133048227Y-96595544D01*
X132879444Y-96764327D01*
X132788100Y-96984853D01*
X130702000Y-96984853D01*
X130702000Y-96952384D01*
X140021286Y-87633100D01*
X140174947Y-87633100D01*
X140279365Y-87589849D01*
X138238517Y-89630699D01*
X138205117Y-89653016D01*
X138142179Y-89747210D01*
X138116709Y-89785329D01*
X138085664Y-89941400D01*
X138093501Y-89980799D01*
X138093500Y-106741814D01*
X131653527Y-113181789D01*
X131620127Y-113204106D01*
X131561446Y-113291930D01*
X131531719Y-113336419D01*
X131500674Y-113492490D01*
X131508511Y-113531889D01*
X131508510Y-122406111D01*
X131500674Y-122445505D01*
X131528237Y-122584071D01*
X131531719Y-122601576D01*
X131620126Y-122733889D01*
X131653529Y-122756208D01*
X133613864Y-124716544D01*
X133613864Y-124870206D01*
X133705208Y-125090732D01*
X133873991Y-125259515D01*
X134094517Y-125350859D01*
X134333211Y-125350859D01*
X134553737Y-125259515D01*
X134722520Y-125090732D01*
X134813864Y-124870206D01*
X134813864Y-124815059D01*
X134927283Y-124815059D01*
X135147809Y-124723715D01*
X135316592Y-124554932D01*
X135407936Y-124334406D01*
X135407936Y-124285300D01*
X135526747Y-124285300D01*
X135747273Y-124193956D01*
X135916056Y-124025173D01*
X136007400Y-123804647D01*
X136007400Y-123565953D01*
X135916056Y-123345427D01*
X135747273Y-123176644D01*
X135526747Y-123085300D01*
X135373085Y-123085300D01*
X133610300Y-121322516D01*
X133610300Y-119564099D01*
X137914267Y-119564099D01*
X137922103Y-119603493D01*
X137922104Y-128478304D01*
X137914267Y-128517703D01*
X137945312Y-128673774D01*
X137945313Y-128673775D01*
X138033720Y-128806087D01*
X138067120Y-128828404D01*
X145472200Y-136233485D01*
X145472201Y-136800370D01*
X145363544Y-136909027D01*
X145272200Y-137129553D01*
X145272200Y-137368247D01*
X145363544Y-137588773D01*
X145532327Y-137757556D01*
X145752853Y-137848900D01*
X145991547Y-137848900D01*
X146212073Y-137757556D01*
X146380856Y-137588773D01*
X146472200Y-137368247D01*
X146472200Y-137129553D01*
X146380856Y-136909027D01*
X146272200Y-136800371D01*
X146272200Y-136334986D01*
X147215300Y-137278086D01*
X147215300Y-137431747D01*
X147306644Y-137652273D01*
X147475427Y-137821056D01*
X147695953Y-137912400D01*
X147934647Y-137912400D01*
X148155173Y-137821056D01*
X148323956Y-137652273D01*
X148415300Y-137431747D01*
X148415300Y-137193053D01*
X148323956Y-136972527D01*
X148155173Y-136803744D01*
X147934647Y-136712400D01*
X147780986Y-136712400D01*
X139211000Y-128142416D01*
X139211000Y-120751753D01*
X139608000Y-120751753D01*
X139608000Y-120990447D01*
X139699344Y-121210973D01*
X139808000Y-121319629D01*
X139808000Y-121334757D01*
X139808001Y-121334762D01*
X139808000Y-122388606D01*
X139800164Y-122428000D01*
X139808000Y-122467393D01*
X139831209Y-122584071D01*
X139919616Y-122716384D01*
X139953019Y-122738703D01*
X144634399Y-127420084D01*
X144656716Y-127453484D01*
X144789028Y-127541891D01*
X144905706Y-127565100D01*
X144905707Y-127565100D01*
X144945099Y-127572936D01*
X144984492Y-127565100D01*
X146236471Y-127565100D01*
X146345127Y-127673756D01*
X146565653Y-127765100D01*
X146804347Y-127765100D01*
X147024873Y-127673756D01*
X147193656Y-127504973D01*
X147285000Y-127284447D01*
X147285000Y-127130784D01*
X148128964Y-126286821D01*
X153030463Y-126286821D01*
X153038300Y-126326220D01*
X153038299Y-132682665D01*
X153030463Y-132722059D01*
X153038299Y-132761452D01*
X153061508Y-132878130D01*
X153149915Y-133010443D01*
X153183318Y-133032762D01*
X156092339Y-135941784D01*
X156114656Y-135975184D01*
X156246968Y-136063591D01*
X156403040Y-136094636D01*
X156442434Y-136086800D01*
X169282086Y-136086800D01*
X169321480Y-136094636D01*
X169360874Y-136086800D01*
X169477552Y-136063591D01*
X169609864Y-135975184D01*
X169632183Y-135941781D01*
X171644029Y-133929937D01*
X171677426Y-133907622D01*
X171765833Y-133775310D01*
X171789042Y-133658632D01*
X171796878Y-133619239D01*
X171789042Y-133579846D01*
X171789042Y-114180653D01*
X172247000Y-114180653D01*
X172247000Y-114419347D01*
X172338344Y-114639873D01*
X172507127Y-114808656D01*
X172727653Y-114900000D01*
X172881315Y-114900000D01*
X172892012Y-114910697D01*
X172892015Y-114910699D01*
X173590001Y-115608687D01*
X173590000Y-118249115D01*
X173186116Y-118653000D01*
X173032453Y-118653000D01*
X172811927Y-118744344D01*
X172643144Y-118913127D01*
X172551800Y-119133653D01*
X172551800Y-119372347D01*
X172643144Y-119592873D01*
X172811927Y-119761656D01*
X173032453Y-119853000D01*
X173271147Y-119853000D01*
X173491673Y-119761656D01*
X173660456Y-119592873D01*
X173751800Y-119372347D01*
X173751800Y-119218684D01*
X174244985Y-118725500D01*
X174278384Y-118703184D01*
X174366791Y-118570872D01*
X174390000Y-118454194D01*
X174390000Y-118454193D01*
X174397836Y-118414800D01*
X174390000Y-118375406D01*
X174390000Y-115482392D01*
X174397836Y-115442999D01*
X174390000Y-115403606D01*
X174366791Y-115286928D01*
X174278384Y-115154616D01*
X174244987Y-115132301D01*
X173457699Y-114345015D01*
X173457697Y-114345012D01*
X173447000Y-114334315D01*
X173447000Y-114180653D01*
X173355656Y-113960127D01*
X173186873Y-113791344D01*
X172966347Y-113700000D01*
X172727653Y-113700000D01*
X172507127Y-113791344D01*
X172338344Y-113960127D01*
X172247000Y-114180653D01*
X171789042Y-114180653D01*
X171789042Y-113544569D01*
X171897698Y-113435913D01*
X171989042Y-113215387D01*
X171989042Y-113007788D01*
X176950000Y-113007788D01*
X176950000Y-113405612D01*
X177102241Y-113773154D01*
X177383546Y-114054459D01*
X177751088Y-114206700D01*
X178148912Y-114206700D01*
X178516454Y-114054459D01*
X178797759Y-113773154D01*
X178950000Y-113405612D01*
X179102241Y-113773154D01*
X179383546Y-114054459D01*
X179751088Y-114206700D01*
X180148912Y-114206700D01*
X180516454Y-114054459D01*
X180797759Y-113773154D01*
X180950000Y-113405612D01*
X180950000Y-113007788D01*
X181450000Y-113007788D01*
X181450000Y-113405612D01*
X181602241Y-113773154D01*
X181883546Y-114054459D01*
X182251088Y-114206700D01*
X182648912Y-114206700D01*
X183016454Y-114054459D01*
X183297759Y-113773154D01*
X183450000Y-113405612D01*
X183450000Y-113007788D01*
X183297759Y-112640246D01*
X183016454Y-112358941D01*
X182648912Y-112206700D01*
X182251088Y-112206700D01*
X181883546Y-112358941D01*
X181602241Y-112640246D01*
X181450000Y-113007788D01*
X180950000Y-113007788D01*
X180797759Y-112640246D01*
X180516454Y-112358941D01*
X180148912Y-112206700D01*
X179751088Y-112206700D01*
X179383546Y-112358941D01*
X179102241Y-112640246D01*
X178950000Y-113007788D01*
X178797759Y-112640246D01*
X178516454Y-112358941D01*
X178148912Y-112206700D01*
X177751088Y-112206700D01*
X177383546Y-112358941D01*
X177102241Y-112640246D01*
X176950000Y-113007788D01*
X171989042Y-113007788D01*
X171989042Y-112976693D01*
X171897698Y-112756167D01*
X171728915Y-112587384D01*
X171508389Y-112496040D01*
X171269695Y-112496040D01*
X171049169Y-112587384D01*
X170880386Y-112756167D01*
X170789042Y-112976693D01*
X170789042Y-113215387D01*
X170880386Y-113435913D01*
X170989042Y-113544569D01*
X170989043Y-133453551D01*
X169155796Y-135286800D01*
X156568725Y-135286800D01*
X153838299Y-132556375D01*
X153838299Y-126452506D01*
X154138606Y-126152200D01*
X154292267Y-126152200D01*
X154512793Y-126060856D01*
X154681576Y-125892073D01*
X154772920Y-125671547D01*
X154772920Y-125432853D01*
X154681576Y-125212327D01*
X154512793Y-125043544D01*
X154292267Y-124952200D01*
X154053573Y-124952200D01*
X153833047Y-125043544D01*
X153664264Y-125212327D01*
X153572920Y-125432853D01*
X153572920Y-125586514D01*
X153183315Y-125976121D01*
X153149916Y-125998437D01*
X153094130Y-126081928D01*
X153061508Y-126130750D01*
X153030463Y-126286821D01*
X148128964Y-126286821D01*
X148619186Y-125796600D01*
X148772847Y-125796600D01*
X148993373Y-125705256D01*
X149162156Y-125536473D01*
X149253500Y-125315947D01*
X149253500Y-125077253D01*
X149162156Y-124856727D01*
X148993373Y-124687944D01*
X148772847Y-124596600D01*
X148534153Y-124596600D01*
X148313627Y-124687944D01*
X148144844Y-124856727D01*
X148053500Y-125077253D01*
X148053500Y-125230914D01*
X146719316Y-126565100D01*
X146565653Y-126565100D01*
X146345127Y-126656444D01*
X146236471Y-126765100D01*
X145110785Y-126765100D01*
X141047438Y-122701753D01*
X147977300Y-122701753D01*
X147977300Y-122940447D01*
X148068644Y-123160973D01*
X148237427Y-123329756D01*
X148457953Y-123421100D01*
X148696647Y-123421100D01*
X148917173Y-123329756D01*
X149025829Y-123221100D01*
X150430316Y-123221100D01*
X151571400Y-124362185D01*
X151571400Y-124515847D01*
X151662744Y-124736373D01*
X151831527Y-124905156D01*
X152052053Y-124996500D01*
X152290747Y-124996500D01*
X152511273Y-124905156D01*
X152680056Y-124736373D01*
X152771400Y-124515847D01*
X152771400Y-124277153D01*
X152680056Y-124056627D01*
X152578529Y-123955100D01*
X152684447Y-123955100D01*
X152904973Y-123863756D01*
X153073756Y-123694973D01*
X153165100Y-123474447D01*
X153165100Y-123437333D01*
X153317982Y-123590215D01*
X153538508Y-123681559D01*
X153777202Y-123681559D01*
X153997728Y-123590215D01*
X154166511Y-123421432D01*
X154257855Y-123200906D01*
X154257855Y-122962212D01*
X154238075Y-122914458D01*
X154380713Y-122855376D01*
X154549496Y-122686593D01*
X154640840Y-122466067D01*
X154640840Y-122227373D01*
X154549496Y-122006847D01*
X154380713Y-121838064D01*
X154209700Y-121767229D01*
X154209700Y-119104629D01*
X154318356Y-118995973D01*
X154409700Y-118775447D01*
X154409700Y-118536753D01*
X154318356Y-118316227D01*
X154149573Y-118147444D01*
X153929047Y-118056100D01*
X153690353Y-118056100D01*
X153609600Y-118089549D01*
X153609600Y-118066853D01*
X153518256Y-117846327D01*
X153349473Y-117677544D01*
X153128947Y-117586200D01*
X152890253Y-117586200D01*
X152669727Y-117677544D01*
X152500944Y-117846327D01*
X152409600Y-118066853D01*
X152409600Y-118305547D01*
X152500944Y-118526073D01*
X152609600Y-118634729D01*
X152609601Y-122393906D01*
X152601764Y-122433304D01*
X152632809Y-122589375D01*
X152640962Y-122601577D01*
X152721217Y-122721688D01*
X152754616Y-122744004D01*
X152823173Y-122812562D01*
X152684447Y-122755100D01*
X152445753Y-122755100D01*
X152225227Y-122846444D01*
X152131578Y-122940093D01*
X150373903Y-121182419D01*
X150351584Y-121149016D01*
X150219272Y-121060609D01*
X150102594Y-121037400D01*
X150063200Y-121029564D01*
X150023806Y-121037400D01*
X149686229Y-121037400D01*
X149628373Y-120979544D01*
X149407847Y-120888200D01*
X149169153Y-120888200D01*
X148948627Y-120979544D01*
X148779844Y-121148327D01*
X148688500Y-121368853D01*
X148688500Y-121607547D01*
X148779844Y-121828073D01*
X148948627Y-121996856D01*
X149169153Y-122088200D01*
X149407847Y-122088200D01*
X149628373Y-121996856D01*
X149787829Y-121837400D01*
X149897516Y-121837400D01*
X150481215Y-122421100D01*
X149025829Y-122421100D01*
X148917173Y-122312444D01*
X148696647Y-122221100D01*
X148457953Y-122221100D01*
X148237427Y-122312444D01*
X148068644Y-122481227D01*
X147977300Y-122701753D01*
X141047438Y-122701753D01*
X140608000Y-122262316D01*
X140608000Y-121319629D01*
X140716656Y-121210973D01*
X140808000Y-120990447D01*
X140808000Y-120751753D01*
X140716656Y-120531227D01*
X140547873Y-120362444D01*
X140327347Y-120271100D01*
X140088653Y-120271100D01*
X139868127Y-120362444D01*
X139699344Y-120531227D01*
X139608000Y-120751753D01*
X139211000Y-120751753D01*
X139211000Y-120688684D01*
X139607500Y-120292185D01*
X139775920Y-120292185D01*
X139996446Y-120200841D01*
X140165229Y-120032058D01*
X140256573Y-119811532D01*
X140256573Y-119572838D01*
X140165229Y-119352312D01*
X139996446Y-119183529D01*
X139775920Y-119092185D01*
X139537226Y-119092185D01*
X139322102Y-119181291D01*
X139322102Y-119044753D01*
X139230758Y-118824227D01*
X139061975Y-118655444D01*
X138841449Y-118564100D01*
X138602755Y-118564100D01*
X138382229Y-118655444D01*
X138213446Y-118824227D01*
X138122102Y-119044753D01*
X138122102Y-119198416D01*
X138067121Y-119253397D01*
X138033719Y-119275715D01*
X137982540Y-119352312D01*
X137945312Y-119408028D01*
X137914267Y-119564099D01*
X133610300Y-119564099D01*
X133610300Y-114231453D01*
X140027100Y-114231453D01*
X140027100Y-114470147D01*
X140118444Y-114690673D01*
X140287227Y-114859456D01*
X140507753Y-114950800D01*
X140556701Y-114950800D01*
X140556700Y-115731071D01*
X140448044Y-115839727D01*
X140356700Y-116060253D01*
X140356700Y-116298947D01*
X140448044Y-116519473D01*
X140616827Y-116688256D01*
X140837353Y-116779600D01*
X141076047Y-116779600D01*
X141296573Y-116688256D01*
X141465356Y-116519473D01*
X141556700Y-116298947D01*
X141556700Y-116060253D01*
X141465356Y-115839727D01*
X141356700Y-115731071D01*
X141356700Y-114719794D01*
X141364536Y-114680400D01*
X141333491Y-114524328D01*
X141321827Y-114506871D01*
X141245084Y-114392016D01*
X141227100Y-114380000D01*
X141227100Y-114231453D01*
X141135756Y-114010927D01*
X140966973Y-113842144D01*
X140746447Y-113750800D01*
X140507753Y-113750800D01*
X140287227Y-113842144D01*
X140118444Y-114010927D01*
X140027100Y-114231453D01*
X133610300Y-114231453D01*
X133610300Y-113495778D01*
X133828878Y-113277201D01*
X133862278Y-113254884D01*
X133884597Y-113221481D01*
X136258725Y-110847353D01*
X146707300Y-110847353D01*
X146707300Y-111086047D01*
X146798644Y-111306573D01*
X146883771Y-111391700D01*
X146798644Y-111476827D01*
X146707300Y-111697353D01*
X146707300Y-111936047D01*
X146798644Y-112156573D01*
X146967427Y-112325356D01*
X147187953Y-112416700D01*
X147426647Y-112416700D01*
X147647173Y-112325356D01*
X147815956Y-112156573D01*
X147873893Y-112016700D01*
X149634405Y-112016700D01*
X149673799Y-112024536D01*
X149713193Y-112016700D01*
X149829871Y-111993491D01*
X149962183Y-111905084D01*
X149984501Y-111871682D01*
X150129900Y-111726284D01*
X150269774Y-111784221D01*
X150508468Y-111784221D01*
X150728994Y-111692877D01*
X150897777Y-111524094D01*
X150989121Y-111303568D01*
X150989121Y-111064874D01*
X150897777Y-110844348D01*
X150728994Y-110675565D01*
X150508468Y-110584221D01*
X150388079Y-110584221D01*
X150388079Y-110463832D01*
X150296735Y-110243306D01*
X150127952Y-110074523D01*
X149907426Y-109983179D01*
X149668732Y-109983179D01*
X149448206Y-110074523D01*
X149279423Y-110243306D01*
X149188079Y-110463832D01*
X149188079Y-110702526D01*
X149214660Y-110766700D01*
X147873893Y-110766700D01*
X147815956Y-110626827D01*
X147647173Y-110458044D01*
X147426647Y-110366700D01*
X147187953Y-110366700D01*
X146967427Y-110458044D01*
X146798644Y-110626827D01*
X146707300Y-110847353D01*
X136258725Y-110847353D01*
X139967684Y-107138395D01*
X140001084Y-107116078D01*
X140089491Y-106983766D01*
X140112700Y-106867088D01*
X140120536Y-106827694D01*
X140112700Y-106788300D01*
X140112700Y-102536435D01*
X140241053Y-102589600D01*
X140479747Y-102589600D01*
X140700273Y-102498256D01*
X140783929Y-102414600D01*
X140815260Y-102414600D01*
X142363900Y-103963241D01*
X142363900Y-104081547D01*
X142455244Y-104302073D01*
X142624027Y-104470856D01*
X142844553Y-104562200D01*
X143083247Y-104562200D01*
X143303773Y-104470856D01*
X143387429Y-104387200D01*
X145081043Y-104387200D01*
X145122900Y-104395526D01*
X145164757Y-104387200D01*
X145164758Y-104387200D01*
X145288727Y-104362541D01*
X145429308Y-104268608D01*
X145453021Y-104233119D01*
X147369139Y-102317002D01*
X147487445Y-102317002D01*
X147707971Y-102225658D01*
X147876754Y-102056875D01*
X147968098Y-101836349D01*
X147968098Y-101597655D01*
X147876754Y-101377129D01*
X147707971Y-101208346D01*
X147487445Y-101117002D01*
X147248751Y-101117002D01*
X147028225Y-101208346D01*
X146859442Y-101377129D01*
X146768098Y-101597655D01*
X146768098Y-101715961D01*
X144946860Y-103537200D01*
X143387429Y-103537200D01*
X143303773Y-103453544D01*
X143083247Y-103362200D01*
X142964941Y-103362200D01*
X141321421Y-101718681D01*
X141297708Y-101683192D01*
X141157127Y-101589259D01*
X141033158Y-101564600D01*
X141033157Y-101564600D01*
X140991300Y-101556274D01*
X140949443Y-101564600D01*
X140783929Y-101564600D01*
X140700273Y-101480944D01*
X140479747Y-101389600D01*
X140241053Y-101389600D01*
X140112700Y-101442765D01*
X140112700Y-90593924D01*
X140871723Y-89834902D01*
X141025385Y-89834902D01*
X141245911Y-89743558D01*
X141414694Y-89574775D01*
X141506038Y-89354249D01*
X141506038Y-89115555D01*
X141456186Y-88995200D01*
X143673806Y-88995200D01*
X143713200Y-89003036D01*
X143752594Y-88995200D01*
X143869272Y-88971991D01*
X144001584Y-88883584D01*
X144023903Y-88850182D01*
X144199584Y-88674500D01*
X144353247Y-88674500D01*
X144573773Y-88583156D01*
X144742556Y-88414373D01*
X144833900Y-88193847D01*
X144833900Y-87955153D01*
X144742556Y-87734627D01*
X144573773Y-87565844D01*
X144353247Y-87474500D01*
X144114553Y-87474500D01*
X143894027Y-87565844D01*
X143725244Y-87734627D01*
X143633900Y-87955153D01*
X143633900Y-88108816D01*
X143547516Y-88195200D01*
X140805386Y-88195200D01*
X140910286Y-88090300D01*
X141063947Y-88090300D01*
X141284473Y-87998956D01*
X141453256Y-87830173D01*
X141544600Y-87609647D01*
X141544600Y-87370953D01*
X141453256Y-87150427D01*
X141284473Y-86981644D01*
X141063947Y-86890300D01*
X140825253Y-86890300D01*
X140655600Y-86960572D01*
X140655600Y-86913753D01*
X140564256Y-86693227D01*
X140395473Y-86524444D01*
X140174947Y-86433100D01*
X139936253Y-86433100D01*
X139715727Y-86524444D01*
X139546944Y-86693227D01*
X139455600Y-86913753D01*
X139455600Y-87067414D01*
X130047019Y-96475997D01*
X130013616Y-96498316D01*
X129948652Y-96595544D01*
X129925209Y-96630629D01*
X129894164Y-96786700D01*
X100375000Y-96786700D01*
X100375000Y-88443261D01*
X133793000Y-88443261D01*
X133793000Y-88721739D01*
X133899568Y-88979018D01*
X134096482Y-89175932D01*
X134353761Y-89282500D01*
X134632239Y-89282500D01*
X134889518Y-89175932D01*
X135086432Y-88979018D01*
X135193000Y-88721739D01*
X135193000Y-88443261D01*
X135086432Y-88185982D01*
X134918000Y-88017550D01*
X134918000Y-81798940D01*
X147610341Y-69106600D01*
X150979360Y-69106600D01*
X152364795Y-70492036D01*
X152265529Y-70425709D01*
X152148851Y-70402500D01*
X152109457Y-70394664D01*
X152070063Y-70402500D01*
X150293092Y-70402500D01*
X150253699Y-70394664D01*
X150214306Y-70402500D01*
X150097628Y-70425709D01*
X149965316Y-70514116D01*
X149943001Y-70547513D01*
X145160019Y-75330497D01*
X145126616Y-75352816D01*
X145041420Y-75480323D01*
X145038209Y-75485129D01*
X145007164Y-75641200D01*
X145015000Y-75680594D01*
X145015001Y-88436338D01*
X145015000Y-88436343D01*
X145015000Y-88451471D01*
X144906344Y-88560127D01*
X144815000Y-88780653D01*
X144815000Y-89019347D01*
X144906344Y-89239873D01*
X145075127Y-89408656D01*
X145295653Y-89500000D01*
X145534347Y-89500000D01*
X145754873Y-89408656D01*
X145758065Y-89405464D01*
X145867988Y-89515387D01*
X146065023Y-89597001D01*
X141690391Y-89597001D01*
X141650998Y-89589165D01*
X141611606Y-89597001D01*
X141611605Y-89597001D01*
X141494927Y-89620210D01*
X141362615Y-89708617D01*
X141340298Y-89742018D01*
X141269014Y-89813302D01*
X141269012Y-89813303D01*
X141258315Y-89824000D01*
X141104653Y-89824000D01*
X140884127Y-89915344D01*
X140715344Y-90084127D01*
X140624000Y-90304653D01*
X140624000Y-90543347D01*
X140699591Y-90725841D01*
X140698455Y-90726311D01*
X140529672Y-90895094D01*
X140438328Y-91115620D01*
X140438328Y-91354314D01*
X140529672Y-91574840D01*
X140698455Y-91743623D01*
X140918981Y-91834967D01*
X141157675Y-91834967D01*
X141378201Y-91743623D01*
X141486857Y-91634967D01*
X147457283Y-91634967D01*
X149068841Y-93246526D01*
X149068841Y-95024311D01*
X148968427Y-94982719D01*
X148729733Y-94982719D01*
X148509207Y-95074063D01*
X148340424Y-95242846D01*
X148249080Y-95463372D01*
X148249080Y-95702066D01*
X148340424Y-95922592D01*
X148449080Y-96031248D01*
X148449081Y-100346230D01*
X148360184Y-100435127D01*
X148268840Y-100655653D01*
X148268840Y-100894347D01*
X148360184Y-101114873D01*
X148528967Y-101283656D01*
X148749493Y-101375000D01*
X148988187Y-101375000D01*
X149068840Y-101341593D01*
X149068840Y-106791154D01*
X148662395Y-107197600D01*
X148508733Y-107197600D01*
X148288207Y-107288944D01*
X148119424Y-107457727D01*
X148028080Y-107678253D01*
X148028080Y-107916947D01*
X148119424Y-108137473D01*
X148288207Y-108306256D01*
X148508733Y-108397600D01*
X148747427Y-108397600D01*
X148967953Y-108306256D01*
X149136736Y-108137473D01*
X149228080Y-107916947D01*
X149228080Y-107763285D01*
X149468851Y-107522514D01*
X149468851Y-108173457D01*
X149461015Y-108212851D01*
X149468851Y-108252244D01*
X149492060Y-108368922D01*
X149580467Y-108501235D01*
X149613870Y-108523554D01*
X152435000Y-111344685D01*
X152435000Y-111498347D01*
X152526344Y-111718873D01*
X152695127Y-111887656D01*
X152915653Y-111979000D01*
X153154347Y-111979000D01*
X153374873Y-111887656D01*
X153543656Y-111718873D01*
X153635000Y-111498347D01*
X153635000Y-111259653D01*
X153543656Y-111039127D01*
X153450195Y-110945666D01*
X153628873Y-110871656D01*
X153797656Y-110702873D01*
X153889000Y-110482347D01*
X153889000Y-110243653D01*
X153797656Y-110023127D01*
X153628873Y-109854344D01*
X153408347Y-109763000D01*
X153169653Y-109763000D01*
X152949127Y-109854344D01*
X152840471Y-109963000D01*
X152776422Y-109963000D01*
X151655924Y-108842503D01*
X151856718Y-108759332D01*
X152053632Y-108562418D01*
X152160200Y-108305139D01*
X152160200Y-108026661D01*
X152053632Y-107769382D01*
X151990103Y-107705853D01*
X152184561Y-107786400D01*
X152463039Y-107786400D01*
X152720318Y-107679832D01*
X152917232Y-107482918D01*
X153023800Y-107225639D01*
X153023800Y-106947161D01*
X152917232Y-106689882D01*
X152748800Y-106521450D01*
X152748800Y-99453633D01*
X152859737Y-99499584D01*
X153098431Y-99499584D01*
X153318957Y-99408240D01*
X153487740Y-99239457D01*
X153579084Y-99018931D01*
X153579084Y-98865268D01*
X154153584Y-98290769D01*
X154186984Y-98268452D01*
X154275391Y-98136140D01*
X154298600Y-98019462D01*
X154306436Y-97980068D01*
X154298600Y-97940674D01*
X154298600Y-96968529D01*
X154407256Y-96859873D01*
X154498600Y-96639347D01*
X154498600Y-96400653D01*
X154407256Y-96180127D01*
X154298600Y-96071471D01*
X154298600Y-90981728D01*
X154369156Y-90911172D01*
X154460500Y-90690646D01*
X154460500Y-90451952D01*
X154369156Y-90231426D01*
X154200373Y-90062643D01*
X153979847Y-89971299D01*
X153741153Y-89971299D01*
X153520627Y-90062643D01*
X153351844Y-90231426D01*
X153260500Y-90451952D01*
X153260500Y-90690646D01*
X153351844Y-90911172D01*
X153498601Y-91057929D01*
X153498600Y-96071471D01*
X153389944Y-96180127D01*
X153298600Y-96400653D01*
X153298600Y-96639347D01*
X153389944Y-96859873D01*
X153498600Y-96968529D01*
X153498601Y-97814382D01*
X153013400Y-98299584D01*
X152859737Y-98299584D01*
X152748800Y-98345535D01*
X152748800Y-76452240D01*
X153291641Y-75909400D01*
X153529839Y-75909400D01*
X153787118Y-75802832D01*
X153984032Y-75605918D01*
X154090600Y-75348639D01*
X154090600Y-75070161D01*
X153984032Y-74812882D01*
X153787118Y-74615968D01*
X153529839Y-74509400D01*
X153251361Y-74509400D01*
X152994082Y-74615968D01*
X152797168Y-74812882D01*
X152690600Y-75070161D01*
X152690600Y-75308359D01*
X152052879Y-75946081D01*
X152017393Y-75969792D01*
X151993682Y-76005278D01*
X151923459Y-76110374D01*
X151890474Y-76276200D01*
X151898801Y-76318062D01*
X151898800Y-106521450D01*
X151885200Y-106535050D01*
X151885200Y-73289940D01*
X151983540Y-73191600D01*
X152221739Y-73191600D01*
X152479018Y-73085032D01*
X152675932Y-72888118D01*
X152782500Y-72630839D01*
X152782500Y-72352361D01*
X152675932Y-72095082D01*
X152479018Y-71898168D01*
X152221739Y-71791600D01*
X151943261Y-71791600D01*
X151685982Y-71898168D01*
X151489068Y-72095082D01*
X151382500Y-72352361D01*
X151382500Y-72590560D01*
X151189279Y-72783781D01*
X151153793Y-72807492D01*
X151130082Y-72842978D01*
X151059859Y-72948074D01*
X151026874Y-73113900D01*
X151035201Y-73155762D01*
X151035200Y-107600950D01*
X150866768Y-107769382D01*
X150783597Y-107970176D01*
X150704500Y-107891080D01*
X150704500Y-90018892D01*
X150712336Y-89979499D01*
X150696921Y-89902006D01*
X150681291Y-89823428D01*
X150592884Y-89691116D01*
X150559487Y-89668801D01*
X149642433Y-88751749D01*
X149620115Y-88718347D01*
X149487803Y-88629940D01*
X149371125Y-88606731D01*
X149331731Y-88598895D01*
X149292337Y-88606731D01*
X146656390Y-88606731D01*
X146547734Y-88498075D01*
X146349606Y-88416008D01*
X146454836Y-88372421D01*
X146467057Y-88360200D01*
X149311381Y-88360200D01*
X149420037Y-88468856D01*
X149640563Y-88560200D01*
X149879257Y-88560200D01*
X150099783Y-88468856D01*
X150268566Y-88300073D01*
X150359910Y-88079547D01*
X150359910Y-87840853D01*
X150268566Y-87620327D01*
X150099783Y-87451544D01*
X149879257Y-87360200D01*
X149640563Y-87360200D01*
X149420037Y-87451544D01*
X149311381Y-87560200D01*
X146638658Y-87560200D01*
X146623619Y-87523892D01*
X146454836Y-87355109D01*
X146234310Y-87263765D01*
X145995616Y-87263765D01*
X145815000Y-87338578D01*
X145815000Y-75806884D01*
X150419386Y-71202500D01*
X151943773Y-71202500D01*
X153385858Y-72644586D01*
X153385858Y-72798248D01*
X153477202Y-73018774D01*
X153645985Y-73187557D01*
X153866511Y-73278901D01*
X154105205Y-73278901D01*
X154325731Y-73187557D01*
X154494514Y-73018774D01*
X154585858Y-72798248D01*
X154585858Y-72559554D01*
X154494514Y-72339028D01*
X154412475Y-72256989D01*
X154498318Y-72221432D01*
X154695232Y-72024518D01*
X154801800Y-71767239D01*
X154801800Y-71488761D01*
X154695232Y-71231482D01*
X154498318Y-71034568D01*
X154241039Y-70928000D01*
X154002841Y-70928000D01*
X151485521Y-68410681D01*
X151461808Y-68375192D01*
X151321227Y-68281259D01*
X151197258Y-68256600D01*
X151197257Y-68256600D01*
X151155400Y-68248274D01*
X151113543Y-68256600D01*
X147476157Y-68256600D01*
X147434300Y-68248274D01*
X147392442Y-68256600D01*
X147268473Y-68281259D01*
X147127892Y-68375192D01*
X147104181Y-68410678D01*
X134222081Y-81292779D01*
X134186592Y-81316492D01*
X134092660Y-81457073D01*
X134092659Y-81457074D01*
X134059674Y-81622900D01*
X134068000Y-81664757D01*
X134068001Y-87974953D01*
X134068000Y-87974958D01*
X134068000Y-88017550D01*
X133899568Y-88185982D01*
X133793000Y-88443261D01*
X100375000Y-88443261D01*
X100375000Y-63934842D01*
X100851205Y-63934842D01*
X100851205Y-64081158D01*
X100899541Y-64324163D01*
X100955534Y-64459342D01*
X100955535Y-64459343D01*
X101093186Y-64665352D01*
X101196648Y-64768814D01*
X101402657Y-64906465D01*
X101402658Y-64906466D01*
X101537838Y-64962459D01*
X101780842Y-65010795D01*
X101780847Y-65010795D01*
X101817069Y-65018000D01*
X133767931Y-65018000D01*
X133804153Y-65010795D01*
X133804158Y-65010795D01*
X134047163Y-64962459D01*
X134182342Y-64906466D01*
X134182343Y-64906465D01*
X134388352Y-64768814D01*
X134491814Y-64665352D01*
X134629465Y-64459343D01*
X134629466Y-64459342D01*
X134685459Y-64324162D01*
X134733795Y-64081158D01*
X134733795Y-63934840D01*
X134733794Y-63934838D01*
X134685459Y-63691838D01*
X134629466Y-63556658D01*
X134629464Y-63556656D01*
X134491814Y-63350648D01*
X134388352Y-63247186D01*
X134182343Y-63109535D01*
X134182342Y-63109534D01*
X134047163Y-63053541D01*
X133804158Y-63005205D01*
X133804153Y-63005205D01*
X133767931Y-62998000D01*
X101817069Y-62998000D01*
X101780847Y-63005205D01*
X101780842Y-63005205D01*
X101537838Y-63053541D01*
X101402658Y-63109534D01*
X101402657Y-63109535D01*
X101196648Y-63247186D01*
X101093186Y-63350648D01*
X100955536Y-63556656D01*
X100955534Y-63556658D01*
X100899541Y-63691837D01*
X100851205Y-63934842D01*
X100375000Y-63934842D01*
X100375000Y-60705400D01*
X108303391Y-60705400D01*
X108396525Y-61173617D01*
X108661748Y-61570552D01*
X109058683Y-61835775D01*
X109408712Y-61905400D01*
X111845088Y-61905400D01*
X112195117Y-61835775D01*
X112592052Y-61570552D01*
X112857275Y-61173617D01*
X112950409Y-60705400D01*
X112857275Y-60237183D01*
X112592052Y-59840248D01*
X112195117Y-59575025D01*
X111845088Y-59505400D01*
X109408712Y-59505400D01*
X109058683Y-59575025D01*
X108661748Y-59840248D01*
X108396525Y-60237183D01*
X108303391Y-60705400D01*
X100375000Y-60705400D01*
X100375000Y-53705400D01*
X112319064Y-53705400D01*
X112319064Y-58105400D01*
X112350109Y-58261472D01*
X112438516Y-58393784D01*
X112570828Y-58482191D01*
X112726900Y-58513236D01*
X114526900Y-58513236D01*
X114682972Y-58482191D01*
X114815284Y-58393784D01*
X114903691Y-58261472D01*
X114934736Y-58105400D01*
X114934736Y-53705400D01*
X114903691Y-53549328D01*
X114815284Y-53417016D01*
X114682972Y-53328609D01*
X114526900Y-53297564D01*
X112726900Y-53297564D01*
X112570828Y-53328609D01*
X112438516Y-53417016D01*
X112350109Y-53549328D01*
X112319064Y-53705400D01*
X100375000Y-53705400D01*
X100375000Y-52026718D01*
X100443989Y-51544989D01*
X100634237Y-51126559D01*
X100934280Y-50778343D01*
X101319997Y-50528334D01*
X101772796Y-50392918D01*
X102013916Y-50375000D01*
X143448572Y-50375000D01*
X143400002Y-63148859D01*
X143400002Y-63148859D01*
G37*
X143400002Y-63148859D02*
X143422886Y-63264926D01*
X143487960Y-63362224D01*
X143585315Y-63427214D01*
X143700130Y-63450000D01*
X157590600Y-63443960D01*
X157729150Y-112518900D01*
X145207388Y-112518900D01*
X145148300Y-112507147D01*
X145089212Y-112518900D01*
X145089209Y-112518900D01*
X144914192Y-112553713D01*
X144765819Y-112652852D01*
X144765816Y-112652855D01*
X144715725Y-112686325D01*
X144682255Y-112736416D01*
X143635519Y-113783154D01*
X143585426Y-113816625D01*
X143551954Y-113866719D01*
X143551953Y-113866720D01*
X143452814Y-114015092D01*
X143406247Y-114249200D01*
X143418001Y-114308291D01*
X143418000Y-116129138D01*
X143318000Y-116370561D01*
X143318000Y-116649039D01*
X143424568Y-116906318D01*
X143621482Y-117103232D01*
X143878761Y-117209800D01*
X144157239Y-117209800D01*
X144414518Y-117103232D01*
X144611432Y-116906318D01*
X144718000Y-116649039D01*
X144718000Y-116370561D01*
X144618000Y-116129139D01*
X144618000Y-114497727D01*
X145396829Y-113718900D01*
X146671571Y-113718900D01*
X146608144Y-113782327D01*
X146516800Y-114002853D01*
X146516800Y-114241547D01*
X146608144Y-114462073D01*
X146776927Y-114630856D01*
X146997453Y-114722200D01*
X147115760Y-114722200D01*
X149731255Y-117337695D01*
X149609468Y-117459482D01*
X149502900Y-117716761D01*
X149502900Y-117995239D01*
X149609468Y-118252518D01*
X149806382Y-118449432D01*
X150063661Y-118556000D01*
X150342139Y-118556000D01*
X150599418Y-118449432D01*
X150796332Y-118252518D01*
X150902900Y-117995239D01*
X150902900Y-117716761D01*
X150796332Y-117459482D01*
X150627900Y-117291050D01*
X150627900Y-117250155D01*
X150636226Y-117208299D01*
X150618971Y-117121554D01*
X150603241Y-117042473D01*
X150509308Y-116901892D01*
X150473822Y-116878181D01*
X147716800Y-114121160D01*
X147716800Y-114002853D01*
X147625456Y-113782327D01*
X147562029Y-113718900D01*
X157732538Y-113718900D01*
X157786247Y-132742789D01*
X157808529Y-132855403D01*
X157873089Y-132953044D01*
X157970100Y-133018547D01*
X158084793Y-133041938D01*
X166705441Y-133083693D01*
X166822255Y-133060630D01*
X166919451Y-132995403D01*
X166984287Y-132897946D01*
X167006893Y-132783096D01*
X166917407Y-88151088D01*
X176950000Y-88151088D01*
X176950000Y-88548912D01*
X177102241Y-88916454D01*
X177383546Y-89197759D01*
X177751088Y-89350000D01*
X178148912Y-89350000D01*
X178516454Y-89197759D01*
X178797759Y-88916454D01*
X178950000Y-88548912D01*
X179102241Y-88916454D01*
X179383546Y-89197759D01*
X179751088Y-89350000D01*
X180148912Y-89350000D01*
X180516454Y-89197759D01*
X180797759Y-88916454D01*
X180950000Y-88548912D01*
X180950000Y-88151088D01*
X181450000Y-88151088D01*
X181450000Y-88548912D01*
X181602241Y-88916454D01*
X181883546Y-89197759D01*
X182251088Y-89350000D01*
X182648912Y-89350000D01*
X183016454Y-89197759D01*
X183297759Y-88916454D01*
X183450000Y-88548912D01*
X183450000Y-88151088D01*
X183297759Y-87783546D01*
X183016454Y-87502241D01*
X182648912Y-87350000D01*
X182251088Y-87350000D01*
X181883546Y-87502241D01*
X181602241Y-87783546D01*
X181450000Y-88151088D01*
X180950000Y-88151088D01*
X180797759Y-87783546D01*
X180516454Y-87502241D01*
X180148912Y-87350000D01*
X179751088Y-87350000D01*
X179383546Y-87502241D01*
X179102241Y-87783546D01*
X178950000Y-88151088D01*
X178797759Y-87783546D01*
X178516454Y-87502241D01*
X178148912Y-87350000D01*
X177751088Y-87350000D01*
X177383546Y-87502241D01*
X177102241Y-87783546D01*
X176950000Y-88151088D01*
X166917407Y-88151088D01*
X166873039Y-66022253D01*
X170951600Y-66022253D01*
X170951600Y-66260947D01*
X171042944Y-66481473D01*
X171151600Y-66590129D01*
X171151601Y-68931570D01*
X171042944Y-69040227D01*
X170951600Y-69260753D01*
X170951600Y-69499447D01*
X171042944Y-69719973D01*
X171211727Y-69888756D01*
X171432253Y-69980100D01*
X171670947Y-69980100D01*
X171891473Y-69888756D01*
X172060256Y-69719973D01*
X172151600Y-69499447D01*
X172151600Y-69260753D01*
X172060256Y-69040227D01*
X171951600Y-68931571D01*
X171951600Y-66590129D01*
X172060256Y-66481473D01*
X172151600Y-66260947D01*
X172151600Y-66022253D01*
X172060256Y-65801727D01*
X171891473Y-65632944D01*
X171670947Y-65541600D01*
X171432253Y-65541600D01*
X171211727Y-65632944D01*
X171042944Y-65801727D01*
X170951600Y-66022253D01*
X166873039Y-66022253D01*
X166867985Y-63501088D01*
X176950000Y-63501088D01*
X176950000Y-63898912D01*
X177102241Y-64266454D01*
X177383546Y-64547759D01*
X177751088Y-64700000D01*
X178148912Y-64700000D01*
X178516454Y-64547759D01*
X178797759Y-64266454D01*
X178950000Y-63898912D01*
X179102241Y-64266454D01*
X179383546Y-64547759D01*
X179751088Y-64700000D01*
X180148912Y-64700000D01*
X180516454Y-64547759D01*
X180797759Y-64266454D01*
X180950000Y-63898912D01*
X180950000Y-63501088D01*
X181450000Y-63501088D01*
X181450000Y-63898912D01*
X181602241Y-64266454D01*
X181883546Y-64547759D01*
X182251088Y-64700000D01*
X182648912Y-64700000D01*
X183016454Y-64547759D01*
X183297759Y-64266454D01*
X183450000Y-63898912D01*
X183450000Y-63501088D01*
X183297759Y-63133546D01*
X183016454Y-62852241D01*
X182648912Y-62700000D01*
X182251088Y-62700000D01*
X181883546Y-62852241D01*
X181602241Y-63133546D01*
X181450000Y-63501088D01*
X180950000Y-63501088D01*
X180797759Y-63133546D01*
X180516454Y-62852241D01*
X180148912Y-62700000D01*
X179751088Y-62700000D01*
X179383546Y-62852241D01*
X179102241Y-63133546D01*
X178950000Y-63501088D01*
X178797759Y-63133546D01*
X178516454Y-62852241D01*
X178148912Y-62700000D01*
X177751088Y-62700000D01*
X177383546Y-62852241D01*
X177102241Y-63133546D01*
X176950000Y-63501088D01*
X166867985Y-63501088D01*
X166841666Y-50375000D01*
X194983304Y-50375000D01*
X195818752Y-50449562D01*
X196611628Y-50666468D01*
X197353558Y-51020351D01*
X198021098Y-51500027D01*
X198593140Y-52090329D01*
X199051613Y-52772609D01*
X199382016Y-53525289D01*
X199574603Y-54327470D01*
X199625000Y-55013751D01*
X199625001Y-144983293D01*
X199550438Y-145818752D01*
X199333533Y-146611622D01*
X198979649Y-147353558D01*
X198499973Y-148021098D01*
X197909671Y-148593140D01*
X197227391Y-149051613D01*
X196474714Y-149382015D01*
X195672530Y-149574603D01*
X194986249Y-149625000D01*
X105016696Y-149625000D01*
X104181248Y-149550438D01*
X103388378Y-149333533D01*
X102646442Y-148979649D01*
X101978902Y-148499973D01*
X101406860Y-147909671D01*
X100948387Y-147227391D01*
X100617985Y-146474714D01*
X100425397Y-145672530D01*
X100375000Y-144986249D01*
X100375000Y-144704700D01*
X104254123Y-144704700D01*
X104254123Y-146404700D01*
X104277407Y-146521754D01*
X104343712Y-146620988D01*
X104442946Y-146687293D01*
X104560000Y-146710577D01*
X106260000Y-146710577D01*
X106377054Y-146687293D01*
X106476288Y-146620988D01*
X106542593Y-146521754D01*
X106565877Y-146404700D01*
X106565877Y-145554700D01*
X106777471Y-145554700D01*
X106866724Y-146003407D01*
X107120897Y-146383803D01*
X107501293Y-146637976D01*
X107836739Y-146704700D01*
X108063261Y-146704700D01*
X108398707Y-146637976D01*
X108779103Y-146383803D01*
X109033276Y-146003407D01*
X109122529Y-145554700D01*
X109317471Y-145554700D01*
X109406724Y-146003407D01*
X109660897Y-146383803D01*
X110041293Y-146637976D01*
X110376739Y-146704700D01*
X110603261Y-146704700D01*
X110938707Y-146637976D01*
X111319103Y-146383803D01*
X111573276Y-146003407D01*
X111662529Y-145554700D01*
X111573276Y-145105993D01*
X111319103Y-144725597D01*
X111287829Y-144704700D01*
X118541623Y-144704700D01*
X118541623Y-146404700D01*
X118564907Y-146521754D01*
X118631212Y-146620988D01*
X118730446Y-146687293D01*
X118847500Y-146710577D01*
X120547500Y-146710577D01*
X120664554Y-146687293D01*
X120763788Y-146620988D01*
X120830093Y-146521754D01*
X120853377Y-146404700D01*
X120853377Y-145554700D01*
X121064971Y-145554700D01*
X121154224Y-146003407D01*
X121408397Y-146383803D01*
X121788793Y-146637976D01*
X122124239Y-146704700D01*
X122350761Y-146704700D01*
X122686207Y-146637976D01*
X123066603Y-146383803D01*
X123320776Y-146003407D01*
X123410029Y-145554700D01*
X123604971Y-145554700D01*
X123694224Y-146003407D01*
X123948397Y-146383803D01*
X124328793Y-146637976D01*
X124664239Y-146704700D01*
X124890761Y-146704700D01*
X125226207Y-146637976D01*
X125606603Y-146383803D01*
X125860776Y-146003407D01*
X125950029Y-145554700D01*
X142591471Y-145554700D01*
X142680724Y-146003407D01*
X142934897Y-146383803D01*
X143315293Y-146637976D01*
X143650739Y-146704700D01*
X143877261Y-146704700D01*
X144212707Y-146637976D01*
X144593103Y-146383803D01*
X144847276Y-146003407D01*
X144936529Y-145554700D01*
X147671471Y-145554700D01*
X147760724Y-146003407D01*
X148014897Y-146383803D01*
X148395293Y-146637976D01*
X148730739Y-146704700D01*
X148957261Y-146704700D01*
X149292707Y-146637976D01*
X149673103Y-146383803D01*
X149927276Y-146003407D01*
X150016529Y-145554700D01*
X149927276Y-145105993D01*
X149673103Y-144725597D01*
X149641829Y-144704700D01*
X150228123Y-144704700D01*
X150228123Y-146404700D01*
X150251407Y-146521754D01*
X150317712Y-146620988D01*
X150416946Y-146687293D01*
X150534000Y-146710577D01*
X152234000Y-146710577D01*
X152351054Y-146687293D01*
X152450288Y-146620988D01*
X152516593Y-146521754D01*
X152539877Y-146404700D01*
X152539877Y-144704700D01*
X152516593Y-144587646D01*
X152450288Y-144488412D01*
X152351054Y-144422107D01*
X152234000Y-144398823D01*
X151784000Y-144398823D01*
X151784000Y-142456484D01*
X151892585Y-142347900D01*
X153072516Y-142347900D01*
X155789315Y-145064700D01*
X155761724Y-145105993D01*
X155672471Y-145554700D01*
X155761724Y-146003407D01*
X156015897Y-146383803D01*
X156396293Y-146637976D01*
X156731739Y-146704700D01*
X156958261Y-146704700D01*
X157293707Y-146637976D01*
X157674103Y-146383803D01*
X157928276Y-146003407D01*
X158017529Y-145554700D01*
X158212471Y-145554700D01*
X158301724Y-146003407D01*
X158555897Y-146383803D01*
X158936293Y-146637976D01*
X159271739Y-146704700D01*
X159498261Y-146704700D01*
X159833707Y-146637976D01*
X160214103Y-146383803D01*
X160468276Y-146003407D01*
X160557529Y-145554700D01*
X160752471Y-145554700D01*
X160841724Y-146003407D01*
X161095897Y-146383803D01*
X161476293Y-146637976D01*
X161811739Y-146704700D01*
X162038261Y-146704700D01*
X162373707Y-146637976D01*
X162754103Y-146383803D01*
X163008276Y-146003407D01*
X163097529Y-145554700D01*
X163008276Y-145105993D01*
X162754103Y-144725597D01*
X162373707Y-144471424D01*
X162038261Y-144404700D01*
X161811739Y-144404700D01*
X161476293Y-144471424D01*
X161095897Y-144725597D01*
X160841724Y-145105993D01*
X160752471Y-145554700D01*
X160557529Y-145554700D01*
X160468276Y-145105993D01*
X160214103Y-144725597D01*
X159833707Y-144471424D01*
X159498261Y-144404700D01*
X159271739Y-144404700D01*
X158936293Y-144471424D01*
X158555897Y-144725597D01*
X158301724Y-145105993D01*
X158212471Y-145554700D01*
X158017529Y-145554700D01*
X157928276Y-145105993D01*
X157674103Y-144725597D01*
X157293707Y-144471424D01*
X156958261Y-144404700D01*
X156731739Y-144404700D01*
X156396293Y-144471424D01*
X156355000Y-144499015D01*
X153548903Y-141692919D01*
X153526584Y-141659516D01*
X153394272Y-141571109D01*
X153277594Y-141547900D01*
X153238200Y-141540064D01*
X153198806Y-141547900D01*
X152126900Y-141547900D01*
X152126900Y-138701088D01*
X176950000Y-138701088D01*
X176950000Y-139098912D01*
X177102241Y-139466454D01*
X177383546Y-139747759D01*
X177751088Y-139900000D01*
X178148912Y-139900000D01*
X178516454Y-139747759D01*
X178797759Y-139466454D01*
X178950000Y-139098912D01*
X179102241Y-139466454D01*
X179383546Y-139747759D01*
X179751088Y-139900000D01*
X180148912Y-139900000D01*
X180516454Y-139747759D01*
X180797759Y-139466454D01*
X180950000Y-139098912D01*
X180950000Y-138701088D01*
X181450000Y-138701088D01*
X181450000Y-139098912D01*
X181602241Y-139466454D01*
X181883546Y-139747759D01*
X182251088Y-139900000D01*
X182648912Y-139900000D01*
X183016454Y-139747759D01*
X183297759Y-139466454D01*
X183450000Y-139098912D01*
X183450000Y-138701088D01*
X183297759Y-138333546D01*
X183016454Y-138052241D01*
X182648912Y-137900000D01*
X182251088Y-137900000D01*
X181883546Y-138052241D01*
X181602241Y-138333546D01*
X181450000Y-138701088D01*
X180950000Y-138701088D01*
X180797759Y-138333546D01*
X180516454Y-138052241D01*
X180148912Y-137900000D01*
X179751088Y-137900000D01*
X179383546Y-138052241D01*
X179102241Y-138333546D01*
X178950000Y-138701088D01*
X178797759Y-138333546D01*
X178516454Y-138052241D01*
X178148912Y-137900000D01*
X177751088Y-137900000D01*
X177383546Y-138052241D01*
X177102241Y-138333546D01*
X176950000Y-138701088D01*
X152126900Y-138701088D01*
X152126900Y-137545029D01*
X152235556Y-137436373D01*
X152326900Y-137215847D01*
X152326900Y-136977153D01*
X152235556Y-136756627D01*
X152066773Y-136587844D01*
X151846247Y-136496500D01*
X151607553Y-136496500D01*
X151387027Y-136587844D01*
X151218244Y-136756627D01*
X151126900Y-136977153D01*
X151126900Y-137215847D01*
X151218244Y-137436373D01*
X151326900Y-137545029D01*
X151326901Y-141782214D01*
X151129018Y-141980098D01*
X151095616Y-142002416D01*
X151027760Y-142103972D01*
X151007209Y-142134729D01*
X150976164Y-142290800D01*
X150984000Y-142330194D01*
X150984001Y-144398823D01*
X150534000Y-144398823D01*
X150416946Y-144422107D01*
X150317712Y-144488412D01*
X150251407Y-144587646D01*
X150228123Y-144704700D01*
X149641829Y-144704700D01*
X149292707Y-144471424D01*
X148957261Y-144404700D01*
X148730739Y-144404700D01*
X148395293Y-144471424D01*
X148014897Y-144725597D01*
X147760724Y-145105993D01*
X147671471Y-145554700D01*
X144936529Y-145554700D01*
X144847276Y-145105993D01*
X144593103Y-144725597D01*
X144212707Y-144471424D01*
X143877261Y-144404700D01*
X143650739Y-144404700D01*
X143315293Y-144471424D01*
X142934897Y-144725597D01*
X142680724Y-145105993D01*
X142591471Y-145554700D01*
X125950029Y-145554700D01*
X125860776Y-145105993D01*
X125606603Y-144725597D01*
X125226207Y-144471424D01*
X124890761Y-144404700D01*
X124664239Y-144404700D01*
X124328793Y-144471424D01*
X123948397Y-144725597D01*
X123694224Y-145105993D01*
X123604971Y-145554700D01*
X123410029Y-145554700D01*
X123320776Y-145105993D01*
X123066603Y-144725597D01*
X122686207Y-144471424D01*
X122350761Y-144404700D01*
X122124239Y-144404700D01*
X121788793Y-144471424D01*
X121408397Y-144725597D01*
X121154224Y-145105993D01*
X121064971Y-145554700D01*
X120853377Y-145554700D01*
X120853377Y-144704700D01*
X120830093Y-144587646D01*
X120763788Y-144488412D01*
X120664554Y-144422107D01*
X120547500Y-144398823D01*
X118847500Y-144398823D01*
X118730446Y-144422107D01*
X118631212Y-144488412D01*
X118564907Y-144587646D01*
X118541623Y-144704700D01*
X111287829Y-144704700D01*
X110938707Y-144471424D01*
X110603261Y-144404700D01*
X110376739Y-144404700D01*
X110041293Y-144471424D01*
X109660897Y-144725597D01*
X109406724Y-145105993D01*
X109317471Y-145554700D01*
X109122529Y-145554700D01*
X109033276Y-145105993D01*
X108779103Y-144725597D01*
X108398707Y-144471424D01*
X108063261Y-144404700D01*
X107836739Y-144404700D01*
X107501293Y-144471424D01*
X107120897Y-144725597D01*
X106866724Y-145105993D01*
X106777471Y-145554700D01*
X106565877Y-145554700D01*
X106565877Y-144704700D01*
X106542593Y-144587646D01*
X106476288Y-144488412D01*
X106377054Y-144422107D01*
X106260000Y-144398823D01*
X104560000Y-144398823D01*
X104442946Y-144422107D01*
X104343712Y-144488412D01*
X104277407Y-144587646D01*
X104254123Y-144704700D01*
X100375000Y-144704700D01*
X100375000Y-143404480D01*
X132108300Y-143404480D01*
X132108300Y-143653120D01*
X132203451Y-143882834D01*
X132379266Y-144058649D01*
X132608980Y-144153800D01*
X132857620Y-144153800D01*
X133087334Y-144058649D01*
X133263149Y-143882834D01*
X133358300Y-143653120D01*
X133358300Y-143404480D01*
X137888300Y-143404480D01*
X137888300Y-143653120D01*
X137983451Y-143882834D01*
X138159266Y-144058649D01*
X138388980Y-144153800D01*
X138637620Y-144153800D01*
X138867334Y-144058649D01*
X139043149Y-143882834D01*
X139138300Y-143653120D01*
X139138300Y-143404480D01*
X139043149Y-143174766D01*
X138867334Y-142998951D01*
X138637620Y-142903800D01*
X138388980Y-142903800D01*
X138159266Y-142998951D01*
X137983451Y-143174766D01*
X137888300Y-143404480D01*
X133358300Y-143404480D01*
X133263149Y-143174766D01*
X133087334Y-142998951D01*
X132857620Y-142903800D01*
X132608980Y-142903800D01*
X132379266Y-142998951D01*
X132203451Y-143174766D01*
X132108300Y-143404480D01*
X100375000Y-143404480D01*
X100375000Y-104508761D01*
X125677698Y-104508761D01*
X125677698Y-104787239D01*
X125784266Y-105044518D01*
X125981180Y-105241432D01*
X126238459Y-105348000D01*
X126476657Y-105348000D01*
X126506774Y-105378117D01*
X126506777Y-105378119D01*
X127349701Y-106221044D01*
X127349700Y-120516850D01*
X127181268Y-120685282D01*
X127074700Y-120942561D01*
X127074700Y-121221039D01*
X127181268Y-121478318D01*
X127378182Y-121675232D01*
X127635461Y-121781800D01*
X127913939Y-121781800D01*
X128171218Y-121675232D01*
X128368132Y-121478318D01*
X128474700Y-121221039D01*
X128474700Y-120942561D01*
X128368132Y-120685282D01*
X128199700Y-120516850D01*
X128199700Y-106086859D01*
X128208026Y-106045001D01*
X128175041Y-105879175D01*
X128104818Y-105774079D01*
X128081108Y-105738594D01*
X128045622Y-105714883D01*
X127107817Y-104777079D01*
X127107815Y-104777076D01*
X127077698Y-104746959D01*
X127077698Y-104508761D01*
X126971130Y-104251482D01*
X126774216Y-104054568D01*
X126516937Y-103948000D01*
X126238459Y-103948000D01*
X125981180Y-104054568D01*
X125784266Y-104251482D01*
X125677698Y-104508761D01*
X100375000Y-104508761D01*
X100375000Y-96786700D01*
X129894164Y-96786700D01*
X129902000Y-96826094D01*
X129902001Y-123058591D01*
X129894164Y-123097990D01*
X129925209Y-123254061D01*
X129925210Y-123254062D01*
X130013617Y-123386374D01*
X130047017Y-123408691D01*
X132842010Y-126203685D01*
X132842010Y-126357347D01*
X132933354Y-126577873D01*
X133102137Y-126746656D01*
X133322663Y-126838000D01*
X133561357Y-126838000D01*
X133781883Y-126746656D01*
X133950666Y-126577873D01*
X134042010Y-126357347D01*
X134042010Y-126118653D01*
X133950666Y-125898127D01*
X133781883Y-125729344D01*
X133561357Y-125638000D01*
X133407695Y-125638000D01*
X130702000Y-122932306D01*
X130702000Y-96984853D01*
X132788100Y-96984853D01*
X132788100Y-97223547D01*
X132879444Y-97444073D01*
X133048227Y-97612856D01*
X133268753Y-97704200D01*
X133422416Y-97704200D01*
X135515501Y-99797287D01*
X135515500Y-100262471D01*
X135406844Y-100371127D01*
X135315500Y-100591653D01*
X135315500Y-100830347D01*
X135406844Y-101050873D01*
X135575627Y-101219656D01*
X135796153Y-101311000D01*
X136034847Y-101311000D01*
X136255373Y-101219656D01*
X136424156Y-101050873D01*
X136515500Y-100830347D01*
X136515500Y-100591653D01*
X136424156Y-100371127D01*
X136315500Y-100262471D01*
X136315500Y-99670992D01*
X136323336Y-99631599D01*
X136315500Y-99592206D01*
X136292291Y-99475528D01*
X136203884Y-99343216D01*
X136170487Y-99320901D01*
X133988100Y-97138516D01*
X133988100Y-96984853D01*
X133896756Y-96764327D01*
X133727973Y-96595544D01*
X133507447Y-96504200D01*
X133268753Y-96504200D01*
X133048227Y-96595544D01*
X132879444Y-96764327D01*
X132788100Y-96984853D01*
X130702000Y-96984853D01*
X130702000Y-96952384D01*
X140021286Y-87633100D01*
X140174947Y-87633100D01*
X140279365Y-87589849D01*
X138238517Y-89630699D01*
X138205117Y-89653016D01*
X138142179Y-89747210D01*
X138116709Y-89785329D01*
X138085664Y-89941400D01*
X138093501Y-89980799D01*
X138093500Y-106741814D01*
X131653527Y-113181789D01*
X131620127Y-113204106D01*
X131561446Y-113291930D01*
X131531719Y-113336419D01*
X131500674Y-113492490D01*
X131508511Y-113531889D01*
X131508510Y-122406111D01*
X131500674Y-122445505D01*
X131528237Y-122584071D01*
X131531719Y-122601576D01*
X131620126Y-122733889D01*
X131653529Y-122756208D01*
X133613864Y-124716544D01*
X133613864Y-124870206D01*
X133705208Y-125090732D01*
X133873991Y-125259515D01*
X134094517Y-125350859D01*
X134333211Y-125350859D01*
X134553737Y-125259515D01*
X134722520Y-125090732D01*
X134813864Y-124870206D01*
X134813864Y-124815059D01*
X134927283Y-124815059D01*
X135147809Y-124723715D01*
X135316592Y-124554932D01*
X135407936Y-124334406D01*
X135407936Y-124285300D01*
X135526747Y-124285300D01*
X135747273Y-124193956D01*
X135916056Y-124025173D01*
X136007400Y-123804647D01*
X136007400Y-123565953D01*
X135916056Y-123345427D01*
X135747273Y-123176644D01*
X135526747Y-123085300D01*
X135373085Y-123085300D01*
X133610300Y-121322516D01*
X133610300Y-119564099D01*
X137914267Y-119564099D01*
X137922103Y-119603493D01*
X137922104Y-128478304D01*
X137914267Y-128517703D01*
X137945312Y-128673774D01*
X137945313Y-128673775D01*
X138033720Y-128806087D01*
X138067120Y-128828404D01*
X145472200Y-136233485D01*
X145472201Y-136800370D01*
X145363544Y-136909027D01*
X145272200Y-137129553D01*
X145272200Y-137368247D01*
X145363544Y-137588773D01*
X145532327Y-137757556D01*
X145752853Y-137848900D01*
X145991547Y-137848900D01*
X146212073Y-137757556D01*
X146380856Y-137588773D01*
X146472200Y-137368247D01*
X146472200Y-137129553D01*
X146380856Y-136909027D01*
X146272200Y-136800371D01*
X146272200Y-136334986D01*
X147215300Y-137278086D01*
X147215300Y-137431747D01*
X147306644Y-137652273D01*
X147475427Y-137821056D01*
X147695953Y-137912400D01*
X147934647Y-137912400D01*
X148155173Y-137821056D01*
X148323956Y-137652273D01*
X148415300Y-137431747D01*
X148415300Y-137193053D01*
X148323956Y-136972527D01*
X148155173Y-136803744D01*
X147934647Y-136712400D01*
X147780986Y-136712400D01*
X139211000Y-128142416D01*
X139211000Y-120751753D01*
X139608000Y-120751753D01*
X139608000Y-120990447D01*
X139699344Y-121210973D01*
X139808000Y-121319629D01*
X139808000Y-121334757D01*
X139808001Y-121334762D01*
X139808000Y-122388606D01*
X139800164Y-122428000D01*
X139808000Y-122467393D01*
X139831209Y-122584071D01*
X139919616Y-122716384D01*
X139953019Y-122738703D01*
X144634399Y-127420084D01*
X144656716Y-127453484D01*
X144789028Y-127541891D01*
X144905706Y-127565100D01*
X144905707Y-127565100D01*
X144945099Y-127572936D01*
X144984492Y-127565100D01*
X146236471Y-127565100D01*
X146345127Y-127673756D01*
X146565653Y-127765100D01*
X146804347Y-127765100D01*
X147024873Y-127673756D01*
X147193656Y-127504973D01*
X147285000Y-127284447D01*
X147285000Y-127130784D01*
X148128964Y-126286821D01*
X153030463Y-126286821D01*
X153038300Y-126326220D01*
X153038299Y-132682665D01*
X153030463Y-132722059D01*
X153038299Y-132761452D01*
X153061508Y-132878130D01*
X153149915Y-133010443D01*
X153183318Y-133032762D01*
X156092339Y-135941784D01*
X156114656Y-135975184D01*
X156246968Y-136063591D01*
X156403040Y-136094636D01*
X156442434Y-136086800D01*
X169282086Y-136086800D01*
X169321480Y-136094636D01*
X169360874Y-136086800D01*
X169477552Y-136063591D01*
X169609864Y-135975184D01*
X169632183Y-135941781D01*
X171644029Y-133929937D01*
X171677426Y-133907622D01*
X171765833Y-133775310D01*
X171789042Y-133658632D01*
X171796878Y-133619239D01*
X171789042Y-133579846D01*
X171789042Y-114180653D01*
X172247000Y-114180653D01*
X172247000Y-114419347D01*
X172338344Y-114639873D01*
X172507127Y-114808656D01*
X172727653Y-114900000D01*
X172881315Y-114900000D01*
X172892012Y-114910697D01*
X172892015Y-114910699D01*
X173590001Y-115608687D01*
X173590000Y-118249115D01*
X173186116Y-118653000D01*
X173032453Y-118653000D01*
X172811927Y-118744344D01*
X172643144Y-118913127D01*
X172551800Y-119133653D01*
X172551800Y-119372347D01*
X172643144Y-119592873D01*
X172811927Y-119761656D01*
X173032453Y-119853000D01*
X173271147Y-119853000D01*
X173491673Y-119761656D01*
X173660456Y-119592873D01*
X173751800Y-119372347D01*
X173751800Y-119218684D01*
X174244985Y-118725500D01*
X174278384Y-118703184D01*
X174366791Y-118570872D01*
X174390000Y-118454194D01*
X174390000Y-118454193D01*
X174397836Y-118414800D01*
X174390000Y-118375406D01*
X174390000Y-115482392D01*
X174397836Y-115442999D01*
X174390000Y-115403606D01*
X174366791Y-115286928D01*
X174278384Y-115154616D01*
X174244987Y-115132301D01*
X173457699Y-114345015D01*
X173457697Y-114345012D01*
X173447000Y-114334315D01*
X173447000Y-114180653D01*
X173355656Y-113960127D01*
X173186873Y-113791344D01*
X172966347Y-113700000D01*
X172727653Y-113700000D01*
X172507127Y-113791344D01*
X172338344Y-113960127D01*
X172247000Y-114180653D01*
X171789042Y-114180653D01*
X171789042Y-113544569D01*
X171897698Y-113435913D01*
X171989042Y-113215387D01*
X171989042Y-113007788D01*
X176950000Y-113007788D01*
X176950000Y-113405612D01*
X177102241Y-113773154D01*
X177383546Y-114054459D01*
X177751088Y-114206700D01*
X178148912Y-114206700D01*
X178516454Y-114054459D01*
X178797759Y-113773154D01*
X178950000Y-113405612D01*
X179102241Y-113773154D01*
X179383546Y-114054459D01*
X179751088Y-114206700D01*
X180148912Y-114206700D01*
X180516454Y-114054459D01*
X180797759Y-113773154D01*
X180950000Y-113405612D01*
X180950000Y-113007788D01*
X181450000Y-113007788D01*
X181450000Y-113405612D01*
X181602241Y-113773154D01*
X181883546Y-114054459D01*
X182251088Y-114206700D01*
X182648912Y-114206700D01*
X183016454Y-114054459D01*
X183297759Y-113773154D01*
X183450000Y-113405612D01*
X183450000Y-113007788D01*
X183297759Y-112640246D01*
X183016454Y-112358941D01*
X182648912Y-112206700D01*
X182251088Y-112206700D01*
X181883546Y-112358941D01*
X181602241Y-112640246D01*
X181450000Y-113007788D01*
X180950000Y-113007788D01*
X180797759Y-112640246D01*
X180516454Y-112358941D01*
X180148912Y-112206700D01*
X179751088Y-112206700D01*
X179383546Y-112358941D01*
X179102241Y-112640246D01*
X178950000Y-113007788D01*
X178797759Y-112640246D01*
X178516454Y-112358941D01*
X178148912Y-112206700D01*
X177751088Y-112206700D01*
X177383546Y-112358941D01*
X177102241Y-112640246D01*
X176950000Y-113007788D01*
X171989042Y-113007788D01*
X171989042Y-112976693D01*
X171897698Y-112756167D01*
X171728915Y-112587384D01*
X171508389Y-112496040D01*
X171269695Y-112496040D01*
X171049169Y-112587384D01*
X170880386Y-112756167D01*
X170789042Y-112976693D01*
X170789042Y-113215387D01*
X170880386Y-113435913D01*
X170989042Y-113544569D01*
X170989043Y-133453551D01*
X169155796Y-135286800D01*
X156568725Y-135286800D01*
X153838299Y-132556375D01*
X153838299Y-126452506D01*
X154138606Y-126152200D01*
X154292267Y-126152200D01*
X154512793Y-126060856D01*
X154681576Y-125892073D01*
X154772920Y-125671547D01*
X154772920Y-125432853D01*
X154681576Y-125212327D01*
X154512793Y-125043544D01*
X154292267Y-124952200D01*
X154053573Y-124952200D01*
X153833047Y-125043544D01*
X153664264Y-125212327D01*
X153572920Y-125432853D01*
X153572920Y-125586514D01*
X153183315Y-125976121D01*
X153149916Y-125998437D01*
X153094130Y-126081928D01*
X153061508Y-126130750D01*
X153030463Y-126286821D01*
X148128964Y-126286821D01*
X148619186Y-125796600D01*
X148772847Y-125796600D01*
X148993373Y-125705256D01*
X149162156Y-125536473D01*
X149253500Y-125315947D01*
X149253500Y-125077253D01*
X149162156Y-124856727D01*
X148993373Y-124687944D01*
X148772847Y-124596600D01*
X148534153Y-124596600D01*
X148313627Y-124687944D01*
X148144844Y-124856727D01*
X148053500Y-125077253D01*
X148053500Y-125230914D01*
X146719316Y-126565100D01*
X146565653Y-126565100D01*
X146345127Y-126656444D01*
X146236471Y-126765100D01*
X145110785Y-126765100D01*
X141047438Y-122701753D01*
X147977300Y-122701753D01*
X147977300Y-122940447D01*
X148068644Y-123160973D01*
X148237427Y-123329756D01*
X148457953Y-123421100D01*
X148696647Y-123421100D01*
X148917173Y-123329756D01*
X149025829Y-123221100D01*
X150430316Y-123221100D01*
X151571400Y-124362185D01*
X151571400Y-124515847D01*
X151662744Y-124736373D01*
X151831527Y-124905156D01*
X152052053Y-124996500D01*
X152290747Y-124996500D01*
X152511273Y-124905156D01*
X152680056Y-124736373D01*
X152771400Y-124515847D01*
X152771400Y-124277153D01*
X152680056Y-124056627D01*
X152578529Y-123955100D01*
X152684447Y-123955100D01*
X152904973Y-123863756D01*
X153073756Y-123694973D01*
X153165100Y-123474447D01*
X153165100Y-123437333D01*
X153317982Y-123590215D01*
X153538508Y-123681559D01*
X153777202Y-123681559D01*
X153997728Y-123590215D01*
X154166511Y-123421432D01*
X154257855Y-123200906D01*
X154257855Y-122962212D01*
X154238075Y-122914458D01*
X154380713Y-122855376D01*
X154549496Y-122686593D01*
X154640840Y-122466067D01*
X154640840Y-122227373D01*
X154549496Y-122006847D01*
X154380713Y-121838064D01*
X154209700Y-121767229D01*
X154209700Y-119104629D01*
X154318356Y-118995973D01*
X154409700Y-118775447D01*
X154409700Y-118536753D01*
X154318356Y-118316227D01*
X154149573Y-118147444D01*
X153929047Y-118056100D01*
X153690353Y-118056100D01*
X153609600Y-118089549D01*
X153609600Y-118066853D01*
X153518256Y-117846327D01*
X153349473Y-117677544D01*
X153128947Y-117586200D01*
X152890253Y-117586200D01*
X152669727Y-117677544D01*
X152500944Y-117846327D01*
X152409600Y-118066853D01*
X152409600Y-118305547D01*
X152500944Y-118526073D01*
X152609600Y-118634729D01*
X152609601Y-122393906D01*
X152601764Y-122433304D01*
X152632809Y-122589375D01*
X152640962Y-122601577D01*
X152721217Y-122721688D01*
X152754616Y-122744004D01*
X152823173Y-122812562D01*
X152684447Y-122755100D01*
X152445753Y-122755100D01*
X152225227Y-122846444D01*
X152131578Y-122940093D01*
X150373903Y-121182419D01*
X150351584Y-121149016D01*
X150219272Y-121060609D01*
X150102594Y-121037400D01*
X150063200Y-121029564D01*
X150023806Y-121037400D01*
X149686229Y-121037400D01*
X149628373Y-120979544D01*
X149407847Y-120888200D01*
X149169153Y-120888200D01*
X148948627Y-120979544D01*
X148779844Y-121148327D01*
X148688500Y-121368853D01*
X148688500Y-121607547D01*
X148779844Y-121828073D01*
X148948627Y-121996856D01*
X149169153Y-122088200D01*
X149407847Y-122088200D01*
X149628373Y-121996856D01*
X149787829Y-121837400D01*
X149897516Y-121837400D01*
X150481215Y-122421100D01*
X149025829Y-122421100D01*
X148917173Y-122312444D01*
X148696647Y-122221100D01*
X148457953Y-122221100D01*
X148237427Y-122312444D01*
X148068644Y-122481227D01*
X147977300Y-122701753D01*
X141047438Y-122701753D01*
X140608000Y-122262316D01*
X140608000Y-121319629D01*
X140716656Y-121210973D01*
X140808000Y-120990447D01*
X140808000Y-120751753D01*
X140716656Y-120531227D01*
X140547873Y-120362444D01*
X140327347Y-120271100D01*
X140088653Y-120271100D01*
X139868127Y-120362444D01*
X139699344Y-120531227D01*
X139608000Y-120751753D01*
X139211000Y-120751753D01*
X139211000Y-120688684D01*
X139607500Y-120292185D01*
X139775920Y-120292185D01*
X139996446Y-120200841D01*
X140165229Y-120032058D01*
X140256573Y-119811532D01*
X140256573Y-119572838D01*
X140165229Y-119352312D01*
X139996446Y-119183529D01*
X139775920Y-119092185D01*
X139537226Y-119092185D01*
X139322102Y-119181291D01*
X139322102Y-119044753D01*
X139230758Y-118824227D01*
X139061975Y-118655444D01*
X138841449Y-118564100D01*
X138602755Y-118564100D01*
X138382229Y-118655444D01*
X138213446Y-118824227D01*
X138122102Y-119044753D01*
X138122102Y-119198416D01*
X138067121Y-119253397D01*
X138033719Y-119275715D01*
X137982540Y-119352312D01*
X137945312Y-119408028D01*
X137914267Y-119564099D01*
X133610300Y-119564099D01*
X133610300Y-114231453D01*
X140027100Y-114231453D01*
X140027100Y-114470147D01*
X140118444Y-114690673D01*
X140287227Y-114859456D01*
X140507753Y-114950800D01*
X140556701Y-114950800D01*
X140556700Y-115731071D01*
X140448044Y-115839727D01*
X140356700Y-116060253D01*
X140356700Y-116298947D01*
X140448044Y-116519473D01*
X140616827Y-116688256D01*
X140837353Y-116779600D01*
X141076047Y-116779600D01*
X141296573Y-116688256D01*
X141465356Y-116519473D01*
X141556700Y-116298947D01*
X141556700Y-116060253D01*
X141465356Y-115839727D01*
X141356700Y-115731071D01*
X141356700Y-114719794D01*
X141364536Y-114680400D01*
X141333491Y-114524328D01*
X141321827Y-114506871D01*
X141245084Y-114392016D01*
X141227100Y-114380000D01*
X141227100Y-114231453D01*
X141135756Y-114010927D01*
X140966973Y-113842144D01*
X140746447Y-113750800D01*
X140507753Y-113750800D01*
X140287227Y-113842144D01*
X140118444Y-114010927D01*
X140027100Y-114231453D01*
X133610300Y-114231453D01*
X133610300Y-113495778D01*
X133828878Y-113277201D01*
X133862278Y-113254884D01*
X133884597Y-113221481D01*
X136258725Y-110847353D01*
X146707300Y-110847353D01*
X146707300Y-111086047D01*
X146798644Y-111306573D01*
X146883771Y-111391700D01*
X146798644Y-111476827D01*
X146707300Y-111697353D01*
X146707300Y-111936047D01*
X146798644Y-112156573D01*
X146967427Y-112325356D01*
X147187953Y-112416700D01*
X147426647Y-112416700D01*
X147647173Y-112325356D01*
X147815956Y-112156573D01*
X147873893Y-112016700D01*
X149634405Y-112016700D01*
X149673799Y-112024536D01*
X149713193Y-112016700D01*
X149829871Y-111993491D01*
X149962183Y-111905084D01*
X149984501Y-111871682D01*
X150129900Y-111726284D01*
X150269774Y-111784221D01*
X150508468Y-111784221D01*
X150728994Y-111692877D01*
X150897777Y-111524094D01*
X150989121Y-111303568D01*
X150989121Y-111064874D01*
X150897777Y-110844348D01*
X150728994Y-110675565D01*
X150508468Y-110584221D01*
X150388079Y-110584221D01*
X150388079Y-110463832D01*
X150296735Y-110243306D01*
X150127952Y-110074523D01*
X149907426Y-109983179D01*
X149668732Y-109983179D01*
X149448206Y-110074523D01*
X149279423Y-110243306D01*
X149188079Y-110463832D01*
X149188079Y-110702526D01*
X149214660Y-110766700D01*
X147873893Y-110766700D01*
X147815956Y-110626827D01*
X147647173Y-110458044D01*
X147426647Y-110366700D01*
X147187953Y-110366700D01*
X146967427Y-110458044D01*
X146798644Y-110626827D01*
X146707300Y-110847353D01*
X136258725Y-110847353D01*
X139967684Y-107138395D01*
X140001084Y-107116078D01*
X140089491Y-106983766D01*
X140112700Y-106867088D01*
X140120536Y-106827694D01*
X140112700Y-106788300D01*
X140112700Y-102536435D01*
X140241053Y-102589600D01*
X140479747Y-102589600D01*
X140700273Y-102498256D01*
X140783929Y-102414600D01*
X140815260Y-102414600D01*
X142363900Y-103963241D01*
X142363900Y-104081547D01*
X142455244Y-104302073D01*
X142624027Y-104470856D01*
X142844553Y-104562200D01*
X143083247Y-104562200D01*
X143303773Y-104470856D01*
X143387429Y-104387200D01*
X145081043Y-104387200D01*
X145122900Y-104395526D01*
X145164757Y-104387200D01*
X145164758Y-104387200D01*
X145288727Y-104362541D01*
X145429308Y-104268608D01*
X145453021Y-104233119D01*
X147369139Y-102317002D01*
X147487445Y-102317002D01*
X147707971Y-102225658D01*
X147876754Y-102056875D01*
X147968098Y-101836349D01*
X147968098Y-101597655D01*
X147876754Y-101377129D01*
X147707971Y-101208346D01*
X147487445Y-101117002D01*
X147248751Y-101117002D01*
X147028225Y-101208346D01*
X146859442Y-101377129D01*
X146768098Y-101597655D01*
X146768098Y-101715961D01*
X144946860Y-103537200D01*
X143387429Y-103537200D01*
X143303773Y-103453544D01*
X143083247Y-103362200D01*
X142964941Y-103362200D01*
X141321421Y-101718681D01*
X141297708Y-101683192D01*
X141157127Y-101589259D01*
X141033158Y-101564600D01*
X141033157Y-101564600D01*
X140991300Y-101556274D01*
X140949443Y-101564600D01*
X140783929Y-101564600D01*
X140700273Y-101480944D01*
X140479747Y-101389600D01*
X140241053Y-101389600D01*
X140112700Y-101442765D01*
X140112700Y-90593924D01*
X140871723Y-89834902D01*
X141025385Y-89834902D01*
X141245911Y-89743558D01*
X141414694Y-89574775D01*
X141506038Y-89354249D01*
X141506038Y-89115555D01*
X141456186Y-88995200D01*
X143673806Y-88995200D01*
X143713200Y-89003036D01*
X143752594Y-88995200D01*
X143869272Y-88971991D01*
X144001584Y-88883584D01*
X144023903Y-88850182D01*
X144199584Y-88674500D01*
X144353247Y-88674500D01*
X144573773Y-88583156D01*
X144742556Y-88414373D01*
X144833900Y-88193847D01*
X144833900Y-87955153D01*
X144742556Y-87734627D01*
X144573773Y-87565844D01*
X144353247Y-87474500D01*
X144114553Y-87474500D01*
X143894027Y-87565844D01*
X143725244Y-87734627D01*
X143633900Y-87955153D01*
X143633900Y-88108816D01*
X143547516Y-88195200D01*
X140805386Y-88195200D01*
X140910286Y-88090300D01*
X141063947Y-88090300D01*
X141284473Y-87998956D01*
X141453256Y-87830173D01*
X141544600Y-87609647D01*
X141544600Y-87370953D01*
X141453256Y-87150427D01*
X141284473Y-86981644D01*
X141063947Y-86890300D01*
X140825253Y-86890300D01*
X140655600Y-86960572D01*
X140655600Y-86913753D01*
X140564256Y-86693227D01*
X140395473Y-86524444D01*
X140174947Y-86433100D01*
X139936253Y-86433100D01*
X139715727Y-86524444D01*
X139546944Y-86693227D01*
X139455600Y-86913753D01*
X139455600Y-87067414D01*
X130047019Y-96475997D01*
X130013616Y-96498316D01*
X129948652Y-96595544D01*
X129925209Y-96630629D01*
X129894164Y-96786700D01*
X100375000Y-96786700D01*
X100375000Y-88443261D01*
X133793000Y-88443261D01*
X133793000Y-88721739D01*
X133899568Y-88979018D01*
X134096482Y-89175932D01*
X134353761Y-89282500D01*
X134632239Y-89282500D01*
X134889518Y-89175932D01*
X135086432Y-88979018D01*
X135193000Y-88721739D01*
X135193000Y-88443261D01*
X135086432Y-88185982D01*
X134918000Y-88017550D01*
X134918000Y-81798940D01*
X147610341Y-69106600D01*
X150979360Y-69106600D01*
X152364795Y-70492036D01*
X152265529Y-70425709D01*
X152148851Y-70402500D01*
X152109457Y-70394664D01*
X152070063Y-70402500D01*
X150293092Y-70402500D01*
X150253699Y-70394664D01*
X150214306Y-70402500D01*
X150097628Y-70425709D01*
X149965316Y-70514116D01*
X149943001Y-70547513D01*
X145160019Y-75330497D01*
X145126616Y-75352816D01*
X145041420Y-75480323D01*
X145038209Y-75485129D01*
X145007164Y-75641200D01*
X145015000Y-75680594D01*
X145015001Y-88436338D01*
X145015000Y-88436343D01*
X145015000Y-88451471D01*
X144906344Y-88560127D01*
X144815000Y-88780653D01*
X144815000Y-89019347D01*
X144906344Y-89239873D01*
X145075127Y-89408656D01*
X145295653Y-89500000D01*
X145534347Y-89500000D01*
X145754873Y-89408656D01*
X145758065Y-89405464D01*
X145867988Y-89515387D01*
X146065023Y-89597001D01*
X141690391Y-89597001D01*
X141650998Y-89589165D01*
X141611606Y-89597001D01*
X141611605Y-89597001D01*
X141494927Y-89620210D01*
X141362615Y-89708617D01*
X141340298Y-89742018D01*
X141269014Y-89813302D01*
X141269012Y-89813303D01*
X141258315Y-89824000D01*
X141104653Y-89824000D01*
X140884127Y-89915344D01*
X140715344Y-90084127D01*
X140624000Y-90304653D01*
X140624000Y-90543347D01*
X140699591Y-90725841D01*
X140698455Y-90726311D01*
X140529672Y-90895094D01*
X140438328Y-91115620D01*
X140438328Y-91354314D01*
X140529672Y-91574840D01*
X140698455Y-91743623D01*
X140918981Y-91834967D01*
X141157675Y-91834967D01*
X141378201Y-91743623D01*
X141486857Y-91634967D01*
X147457283Y-91634967D01*
X149068841Y-93246526D01*
X149068841Y-95024311D01*
X148968427Y-94982719D01*
X148729733Y-94982719D01*
X148509207Y-95074063D01*
X148340424Y-95242846D01*
X148249080Y-95463372D01*
X148249080Y-95702066D01*
X148340424Y-95922592D01*
X148449080Y-96031248D01*
X148449081Y-100346230D01*
X148360184Y-100435127D01*
X148268840Y-100655653D01*
X148268840Y-100894347D01*
X148360184Y-101114873D01*
X148528967Y-101283656D01*
X148749493Y-101375000D01*
X148988187Y-101375000D01*
X149068840Y-101341593D01*
X149068840Y-106791154D01*
X148662395Y-107197600D01*
X148508733Y-107197600D01*
X148288207Y-107288944D01*
X148119424Y-107457727D01*
X148028080Y-107678253D01*
X148028080Y-107916947D01*
X148119424Y-108137473D01*
X148288207Y-108306256D01*
X148508733Y-108397600D01*
X148747427Y-108397600D01*
X148967953Y-108306256D01*
X149136736Y-108137473D01*
X149228080Y-107916947D01*
X149228080Y-107763285D01*
X149468851Y-107522514D01*
X149468851Y-108173457D01*
X149461015Y-108212851D01*
X149468851Y-108252244D01*
X149492060Y-108368922D01*
X149580467Y-108501235D01*
X149613870Y-108523554D01*
X152435000Y-111344685D01*
X152435000Y-111498347D01*
X152526344Y-111718873D01*
X152695127Y-111887656D01*
X152915653Y-111979000D01*
X153154347Y-111979000D01*
X153374873Y-111887656D01*
X153543656Y-111718873D01*
X153635000Y-111498347D01*
X153635000Y-111259653D01*
X153543656Y-111039127D01*
X153450195Y-110945666D01*
X153628873Y-110871656D01*
X153797656Y-110702873D01*
X153889000Y-110482347D01*
X153889000Y-110243653D01*
X153797656Y-110023127D01*
X153628873Y-109854344D01*
X153408347Y-109763000D01*
X153169653Y-109763000D01*
X152949127Y-109854344D01*
X152840471Y-109963000D01*
X152776422Y-109963000D01*
X151655924Y-108842503D01*
X151856718Y-108759332D01*
X152053632Y-108562418D01*
X152160200Y-108305139D01*
X152160200Y-108026661D01*
X152053632Y-107769382D01*
X151990103Y-107705853D01*
X152184561Y-107786400D01*
X152463039Y-107786400D01*
X152720318Y-107679832D01*
X152917232Y-107482918D01*
X153023800Y-107225639D01*
X153023800Y-106947161D01*
X152917232Y-106689882D01*
X152748800Y-106521450D01*
X152748800Y-99453633D01*
X152859737Y-99499584D01*
X153098431Y-99499584D01*
X153318957Y-99408240D01*
X153487740Y-99239457D01*
X153579084Y-99018931D01*
X153579084Y-98865268D01*
X154153584Y-98290769D01*
X154186984Y-98268452D01*
X154275391Y-98136140D01*
X154298600Y-98019462D01*
X154306436Y-97980068D01*
X154298600Y-97940674D01*
X154298600Y-96968529D01*
X154407256Y-96859873D01*
X154498600Y-96639347D01*
X154498600Y-96400653D01*
X154407256Y-96180127D01*
X154298600Y-96071471D01*
X154298600Y-90981728D01*
X154369156Y-90911172D01*
X154460500Y-90690646D01*
X154460500Y-90451952D01*
X154369156Y-90231426D01*
X154200373Y-90062643D01*
X153979847Y-89971299D01*
X153741153Y-89971299D01*
X153520627Y-90062643D01*
X153351844Y-90231426D01*
X153260500Y-90451952D01*
X153260500Y-90690646D01*
X153351844Y-90911172D01*
X153498601Y-91057929D01*
X153498600Y-96071471D01*
X153389944Y-96180127D01*
X153298600Y-96400653D01*
X153298600Y-96639347D01*
X153389944Y-96859873D01*
X153498600Y-96968529D01*
X153498601Y-97814382D01*
X153013400Y-98299584D01*
X152859737Y-98299584D01*
X152748800Y-98345535D01*
X152748800Y-76452240D01*
X153291641Y-75909400D01*
X153529839Y-75909400D01*
X153787118Y-75802832D01*
X153984032Y-75605918D01*
X154090600Y-75348639D01*
X154090600Y-75070161D01*
X153984032Y-74812882D01*
X153787118Y-74615968D01*
X153529839Y-74509400D01*
X153251361Y-74509400D01*
X152994082Y-74615968D01*
X152797168Y-74812882D01*
X152690600Y-75070161D01*
X152690600Y-75308359D01*
X152052879Y-75946081D01*
X152017393Y-75969792D01*
X151993682Y-76005278D01*
X151923459Y-76110374D01*
X151890474Y-76276200D01*
X151898801Y-76318062D01*
X151898800Y-106521450D01*
X151885200Y-106535050D01*
X151885200Y-73289940D01*
X151983540Y-73191600D01*
X152221739Y-73191600D01*
X152479018Y-73085032D01*
X152675932Y-72888118D01*
X152782500Y-72630839D01*
X152782500Y-72352361D01*
X152675932Y-72095082D01*
X152479018Y-71898168D01*
X152221739Y-71791600D01*
X151943261Y-71791600D01*
X151685982Y-71898168D01*
X151489068Y-72095082D01*
X151382500Y-72352361D01*
X151382500Y-72590560D01*
X151189279Y-72783781D01*
X151153793Y-72807492D01*
X151130082Y-72842978D01*
X151059859Y-72948074D01*
X151026874Y-73113900D01*
X151035201Y-73155762D01*
X151035200Y-107600950D01*
X150866768Y-107769382D01*
X150783597Y-107970176D01*
X150704500Y-107891080D01*
X150704500Y-90018892D01*
X150712336Y-89979499D01*
X150696921Y-89902006D01*
X150681291Y-89823428D01*
X150592884Y-89691116D01*
X150559487Y-89668801D01*
X149642433Y-88751749D01*
X149620115Y-88718347D01*
X149487803Y-88629940D01*
X149371125Y-88606731D01*
X149331731Y-88598895D01*
X149292337Y-88606731D01*
X146656390Y-88606731D01*
X146547734Y-88498075D01*
X146349606Y-88416008D01*
X146454836Y-88372421D01*
X146467057Y-88360200D01*
X149311381Y-88360200D01*
X149420037Y-88468856D01*
X149640563Y-88560200D01*
X149879257Y-88560200D01*
X150099783Y-88468856D01*
X150268566Y-88300073D01*
X150359910Y-88079547D01*
X150359910Y-87840853D01*
X150268566Y-87620327D01*
X150099783Y-87451544D01*
X149879257Y-87360200D01*
X149640563Y-87360200D01*
X149420037Y-87451544D01*
X149311381Y-87560200D01*
X146638658Y-87560200D01*
X146623619Y-87523892D01*
X146454836Y-87355109D01*
X146234310Y-87263765D01*
X145995616Y-87263765D01*
X145815000Y-87338578D01*
X145815000Y-75806884D01*
X150419386Y-71202500D01*
X151943773Y-71202500D01*
X153385858Y-72644586D01*
X153385858Y-72798248D01*
X153477202Y-73018774D01*
X153645985Y-73187557D01*
X153866511Y-73278901D01*
X154105205Y-73278901D01*
X154325731Y-73187557D01*
X154494514Y-73018774D01*
X154585858Y-72798248D01*
X154585858Y-72559554D01*
X154494514Y-72339028D01*
X154412475Y-72256989D01*
X154498318Y-72221432D01*
X154695232Y-72024518D01*
X154801800Y-71767239D01*
X154801800Y-71488761D01*
X154695232Y-71231482D01*
X154498318Y-71034568D01*
X154241039Y-70928000D01*
X154002841Y-70928000D01*
X151485521Y-68410681D01*
X151461808Y-68375192D01*
X151321227Y-68281259D01*
X151197258Y-68256600D01*
X151197257Y-68256600D01*
X151155400Y-68248274D01*
X151113543Y-68256600D01*
X147476157Y-68256600D01*
X147434300Y-68248274D01*
X147392442Y-68256600D01*
X147268473Y-68281259D01*
X147127892Y-68375192D01*
X147104181Y-68410678D01*
X134222081Y-81292779D01*
X134186592Y-81316492D01*
X134092660Y-81457073D01*
X134092659Y-81457074D01*
X134059674Y-81622900D01*
X134068000Y-81664757D01*
X134068001Y-87974953D01*
X134068000Y-87974958D01*
X134068000Y-88017550D01*
X133899568Y-88185982D01*
X133793000Y-88443261D01*
X100375000Y-88443261D01*
X100375000Y-63934842D01*
X100851205Y-63934842D01*
X100851205Y-64081158D01*
X100899541Y-64324163D01*
X100955534Y-64459342D01*
X100955535Y-64459343D01*
X101093186Y-64665352D01*
X101196648Y-64768814D01*
X101402657Y-64906465D01*
X101402658Y-64906466D01*
X101537838Y-64962459D01*
X101780842Y-65010795D01*
X101780847Y-65010795D01*
X101817069Y-65018000D01*
X133767931Y-65018000D01*
X133804153Y-65010795D01*
X133804158Y-65010795D01*
X134047163Y-64962459D01*
X134182342Y-64906466D01*
X134182343Y-64906465D01*
X134388352Y-64768814D01*
X134491814Y-64665352D01*
X134629465Y-64459343D01*
X134629466Y-64459342D01*
X134685459Y-64324162D01*
X134733795Y-64081158D01*
X134733795Y-63934840D01*
X134733794Y-63934838D01*
X134685459Y-63691838D01*
X134629466Y-63556658D01*
X134629464Y-63556656D01*
X134491814Y-63350648D01*
X134388352Y-63247186D01*
X134182343Y-63109535D01*
X134182342Y-63109534D01*
X134047163Y-63053541D01*
X133804158Y-63005205D01*
X133804153Y-63005205D01*
X133767931Y-62998000D01*
X101817069Y-62998000D01*
X101780847Y-63005205D01*
X101780842Y-63005205D01*
X101537838Y-63053541D01*
X101402658Y-63109534D01*
X101402657Y-63109535D01*
X101196648Y-63247186D01*
X101093186Y-63350648D01*
X100955536Y-63556656D01*
X100955534Y-63556658D01*
X100899541Y-63691837D01*
X100851205Y-63934842D01*
X100375000Y-63934842D01*
X100375000Y-60705400D01*
X108303391Y-60705400D01*
X108396525Y-61173617D01*
X108661748Y-61570552D01*
X109058683Y-61835775D01*
X109408712Y-61905400D01*
X111845088Y-61905400D01*
X112195117Y-61835775D01*
X112592052Y-61570552D01*
X112857275Y-61173617D01*
X112950409Y-60705400D01*
X112857275Y-60237183D01*
X112592052Y-59840248D01*
X112195117Y-59575025D01*
X111845088Y-59505400D01*
X109408712Y-59505400D01*
X109058683Y-59575025D01*
X108661748Y-59840248D01*
X108396525Y-60237183D01*
X108303391Y-60705400D01*
X100375000Y-60705400D01*
X100375000Y-53705400D01*
X112319064Y-53705400D01*
X112319064Y-58105400D01*
X112350109Y-58261472D01*
X112438516Y-58393784D01*
X112570828Y-58482191D01*
X112726900Y-58513236D01*
X114526900Y-58513236D01*
X114682972Y-58482191D01*
X114815284Y-58393784D01*
X114903691Y-58261472D01*
X114934736Y-58105400D01*
X114934736Y-53705400D01*
X114903691Y-53549328D01*
X114815284Y-53417016D01*
X114682972Y-53328609D01*
X114526900Y-53297564D01*
X112726900Y-53297564D01*
X112570828Y-53328609D01*
X112438516Y-53417016D01*
X112350109Y-53549328D01*
X112319064Y-53705400D01*
X100375000Y-53705400D01*
X100375000Y-52026718D01*
X100443989Y-51544989D01*
X100634237Y-51126559D01*
X100934280Y-50778343D01*
X101319997Y-50528334D01*
X101772796Y-50392918D01*
X102013916Y-50375000D01*
X143448572Y-50375000D01*
X143400002Y-63148859D01*
G36*
X149468852Y-91106538D02*
X149468852Y-92515167D01*
X147933670Y-90979986D01*
X147911351Y-90946583D01*
X147779039Y-90858176D01*
X147662361Y-90834967D01*
X147622967Y-90827131D01*
X147583573Y-90834967D01*
X141661562Y-90834967D01*
X141732656Y-90763873D01*
X141824000Y-90543347D01*
X141824000Y-90397001D01*
X148759317Y-90397001D01*
X149468852Y-91106538D01*
X149468852Y-91106538D01*
G37*
X149468852Y-91106538D02*
X149468852Y-92515167D01*
X147933670Y-90979986D01*
X147911351Y-90946583D01*
X147779039Y-90858176D01*
X147662361Y-90834967D01*
X147622967Y-90827131D01*
X147583573Y-90834967D01*
X141661562Y-90834967D01*
X141732656Y-90763873D01*
X141824000Y-90543347D01*
X141824000Y-90397001D01*
X148759317Y-90397001D01*
X149468852Y-91106538D01*
G04 #@! TD*
M02*
